<?xml version="1.0" encoding="UTF-8" standalone="no"?>
<!-- Created with Inkscape (http://www.inkscape.org/) -->

<svg
   xmlns:dc="http://purl.org/dc/elements/1.1/"
   xmlns:cc="http://creativecommons.org/ns#"
   xmlns:rdf="http://www.w3.org/1999/02/22-rdf-syntax-ns#"
   xmlns:svg="http://www.w3.org/2000/svg"
   xmlns="http://www.w3.org/2000/svg"
   xmlns:sodipodi="http://sodipodi.sourceforge.net/DTD/sodipodi-0.dtd"
   xmlns:inkscape="http://www.inkscape.org/namespaces/inkscape"
   width="271.21832mm"
   height="37.338966mm"
   viewBox="0 0 961.00979 132.30342"
   id="svg2"
   version="1.1"
   inkscape:version="0.92.5 (2060ec1f9f, 2020-04-08)"
   sodipodi:docname="street_art_aberdeen_wide.svg"
   inkscape:export-filename="/home/andy/street_art_aberdeen.png"
   inkscape:export-xdpi="90"
   inkscape:export-ydpi="90">
  <defs
     id="defs4" />
  <sodipodi:namedview
     id="base"
     pagecolor="#ffffff"
     bordercolor="#666666"
     borderopacity="1.0"
     inkscape:pageopacity="0.0"
     inkscape:pageshadow="2"
     inkscape:zoom="0.76"
     inkscape:cx="413.77408"
     inkscape:cy="255.07785"
     inkscape:document-units="px"
     inkscape:current-layer="layer1"
     showgrid="false"
     inkscape:window-width="3772"
     inkscape:window-height="2096"
     inkscape:window-x="68"
     inkscape:window-y="27"
     inkscape:window-maximized="1"
     fit-margin-top="0"
     fit-margin-left="0"
     fit-margin-right="0"
     fit-margin-bottom="0" />
  <metadata
     id="metadata7">
    <rdf:RDF>
      <cc:Work
         rdf:about="">
        <dc:format>image/svg+xml</dc:format>
        <dc:type
           rdf:resource="http://purl.org/dc/dcmitype/StillImage" />
        <dc:title></dc:title>
      </cc:Work>
    </rdf:RDF>
  </metadata>
  <g
     inkscape:label="Layer 1"
     inkscape:groupmode="layer"
     id="layer1"
     transform="translate(197.37801,-445.46991)">
    <g
       id="g1154"
       transform="translate(-361.43092,276.31579)">
      <path
         inkscape:connector-curvature="0"
         id="path4326-3"
         d="m 248.16425,263.90019 c -7.63179,16.85346 -30.73048,21.71741 -48.33985,18.7207 -9.81531,-27.14998 14.58814,3.1081 28.47657,-11.95312 24.60688,-10.88873 -16.67457,-21.7737 -25.66407,-25.57617 -13.80607,-5.0463 -32.63264,-12.93471 -32.95899,-31.28906 2.3977,-19.17475 23.29925,-27.09184 38.67188,-33.92578 10.93474,-2.48575 26.7182,-7.61397 34.7168,1.84569 -3.25535,12.65402 -20.84723,4.42708 -31.72851,6.94334 -12.61088,4.35951 -28.61034,10.96523 -32.69532,24.60938 5.37724,22.09334 31.93315,24.61554 49.24072,32.93702 7.60122,3.46828 20.64493,7.28873 20.28077,17.688 z"
         style="font-style:normal;font-variant:normal;font-weight:normal;font-stretch:normal;font-size:90px;line-height:125%;font-family:'Rock Salt';-inkscape-font-specification:'Rock Salt';letter-spacing:0px;word-spacing:0px;fill:#5cdb95;fill-opacity:1;stroke:none;stroke-width:2;stroke-linecap:butt;stroke-linejoin:miter;stroke-miterlimit:4;stroke-dasharray:none;stroke-opacity:1" />
      <path
         inkscape:connector-curvature="0"
         id="path4328-6"
         d="m 308.58417,210.63847 c -4.39261,15.48503 -21.42221,6.5116 -34.10156,12.30468 -22.34386,-6.71939 -13.82738,14.99057 -12.39259,27.68554 15.20022,-5.09869 1.78715,21.58524 -7.73437,12.04102 -11.31715,-9.15987 4.75247,-40.55163 -14.15038,-36.91407 -21.94286,6.18635 -8.09879,-15.68002 8.08594,-10.1953 18.98907,-1.94165 37.94443,-2.68318 54.66796,-9.31638 4.02052,0.0301 1.29364,5.81917 5.625,4.39451 z"
         style="font-style:normal;font-variant:normal;font-weight:normal;font-stretch:normal;font-size:90px;line-height:125%;font-family:'Rock Salt';-inkscape-font-specification:'Rock Salt';letter-spacing:0px;word-spacing:0px;fill:#5cdb95;fill-opacity:1;stroke:none;stroke-width:2;stroke-linecap:butt;stroke-linejoin:miter;stroke-miterlimit:4;stroke-dasharray:none;stroke-opacity:1" />
      <path
         inkscape:connector-curvature="0"
         id="path4330-5"
         d="m 388.77949,251.85917 c -13.9098,8.95513 -35.54262,5.39345 -52.03125,10.54687 -28.20158,11.2658 -38.83176,-21.12963 -9.58008,-30.67383 26.6989,-20.81648 -10.27771,-18.43378 -25.57617,-13.09574 -11.85551,7.52957 -7.88328,34.09605 -1.14259,44.47267 -3.09794,22.51752 -20.15995,-12.46638 -14.41406,-24.16992 1.41162,-8.64387 2.70831,-20.75777 -7.82228,-11.86525 -14.89054,-6.86297 11.52595,-17.63264 17.57813,-16.61132 15.78874,-2.65267 50.30464,-15.83525 52.99804,6.85547 -1.4812,15.63673 -52.92284,42.74025 -11.68944,36.38673 16.88948,-0.3198 35.81457,-7.47066 51.67969,-1.8457 z"
         style="font-style:normal;font-variant:normal;font-weight:normal;font-stretch:normal;font-size:90px;line-height:125%;font-family:'Rock Salt';-inkscape-font-specification:'Rock Salt';letter-spacing:0px;word-spacing:0px;fill:#5cdb95;fill-opacity:1;stroke:none;stroke-width:2;stroke-linecap:butt;stroke-linejoin:miter;stroke-miterlimit:4;stroke-dasharray:none;stroke-opacity:1" />
      <path
         inkscape:connector-curvature="0"
         id="path4332-6"
         d="m 405.5412,211.2537 c -12.02058,7.19637 -47.60179,-2.48036 -44.73632,19.86326 8.24996,2.53267 34.72107,-10.06295 28.74023,4.74608 -9.74912,6.68706 -34.83837,-1.05313 -31.81641,15.55663 -4.06516,19.89681 21.36949,16.11739 24.25781,1.49981 18.24434,-14.75026 -1.46414,29.05395 -16.52344,23.28535 -16.84904,1.21951 -19.79921,-20.27117 -16.61133,-32.95897 2.34131,-11.31995 -2.45633,-27.89935 11.42579,-31.20117 13.03705,-5.80717 35.29131,-8.32909 45.26367,-0.79103 z"
         style="font-style:normal;font-variant:normal;font-weight:normal;font-stretch:normal;font-size:90px;line-height:125%;font-family:'Rock Salt';-inkscape-font-specification:'Rock Salt';letter-spacing:0px;word-spacing:0px;fill:#5cdb95;fill-opacity:1;stroke:none;stroke-width:2;stroke-linecap:butt;stroke-linejoin:miter;stroke-miterlimit:4;stroke-dasharray:none;stroke-opacity:1" />
      <path
         inkscape:connector-curvature="0"
         id="path4334-3"
         d="m 449.04511,211.2537 c -12.02059,7.19637 -47.60179,-2.48036 -44.73633,19.86326 8.24997,2.53267 34.72107,-10.06295 28.74024,4.74608 -9.74912,6.68706 -34.83836,-1.05315 -31.81642,15.55663 -4.06516,19.89679 21.36948,16.1174 24.25781,1.49981 18.24435,-14.75026 -1.46414,29.05394 -16.52343,23.28535 -16.84906,1.21951 -19.7992,-20.27118 -16.61133,-32.95897 2.34131,-11.31995 -2.45634,-27.89936 11.42578,-31.20117 13.03705,-5.80718 35.29132,-8.32909 45.26367,-0.79103 z"
         style="font-style:normal;font-variant:normal;font-weight:normal;font-stretch:normal;font-size:90px;line-height:125%;font-family:'Rock Salt';-inkscape-font-specification:'Rock Salt';letter-spacing:0px;word-spacing:0px;fill:#5cdb95;fill-opacity:1;stroke:none;stroke-width:2;stroke-linecap:butt;stroke-linejoin:miter;stroke-miterlimit:4;stroke-dasharray:none;stroke-opacity:1" />
      <path
         inkscape:connector-curvature="0"
         id="path4336-9"
         d="m 500.58808,210.63847 c -4.39263,15.48503 -21.42221,6.51161 -34.10156,12.30468 -22.34385,-6.71939 -13.82739,14.99057 -12.39259,27.68554 14.81936,-5.26962 2.39268,20.78274 -6.85547,12.30469 -12.79794,-7.49384 3.72946,-39.80273 -13.79882,-37.00195 -20.81884,6.40375 -12.93188,-14.75337 5.625,-10.37109 19.39857,-1.74315 38.81557,-2.6078 55.89844,-9.31638 4.02053,0.0301 1.29362,5.81917 5.625,4.39451 z"
         style="font-style:normal;font-variant:normal;font-weight:normal;font-stretch:normal;font-size:90px;line-height:125%;font-family:'Rock Salt';-inkscape-font-specification:'Rock Salt';letter-spacing:0px;word-spacing:0px;fill:#5cdb95;fill-opacity:1;stroke:none;stroke-width:2;stroke-linecap:butt;stroke-linejoin:miter;stroke-miterlimit:4;stroke-dasharray:none;stroke-opacity:1" />
      <path
         inkscape:connector-curvature="0"
         id="path4338-4"
         d="m 577.94941,288.07011 c -7.66252,11.82398 -23.88326,-1.99276 -26.54297,-11.16211 -8.53248,-9.97985 -25.84174,3.0396 -37.44141,1.58205 -0.70306,13.64016 -22.15824,37.88356 -16.08399,10.45898 12.63236,-8.95823 -19.71748,-19.82208 7.64649,-20.5664 10.77556,-13.10991 13.03232,-34.48489 15.90821,-51.94336 5.08769,-12.72485 -5.26421,-34.62251 6.06445,-41.66015 8.70525,6.32439 11.27279,16.83651 13.79882,26.63086 6.09658,14.8904 5.58903,30.70737 9.22852,47.37305 2.93552,12.96429 8.18916,20.7202 13.88671,32.25586 4.47002,5.04968 13.27231,-2.51208 13.53517,7.03122 z M 544.81464,263.7244 c -5.18528,-15.57769 -6.40451,-60.03261 -13.99658,-57.39257 -0.70443,20.5697 -7.77725,42.88841 -10.70067,60.90821 8.25603,-0.47092 17.21594,-0.76473 24.69725,-3.51564 z"
         style="font-style:normal;font-variant:normal;font-weight:normal;font-stretch:normal;font-size:90px;line-height:125%;font-family:'Rock Salt';-inkscape-font-specification:'Rock Salt';letter-spacing:0px;word-spacing:0px;fill:#5cdb95;fill-opacity:1;stroke:none;stroke-width:2;stroke-linecap:butt;stroke-linejoin:miter;stroke-miterlimit:4;stroke-dasharray:none;stroke-opacity:1" />
      <path
         inkscape:connector-curvature="0"
         id="path4340-8"
         d="m 661.52949,251.85917 c -13.90981,8.95513 -35.54261,5.39344 -52.03125,10.54687 -28.20158,11.2658 -38.83176,-21.12963 -9.58008,-30.67383 26.6989,-20.81648 -10.27771,-18.43378 -25.57617,-13.09574 -11.85551,7.52957 -7.88328,34.09605 -1.14259,44.47267 -3.09794,22.51752 -20.15995,-12.46638 -14.41406,-24.16992 1.41162,-8.64387 2.70831,-20.75777 -7.82228,-11.86525 -14.89054,-6.86297 11.52595,-17.63264 17.57813,-16.61132 15.78874,-2.65267 50.30464,-15.83525 52.99804,6.85547 -1.4812,15.63672 -52.92285,42.74025 -11.68945,36.38673 16.88948,-0.3198 35.81457,-7.47066 51.67969,-1.8457 z"
         style="font-style:normal;font-variant:normal;font-weight:normal;font-stretch:normal;font-size:90px;line-height:125%;font-family:'Rock Salt';-inkscape-font-specification:'Rock Salt';letter-spacing:0px;word-spacing:0px;fill:#5cdb95;fill-opacity:1;stroke:none;stroke-width:2;stroke-linecap:butt;stroke-linejoin:miter;stroke-miterlimit:4;stroke-dasharray:none;stroke-opacity:1" />
      <path
         inkscape:connector-curvature="0"
         id="path4342-1"
         d="m 694.57246,210.63847 c -4.39263,15.48503 -21.42221,6.51161 -34.10157,12.30468 -22.34386,-6.71939 -13.82738,14.99057 -12.39258,27.68554 15.20021,-5.09869 1.78716,21.58523 -7.73437,12.04102 -11.31715,-9.15987 4.75247,-40.55163 -14.15038,-36.91407 -21.94286,6.18635 -8.09879,-15.68002 8.08594,-10.1953 18.98907,-1.94165 37.94442,-2.68318 54.66797,-9.31638 4.0205,0.0301 1.29366,5.81918 5.62499,4.39451 z"
         style="font-style:normal;font-variant:normal;font-weight:normal;font-stretch:normal;font-size:90px;line-height:125%;font-family:'Rock Salt';-inkscape-font-specification:'Rock Salt';letter-spacing:0px;word-spacing:0px;fill:#5cdb95;fill-opacity:1;stroke:none;stroke-width:2;stroke-linecap:butt;stroke-linejoin:miter;stroke-miterlimit:4;stroke-dasharray:none;stroke-opacity:1" />
      <path
         inkscape:connector-curvature="0"
         id="path4344-2"
         d="m 781.93378,288.07011 c -7.66252,11.82398 -23.88323,-1.99276 -26.54297,-11.16211 -8.53247,-9.97985 -25.84173,3.0396 -37.4414,1.58205 -0.70307,13.64015 -22.15823,37.88357 -16.084,10.45898 12.63237,-8.95824 -19.71749,-19.82209 7.6465,-20.5664 10.77556,-13.10991 13.03232,-34.48488 15.9082,-51.94336 5.08769,-12.72485 -5.26421,-34.62249 6.06445,-41.66015 8.70525,6.32438 11.27281,16.83652 13.79882,26.63086 6.1037,14.7417 5.57461,30.9554 9.22853,47.37305 1.77145,12.03876 8.53427,19.19007 12.21679,29.61914 2.924,9.24691 14.83509,-0.77011 15.20508,9.66794 z M 748.79902,263.7244 c -5.18529,-15.5777 -6.40452,-60.03262 -13.99658,-57.39257 -0.70445,20.56969 -7.77723,42.88842 -10.70068,60.90821 8.25603,-0.47092 17.21594,-0.76473 24.69726,-3.51564 z"
         style="font-style:normal;font-variant:normal;font-weight:normal;font-stretch:normal;font-size:90px;line-height:125%;font-family:'Rock Salt';-inkscape-font-specification:'Rock Salt';letter-spacing:0px;word-spacing:0px;fill:#5cdb95;fill-opacity:1;stroke:none;stroke-width:2;stroke-linecap:butt;stroke-linejoin:miter;stroke-miterlimit:4;stroke-dasharray:none;stroke-opacity:1" />
      <path
         inkscape:connector-curvature="0"
         id="path4346-9"
         d="m 821.01972,205.18925 c -0.74484,17.87007 -48.17756,28.06301 -15.46875,33.04688 22.19559,7.10671 -8.47147,24.62208 -18.36915,24.78516 -15.07702,-7.84804 24.43604,-11.65605 10.54688,-18.01757 -20.02503,-6.69849 -33.13199,4.17121 -23.81837,18.01758 -23.68212,-0.51623 -7.1791,-37.05935 -11.60159,-51.41602 -8.95641,-1.57312 -18.28802,12.70271 -24.52148,3.16407 8.27212,-12.6365 28.96652,-10.12802 42.80273,-14.85353 12.83594,-2.09331 27.01054,-9.4753 38.75977,-0.61521 0.24869,2.06296 1.53101,3.79748 1.66996,5.88864 z m -9.75586,0.9668 c -10.03103,-6.45858 -24.0687,0.93743 -35.33204,2.54882 -14.14825,20.80616 2.45315,34.06203 19.16016,13.00782 6.53333,-3.23267 14.75729,-7.7906 16.17188,-15.55664 z"
         style="font-style:normal;font-variant:normal;font-weight:normal;font-stretch:normal;font-size:90px;line-height:125%;font-family:'Rock Salt';-inkscape-font-specification:'Rock Salt';letter-spacing:0px;word-spacing:0px;fill:#5cdb95;fill-opacity:1;stroke:none;stroke-width:2;stroke-linecap:butt;stroke-linejoin:miter;stroke-miterlimit:4;stroke-dasharray:none;stroke-opacity:1" />
      <path
         inkscape:connector-curvature="0"
         id="path4348-3"
         d="m 871.88496,211.2537 c -12.02059,7.19637 -47.60181,-2.48036 -44.73633,19.86326 8.24996,2.53267 34.72107,-10.06295 28.74023,4.74608 -9.74912,6.68706 -34.83838,-1.05314 -31.81641,15.55663 -4.06517,19.89681 21.36948,16.11738 24.25781,1.49981 18.24434,-14.75026 -1.46415,29.05394 -16.52344,23.28535 -16.84904,1.21951 -19.79921,-20.27117 -16.61133,-32.95897 2.34131,-11.31995 -2.45632,-27.89935 11.42579,-31.20117 13.03706,-5.80718 35.29131,-8.32909 45.26368,-0.79103 z"
         style="font-style:normal;font-variant:normal;font-weight:normal;font-stretch:normal;font-size:90px;line-height:125%;font-family:'Rock Salt';-inkscape-font-specification:'Rock Salt';letter-spacing:0px;word-spacing:0px;fill:#5cdb95;fill-opacity:1;stroke:none;stroke-width:2;stroke-linecap:butt;stroke-linejoin:miter;stroke-miterlimit:4;stroke-dasharray:none;stroke-opacity:1" />
      <path
         inkscape:connector-curvature="0"
         id="path4350-9"
         d="m 966.16621,251.85917 c -13.90981,8.95513 -35.54261,5.39344 -52.03125,10.54687 -28.20158,11.26581 -38.83176,-21.12963 -9.58008,-30.67383 26.6989,-20.81648 -10.27771,-18.43378 -25.57617,-13.09574 -11.8555,7.52957 -7.88329,34.09606 -1.14259,44.47267 -3.09796,22.51752 -20.15994,-12.4664 -14.41407,-24.16992 1.41163,-8.64386 2.70831,-20.75778 -7.82227,-11.86525 -14.89055,-6.86296 11.52594,-17.63264 17.57812,-16.61132 15.78874,-2.65267 50.30465,-15.83525 52.99805,6.85547 -1.48122,15.63672 -52.92284,42.74025 -11.68944,36.38673 16.88948,-0.31981 35.81457,-7.47066 51.67969,-1.8457 z"
         style="font-style:normal;font-variant:normal;font-weight:normal;font-stretch:normal;font-size:90px;line-height:125%;font-family:'Rock Salt';-inkscape-font-specification:'Rock Salt';letter-spacing:0px;word-spacing:0px;fill:#5cdb95;fill-opacity:1;stroke:none;stroke-width:2;stroke-linecap:butt;stroke-linejoin:miter;stroke-miterlimit:4;stroke-dasharray:none;stroke-opacity:1" />
      <path
         inkscape:connector-curvature="0"
         id="path4352-0"
         d="m 988.35566,223.82206 c -3.8359,19.67704 -22.44196,36.42259 -41.13281,42.1875 -11.7756,-4.97863 -15.22234,-15.02253 -12.854,-27.37792 5.44574,-17.89893 -1.56507,-20.71686 -12.54638,-23.59863 6.03657,-12.08955 24.06894,-10.72065 36.29882,-12.56836 13.95953,-0.69889 27.10016,7.46952 30.23437,21.35741 z m -8.17383,1.31836 c -3.98542,-15.25788 -23.92891,-16.1006 -35.68359,-10.63475 3.87906,10.70025 -8.52116,32.30231 3.16406,40.78126 11.61451,-0.27431 20.77874,-12.4085 29.09179,-22.06053 3.08193,-1.95111 1.7899,-5.48047 3.42774,-8.08598 z"
         style="font-style:normal;font-variant:normal;font-weight:normal;font-stretch:normal;font-size:90px;line-height:125%;font-family:'Rock Salt';-inkscape-font-specification:'Rock Salt';letter-spacing:0px;word-spacing:0px;fill:#5cdb95;fill-opacity:1;stroke:none;stroke-width:2;stroke-linecap:butt;stroke-linejoin:miter;stroke-miterlimit:4;stroke-dasharray:none;stroke-opacity:1" />
      <path
         inkscape:connector-curvature="0"
         id="path4354-8"
         d="m 1033.8576,211.2537 c -12.0206,7.19637 -47.60178,-2.48036 -44.73632,19.86326 8.24997,2.53267 34.72102,-10.06295 28.74022,4.74608 -9.7491,6.68706 -34.83834,-1.05315 -31.8164,15.55663 -4.06516,19.89679 21.3695,16.1174 24.2578,1.49981 18.2444,-14.75026 -1.4641,29.05394 -16.52342,23.28535 -16.84905,1.21951 -19.79923,-20.27118 -16.61133,-32.95897 2.34129,-11.31995 -2.45632,-27.89936 11.42579,-31.20117 13.03706,-5.80718 35.29136,-8.32909 45.26366,-0.79103 z"
         style="font-style:normal;font-variant:normal;font-weight:normal;font-stretch:normal;font-size:90px;line-height:125%;font-family:'Rock Salt';-inkscape-font-specification:'Rock Salt';letter-spacing:0px;word-spacing:0px;fill:#5cdb95;fill-opacity:1;stroke:none;stroke-width:2;stroke-linecap:butt;stroke-linejoin:miter;stroke-miterlimit:4;stroke-dasharray:none;stroke-opacity:1" />
      <path
         inkscape:connector-curvature="0"
         id="path4356-8"
         d="m 1077.3615,211.2537 c -12.0206,7.19637 -47.6018,-2.48036 -44.7363,19.86326 8.25,2.53267 34.7211,-10.06295 28.7402,4.74608 -9.7491,6.68706 -34.8384,-1.05313 -31.8164,15.55663 -4.0652,19.89681 21.3695,16.11739 24.2578,1.49981 18.2444,-14.75026 -1.4641,29.05395 -16.5234,23.28535 -16.8491,1.21951 -19.7992,-20.27117 -16.6113,-32.95897 2.3413,-11.31994 -2.4564,-27.89936 11.4258,-31.20117 13.037,-5.80718 35.2913,-8.32909 45.2636,-0.79103 z"
         style="font-style:normal;font-variant:normal;font-weight:normal;font-stretch:normal;font-size:90px;line-height:125%;font-family:'Rock Salt';-inkscape-font-specification:'Rock Salt';letter-spacing:0px;word-spacing:0px;fill:#5cdb95;fill-opacity:1;stroke:none;stroke-width:2;stroke-linecap:butt;stroke-linejoin:miter;stroke-miterlimit:4;stroke-dasharray:none;stroke-opacity:1" />
      <path
         inkscape:connector-curvature="0"
         id="path4358-5"
         d="m 1125.0627,209.408 c -9.6231,15.41499 4.2761,36.35319 -2.2852,54.22851 -11.2388,20.65173 -31.0897,-1.27024 -38.7597,-13.88671 -6.5928,-20.64326 -10.1021,9.06726 -10.1074,16.43554 13.8255,17.66579 -22.0113,15.59999 -9.4043,-8.17383 8.1886,-9.87157 3.3609,-69.42173 19.3359,-41.04492 2.9094,16.34188 12.715,43.81126 29.6192,43.50586 6.9496,-17.86687 -1.7568,-37.38789 -1.4063,-55.81055 5.1886,0.0397 9.3519,0.98661 13.0078,4.7461 z"
         style="font-style:normal;font-variant:normal;font-weight:normal;font-stretch:normal;font-size:90px;line-height:125%;font-family:'Rock Salt';-inkscape-font-specification:'Rock Salt';letter-spacing:0px;word-spacing:0px;fill:#5cdb95;fill-opacity:1;stroke:none;stroke-width:2;stroke-linecap:butt;stroke-linejoin:miter;stroke-miterlimit:4;stroke-dasharray:none;stroke-opacity:1" />
    </g>
    <g
       id="g1000"
       transform="translate(120.12339,311.91294)">
      <path
         inkscape:connector-curvature="0"
         id="path4326"
         d="m -239.01506,222.67804 c -7.63179,16.85346 -30.73048,21.71741 -48.33985,18.7207 -9.81531,-27.14998 14.58814,3.1081 28.47657,-11.95312 24.60688,-10.88873 -16.67457,-21.7737 -25.66407,-25.57617 -13.80607,-5.0463 -32.63264,-12.93471 -32.95899,-31.28906 2.3977,-19.17475 23.29925,-27.09184 38.67188,-33.92578 10.93474,-2.48575 26.7182,-7.61397 34.7168,1.84569 -3.25535,12.65402 -20.84723,4.42708 -31.72851,6.94334 -12.61088,4.35951 -28.61034,10.96523 -32.69532,24.60938 5.37724,22.09334 31.93315,24.61554 49.24072,32.93702 7.60122,3.46828 20.64493,7.28873 20.28077,17.688 z"
         style="font-style:normal;font-variant:normal;font-weight:normal;font-stretch:normal;font-size:90px;line-height:125%;font-family:'Rock Salt';-inkscape-font-specification:'Rock Salt';letter-spacing:0px;word-spacing:0px;fill:#314152;fill-opacity:1;stroke:none;stroke-width:2;stroke-linecap:butt;stroke-linejoin:miter;stroke-miterlimit:4;stroke-dasharray:none;stroke-opacity:1" />
      <path
         inkscape:connector-curvature="0"
         id="path4328"
         d="m -178.59514,169.41632 c -4.39261,15.48503 -21.42221,6.5116 -34.10156,12.30468 -22.34386,-6.71939 -13.82738,14.99057 -12.39259,27.68554 15.20022,-5.09869 1.78715,21.58524 -7.73437,12.04102 -11.31715,-9.15987 4.75247,-40.55163 -14.15038,-36.91407 -21.94286,6.18635 -8.09879,-15.68002 8.08594,-10.1953 18.98907,-1.94165 37.94443,-2.68318 54.66796,-9.31638 4.02052,0.0301 1.29364,5.81917 5.625,4.39451 z"
         style="font-style:normal;font-variant:normal;font-weight:normal;font-stretch:normal;font-size:90px;line-height:125%;font-family:'Rock Salt';-inkscape-font-specification:'Rock Salt';letter-spacing:0px;word-spacing:0px;fill:#314152;fill-opacity:1;stroke:none;stroke-width:2;stroke-linecap:butt;stroke-linejoin:miter;stroke-miterlimit:4;stroke-dasharray:none;stroke-opacity:1" />
      <path
         inkscape:connector-curvature="0"
         id="path4330"
         d="m -98.399824,210.63702 c -13.909796,8.95513 -35.542616,5.39345 -52.031246,10.54687 -28.20158,11.2658 -38.83176,-21.12963 -9.58008,-30.67383 26.6989,-20.81648 -10.27771,-18.43378 -25.57617,-13.09574 -11.85551,7.52957 -7.88328,34.09605 -1.14259,44.47267 -3.09794,22.51752 -20.15995,-12.46638 -14.41406,-24.16992 1.41162,-8.64387 2.70831,-20.75777 -7.82228,-11.86525 -14.89054,-6.86297 11.52595,-17.63264 17.57813,-16.61132 15.78874,-2.65267 50.30464,-15.83525 52.99804,6.85547 -1.4812,15.63673 -52.92284,42.74025 -11.68944,36.38673 16.88948,-0.3198 35.81457,-7.47066 51.679686,-1.8457 z"
         style="font-style:normal;font-variant:normal;font-weight:normal;font-stretch:normal;font-size:90px;line-height:125%;font-family:'Rock Salt';-inkscape-font-specification:'Rock Salt';letter-spacing:0px;word-spacing:0px;fill:#314152;fill-opacity:1;stroke:none;stroke-width:2;stroke-linecap:butt;stroke-linejoin:miter;stroke-miterlimit:4;stroke-dasharray:none;stroke-opacity:1" />
      <path
         inkscape:connector-curvature="0"
         id="path4332"
         d="m -81.638105,170.03155 c -12.020581,7.19637 -47.601795,-2.48036 -44.736325,19.86326 8.24996,2.53267 34.721073,-10.06295 28.740231,4.74608 -9.749121,6.68706 -34.838371,-1.05313 -31.816411,15.55663 -4.06516,19.89681 21.36949,16.11739 24.25781,1.49981 18.244339,-14.75026 -1.46414,29.05395 -16.52344,23.28535 -16.84904,1.21951 -19.79921,-20.27117 -16.61133,-32.95897 2.34131,-11.31995 -2.45633,-27.89935 11.42579,-31.20117 13.03705,-5.80717 35.291313,-8.32909 45.263674,-0.79103 z"
         style="font-style:normal;font-variant:normal;font-weight:normal;font-stretch:normal;font-size:90px;line-height:125%;font-family:'Rock Salt';-inkscape-font-specification:'Rock Salt';letter-spacing:0px;word-spacing:0px;fill:#314152;fill-opacity:1;stroke:none;stroke-width:2;stroke-linecap:butt;stroke-linejoin:miter;stroke-miterlimit:4;stroke-dasharray:none;stroke-opacity:1" />
      <path
         inkscape:connector-curvature="0"
         id="path4334"
         d="m -38.1342,170.03155 c -12.020585,7.19637 -47.601788,-2.48036 -44.73633,19.86326 8.249971,2.53267 34.721067,-10.06295 28.74024,4.74608 -9.749116,6.68706 -34.838363,-1.05315 -31.81642,15.55663 -4.065164,19.89679 21.369482,16.1174 24.25781,1.49981 18.244352,-14.75026 -1.464137,29.05394 -16.52343,23.28535 -16.849062,1.21951 -19.799201,-20.27118 -16.611332,-32.95897 2.341308,-11.31995 -2.456336,-27.89936 11.425782,-31.20117 13.037053,-5.80718 35.291319,-8.32909 45.26367,-0.79103 z"
         style="font-style:normal;font-variant:normal;font-weight:normal;font-stretch:normal;font-size:90px;line-height:125%;font-family:'Rock Salt';-inkscape-font-specification:'Rock Salt';letter-spacing:0px;word-spacing:0px;fill:#314152;fill-opacity:1;stroke:none;stroke-width:2;stroke-linecap:butt;stroke-linejoin:miter;stroke-miterlimit:4;stroke-dasharray:none;stroke-opacity:1" />
      <path
         inkscape:connector-curvature="0"
         id="path4336"
         d="m 13.40877,169.41632 c -4.3926268,15.48503 -21.4222051,6.51161 -34.10156,12.30468 -22.343854,-6.71939 -13.827385,14.99057 -12.39259,27.68554 14.819362,-5.26962 2.392681,20.78274 -6.85547,12.30469 -12.797937,-7.49384 3.729464,-39.80273 -13.79882,-37.00195 -20.818843,6.40375 -12.931879,-14.75337 5.625,-10.37109 19.398575,-1.74315 38.8155738,-2.6078 55.89844,-9.31638 4.020533,0.0301 1.2936227,5.81917 5.625,4.39451 z"
         style="font-style:normal;font-variant:normal;font-weight:normal;font-stretch:normal;font-size:90px;line-height:125%;font-family:'Rock Salt';-inkscape-font-specification:'Rock Salt';letter-spacing:0px;word-spacing:0px;fill:#314152;fill-opacity:1;stroke:none;stroke-width:2;stroke-linecap:butt;stroke-linejoin:miter;stroke-miterlimit:4;stroke-dasharray:none;stroke-opacity:1" />
      <path
         inkscape:connector-curvature="0"
         id="path4338"
         d="m 90.7701,246.84796 c -7.662519,11.82398 -23.883255,-1.99276 -26.54297,-11.16211 -8.532478,-9.97985 -25.841738,3.0396 -37.44141,1.58205 -0.70306,13.64016 -22.1582391,37.88356 -16.08399,10.45898 12.632356,-8.95823 -19.717482,-19.82208 7.64649,-20.5664 10.775564,-13.10991 13.032323,-34.48489 15.90821,-51.94336 5.087687,-12.72485 -5.264209,-34.62251 6.06445,-41.66015 8.705247,6.32439 11.272791,16.83651 13.79882,26.63086 6.096584,14.8904 5.58903,30.70737 9.22852,47.37305 2.935523,12.96429 8.189161,20.7202 13.88671,32.25586 4.47002,5.04968 13.272307,-2.51208 13.53517,7.03122 z M 57.63533,222.50225 c -5.185285,-15.57769 -6.404512,-60.03261 -13.99658,-57.39257 -0.704428,20.5697 -7.777247,42.88841 -10.70067,60.90821 8.25603,-0.47092 17.215937,-0.76473 24.69725,-3.51564 z"
         style="font-style:normal;font-variant:normal;font-weight:normal;font-stretch:normal;font-size:90px;line-height:125%;font-family:'Rock Salt';-inkscape-font-specification:'Rock Salt';letter-spacing:0px;word-spacing:0px;fill:#314152;fill-opacity:1;stroke:none;stroke-width:2;stroke-linecap:butt;stroke-linejoin:miter;stroke-miterlimit:4;stroke-dasharray:none;stroke-opacity:1" />
      <path
         inkscape:connector-curvature="0"
         id="path4340"
         d="m 174.35018,210.63702 c -13.90981,8.95513 -35.54261,5.39344 -52.03125,10.54687 -28.201581,11.2658 -38.831764,-21.12963 -9.58008,-30.67383 26.6989,-20.81648 -10.27771,-18.43378 -25.57617,-13.09574 -11.855506,7.52957 -7.883279,34.09605 -1.14259,44.47267 -3.097937,22.51752 -20.15995,-12.46638 -14.41406,-24.16992 1.411618,-8.64387 2.708307,-20.75777 -7.82228,-11.86525 -14.890544,-6.86297 11.52595,-17.63264 17.57813,-16.61132 15.788741,-2.65267 50.30464,-15.83525 52.99804,6.85547 -1.4812,15.63672 -52.922847,42.74025 -11.68945,36.38673 16.88948,-0.3198 35.81457,-7.47066 51.67969,-1.8457 z"
         style="font-style:normal;font-variant:normal;font-weight:normal;font-stretch:normal;font-size:90px;line-height:125%;font-family:'Rock Salt';-inkscape-font-specification:'Rock Salt';letter-spacing:0px;word-spacing:0px;fill:#314152;fill-opacity:1;stroke:none;stroke-width:2;stroke-linecap:butt;stroke-linejoin:miter;stroke-miterlimit:4;stroke-dasharray:none;stroke-opacity:1" />
      <path
         inkscape:connector-curvature="0"
         id="path4342"
         d="m 207.39315,169.41632 c -4.39263,15.48503 -21.42221,6.51161 -34.10157,12.30468 -22.34386,-6.71939 -13.82738,14.99057 -12.39258,27.68554 15.20021,-5.09869 1.78716,21.58523 -7.73437,12.04102 -11.31715,-9.15987 4.75247,-40.55163 -14.15038,-36.91407 -21.94286,6.18635 -8.09879,-15.68002 8.08594,-10.1953 18.98907,-1.94165 37.94442,-2.68318 54.66797,-9.31638 4.0205,0.0301 1.29366,5.81918 5.62499,4.39451 z"
         style="font-style:normal;font-variant:normal;font-weight:normal;font-stretch:normal;font-size:90px;line-height:125%;font-family:'Rock Salt';-inkscape-font-specification:'Rock Salt';letter-spacing:0px;word-spacing:0px;fill:#314152;fill-opacity:1;stroke:none;stroke-width:2;stroke-linecap:butt;stroke-linejoin:miter;stroke-miterlimit:4;stroke-dasharray:none;stroke-opacity:1" />
      <path
         inkscape:connector-curvature="0"
         id="path4344"
         d="m 294.75447,246.84796 c -7.66252,11.82398 -23.88323,-1.99276 -26.54297,-11.16211 -8.53247,-9.97985 -25.84173,3.0396 -37.4414,1.58205 -0.70307,13.64015 -22.15823,37.88357 -16.084,10.45898 12.63237,-8.95824 -19.71749,-19.82209 7.6465,-20.5664 10.77556,-13.10991 13.03232,-34.48488 15.9082,-51.94336 5.08769,-12.72485 -5.26421,-34.62249 6.06445,-41.66015 8.70525,6.32438 11.27281,16.83652 13.79882,26.63086 6.1037,14.7417 5.57461,30.9554 9.22853,47.37305 1.77145,12.03876 8.53427,19.19007 12.21679,29.61914 2.924,9.24691 14.83509,-0.77011 15.20508,9.66794 z m -33.13476,-24.34571 c -5.18529,-15.5777 -6.40452,-60.03262 -13.99658,-57.39257 -0.70445,20.56969 -7.77723,42.88842 -10.70068,60.90821 8.25603,-0.47092 17.21594,-0.76473 24.69726,-3.51564 z"
         style="font-style:normal;font-variant:normal;font-weight:normal;font-stretch:normal;font-size:90px;line-height:125%;font-family:'Rock Salt';-inkscape-font-specification:'Rock Salt';letter-spacing:0px;word-spacing:0px;fill:#314152;fill-opacity:1;stroke:none;stroke-width:2;stroke-linecap:butt;stroke-linejoin:miter;stroke-miterlimit:4;stroke-dasharray:none;stroke-opacity:1" />
      <path
         inkscape:connector-curvature="0"
         id="path4346"
         d="m 333.84041,163.9671 c -0.74484,17.87007 -48.17756,28.06301 -15.46875,33.04688 22.19559,7.10671 -8.47147,24.62208 -18.36915,24.78516 -15.07702,-7.84804 24.43604,-11.65605 10.54688,-18.01757 -20.02503,-6.69849 -33.13199,4.17121 -23.81837,18.01758 -23.68212,-0.51623 -7.1791,-37.05935 -11.60159,-51.41602 -8.95641,-1.57312 -18.28802,12.70271 -24.52148,3.16407 8.27212,-12.6365 28.96652,-10.12802 42.80273,-14.85353 12.83594,-2.09331 27.01054,-9.4753 38.75977,-0.61521 0.24869,2.06296 1.53101,3.79748 1.66996,5.88864 z m -9.75586,0.9668 c -10.03103,-6.45858 -24.0687,0.93743 -35.33204,2.54882 -14.14825,20.80616 2.45315,34.06203 19.16016,13.00782 6.53333,-3.23267 14.75729,-7.7906 16.17188,-15.55664 z"
         style="font-style:normal;font-variant:normal;font-weight:normal;font-stretch:normal;font-size:90px;line-height:125%;font-family:'Rock Salt';-inkscape-font-specification:'Rock Salt';letter-spacing:0px;word-spacing:0px;fill:#314152;fill-opacity:1;stroke:none;stroke-width:2;stroke-linecap:butt;stroke-linejoin:miter;stroke-miterlimit:4;stroke-dasharray:none;stroke-opacity:1" />
      <path
         inkscape:connector-curvature="0"
         id="path4348"
         d="m 384.70565,170.03155 c -12.02059,7.19637 -47.60181,-2.48036 -44.73633,19.86326 8.24996,2.53267 34.72107,-10.06295 28.74023,4.74608 -9.74912,6.68706 -34.83838,-1.05314 -31.81641,15.55663 -4.06517,19.89681 21.36948,16.11738 24.25781,1.49981 18.24434,-14.75026 -1.46415,29.05394 -16.52344,23.28535 -16.84904,1.21951 -19.79921,-20.27117 -16.61133,-32.95897 2.34131,-11.31995 -2.45632,-27.89935 11.42579,-31.20117 13.03706,-5.80718 35.29131,-8.32909 45.26368,-0.79103 z"
         style="font-style:normal;font-variant:normal;font-weight:normal;font-stretch:normal;font-size:90px;line-height:125%;font-family:'Rock Salt';-inkscape-font-specification:'Rock Salt';letter-spacing:0px;word-spacing:0px;fill:#314152;fill-opacity:1;stroke:none;stroke-width:2;stroke-linecap:butt;stroke-linejoin:miter;stroke-miterlimit:4;stroke-dasharray:none;stroke-opacity:1" />
      <path
         inkscape:connector-curvature="0"
         id="path4350"
         d="m 478.9869,210.63702 c -13.90981,8.95513 -35.54261,5.39344 -52.03125,10.54687 -28.20158,11.26581 -38.83176,-21.12963 -9.58008,-30.67383 26.6989,-20.81648 -10.27771,-18.43378 -25.57617,-13.09574 -11.8555,7.52957 -7.88329,34.09606 -1.14259,44.47267 -3.09796,22.51752 -20.15994,-12.4664 -14.41407,-24.16992 1.41163,-8.64386 2.70831,-20.75778 -7.82227,-11.86525 -14.89055,-6.86296 11.52594,-17.63264 17.57812,-16.61132 15.78874,-2.65267 50.30465,-15.83525 52.99805,6.85547 -1.48122,15.63672 -52.92284,42.74025 -11.68944,36.38673 16.88948,-0.31981 35.81457,-7.47066 51.67969,-1.8457 z"
         style="font-style:normal;font-variant:normal;font-weight:normal;font-stretch:normal;font-size:90px;line-height:125%;font-family:'Rock Salt';-inkscape-font-specification:'Rock Salt';letter-spacing:0px;word-spacing:0px;fill:#314152;fill-opacity:1;stroke:none;stroke-width:2;stroke-linecap:butt;stroke-linejoin:miter;stroke-miterlimit:4;stroke-dasharray:none;stroke-opacity:1" />
      <path
         inkscape:connector-curvature="0"
         id="path4352"
         d="m 501.17635,182.59991 c -3.8359,19.67704 -22.44196,36.42259 -41.13281,42.1875 -11.7756,-4.97863 -15.22234,-15.02253 -12.854,-27.37792 5.44574,-17.89893 -1.56507,-20.71686 -12.54638,-23.59863 6.03657,-12.08955 24.06894,-10.72065 36.29882,-12.56836 13.95953,-0.69889 27.10016,7.46952 30.23437,21.35741 z m -8.17383,1.31836 c -3.98542,-15.25788 -23.92891,-16.1006 -35.68359,-10.63475 3.87906,10.70025 -8.52116,32.30231 3.16406,40.78126 11.61451,-0.27431 20.77874,-12.4085 29.09179,-22.06053 3.08193,-1.95111 1.7899,-5.48047 3.42774,-8.08598 z"
         style="font-style:normal;font-variant:normal;font-weight:normal;font-stretch:normal;font-size:90px;line-height:125%;font-family:'Rock Salt';-inkscape-font-specification:'Rock Salt';letter-spacing:0px;word-spacing:0px;fill:#314152;fill-opacity:1;stroke:none;stroke-width:2;stroke-linecap:butt;stroke-linejoin:miter;stroke-miterlimit:4;stroke-dasharray:none;stroke-opacity:1" />
      <path
         inkscape:connector-curvature="0"
         id="path4354"
         d="m 546.6783,170.03155 c -12.02059,7.19637 -47.60179,-2.48036 -44.73633,19.86326 8.24997,2.53267 34.72107,-10.06295 28.74024,4.74608 -9.74912,6.68706 -34.83836,-1.05315 -31.81642,15.55663 -4.06516,19.89679 21.36948,16.1174 24.25781,1.49981 18.24435,-14.75026 -1.46414,29.05394 -16.52343,23.28535 -16.84905,1.21951 -19.79923,-20.27118 -16.61133,-32.95897 2.34129,-11.31995 -2.45632,-27.89936 11.42579,-31.20117 13.03705,-5.80718 35.29132,-8.32909 45.26367,-0.79103 z"
         style="font-style:normal;font-variant:normal;font-weight:normal;font-stretch:normal;font-size:90px;line-height:125%;font-family:'Rock Salt';-inkscape-font-specification:'Rock Salt';letter-spacing:0px;word-spacing:0px;fill:#314152;fill-opacity:1;stroke:none;stroke-width:2;stroke-linecap:butt;stroke-linejoin:miter;stroke-miterlimit:4;stroke-dasharray:none;stroke-opacity:1" />
      <path
         inkscape:connector-curvature="0"
         id="path4356"
         d="m 590.18221,170.03155 c -12.02059,7.19637 -47.60179,-2.48036 -44.73633,19.86326 8.24996,2.53267 34.72108,-10.06295 28.74023,4.74608 -9.74912,6.68706 -34.83838,-1.05313 -31.81641,15.55663 -4.06517,19.89681 21.36949,16.11739 24.25781,1.49981 18.24434,-14.75026 -1.46414,29.05395 -16.52344,23.28535 -16.84904,1.21951 -19.79921,-20.27117 -16.61133,-32.95897 2.34131,-11.31994 -2.45632,-27.89936 11.4258,-31.20117 13.03705,-5.80718 35.2913,-8.32909 45.26367,-0.79103 z"
         style="font-style:normal;font-variant:normal;font-weight:normal;font-stretch:normal;font-size:90px;line-height:125%;font-family:'Rock Salt';-inkscape-font-specification:'Rock Salt';letter-spacing:0px;word-spacing:0px;fill:#314152;fill-opacity:1;stroke:none;stroke-width:2;stroke-linecap:butt;stroke-linejoin:miter;stroke-miterlimit:4;stroke-dasharray:none;stroke-opacity:1" />
      <path
         inkscape:connector-curvature="0"
         id="path4358"
         d="m 637.88338,168.18585 c -9.62314,15.41499 4.27615,36.35319 -2.28517,54.22851 -11.23879,20.65173 -31.08977,-1.27024 -38.75976,-13.88671 -6.59277,-20.64326 -10.10208,9.06726 -10.10741,16.43554 13.82558,17.66579 -22.01125,15.59999 -9.4043,-8.17383 8.18869,-9.87157 3.3609,-69.42173 19.33596,-41.04492 2.90936,16.34188 12.71501,43.81126 29.61914,43.50586 6.94969,-17.86687 -1.75674,-37.38789 -1.40623,-55.81055 5.18856,0.0397 9.3519,0.98661 13.00777,4.7461 z"
         style="font-style:normal;font-variant:normal;font-weight:normal;font-stretch:normal;font-size:90px;line-height:125%;font-family:'Rock Salt';-inkscape-font-specification:'Rock Salt';letter-spacing:0px;word-spacing:0px;fill:#314152;fill-opacity:1;stroke:none;stroke-width:2;stroke-linecap:butt;stroke-linejoin:miter;stroke-miterlimit:4;stroke-dasharray:none;stroke-opacity:1" />
    </g>
  </g>
</svg>
