<?xml version="1.0" encoding="UTF-8" standalone="no"?>
<!-- Created with Inkscape (http://www.inkscape.org/) -->

<svg
   xmlns:dc="http://purl.org/dc/elements/1.1/"
   xmlns:cc="http://creativecommons.org/ns#"
   xmlns:rdf="http://www.w3.org/1999/02/22-rdf-syntax-ns#"
   xmlns:svg="http://www.w3.org/2000/svg"
   xmlns="http://www.w3.org/2000/svg"
   xmlns:sodipodi="http://sodipodi.sourceforge.net/DTD/sodipodi-0.dtd"
   xmlns:inkscape="http://www.inkscape.org/namespaces/inkscape"
   width="442.32242mm"
   height="176.09102mm"
   viewBox="0 0 1567.2842 623.94456"
   id="svg2"
   version="1.1"
   inkscape:version="0.91 r13725"
   sodipodi:docname="street_art_aberdeen.svg"
   inkscape:export-filename="/home/andy/street_art_aberdeen.png"
   inkscape:export-xdpi="90"
   inkscape:export-ydpi="90">
  <defs
     id="defs4" />
  <sodipodi:namedview
     id="base"
     pagecolor="#ffffff"
     bordercolor="#666666"
     borderopacity="1.0"
     inkscape:pageopacity="0.0"
     inkscape:pageshadow="2"
     inkscape:zoom="0.35"
     inkscape:cx="94.843768"
     inkscape:cy="440.21293"
     inkscape:document-units="px"
     inkscape:current-layer="layer1"
     showgrid="false"
     inkscape:window-width="1920"
     inkscape:window-height="1020"
     inkscape:window-x="0"
     inkscape:window-y="31"
     inkscape:window-maximized="1"
     fit-margin-top="0"
     fit-margin-left="0"
     fit-margin-right="0"
     fit-margin-bottom="0" />
  <metadata
     id="metadata7">
    <rdf:RDF>
      <cc:Work
         rdf:about="">
        <dc:format>image/svg+xml</dc:format>
        <dc:type
           rdf:resource="http://purl.org/dc/dcmitype/StillImage" />
        <dc:title></dc:title>
      </cc:Work>
    </rdf:RDF>
  </metadata>
  <g
     inkscape:label="Layer 1"
     inkscape:groupmode="layer"
     id="layer1"
     transform="translate(246.98662,-357.20197)">
    <path
       style="font-style:normal;font-variant:normal;font-weight:normal;font-stretch:normal;font-size:241.57670593px;line-height:87.00000048%;font-family:'Rock Salt';-inkscape-font-specification:'Rock Salt';text-align:center;letter-spacing:0px;word-spacing:0px;text-anchor:middle;fill:#000000;fill-opacity:1;stroke:#ffffff;stroke-width:5;stroke-linecap:butt;stroke-linejoin:round;stroke-miterlimit:4;stroke-dasharray:none;stroke-opacity:1"
       d="m -59.726144,626.59204 c -9.615828,27.06574 -34.70085,51.34894 -65.845226,56.00128 -29.40758,18.76851 -85.6486,-18.64389 -44.03662,-41.40379 3.33582,41.68685 95.317848,6.76358 79.790156,-25.08115 -23.726666,-26.39306 -59.862376,-32.70778 -87.548986,-52.68367 -27.48873,-7.38841 -57.88772,-34.07199 -66.68402,-64.75978 -16.10877,-51.85404 27.2591,-90.80814 67.52281,-113.32961 18.04035,-12.72518 43.80504,-21.68297 65.84523,-22.82517 40.443506,-17.04306 48.921254,44.45563 15.93706,34.76856 -32.28076,3.16467 -67.06668,-4.93867 -94.15448,26.27549 -36.10281,18.0164 -51.91261,69.5326 -13.00129,96.07803 29.6289,28.66355 68.25402,38.77236 103.590902,57.06292 16.221046,14.60632 41.512109,23.4167 38.584464,49.89689 z"
       id="path4159"
       inkscape:connector-curvature="0" />
    <path
       style="font-style:normal;font-variant:normal;font-weight:normal;font-stretch:normal;font-size:241.57670593px;line-height:87.00000048%;font-family:'Rock Salt';-inkscape-font-specification:'Rock Salt';text-align:center;letter-spacing:0px;word-spacing:0px;text-anchor:middle;fill:#000000;fill-opacity:1;stroke:#ffffff;stroke-width:5;stroke-linecap:butt;stroke-linejoin:round;stroke-miterlimit:4;stroke-dasharray:none;stroke-opacity:1"
       d="m 132.1477,465.75422 c -6.92042,43.57529 -48.663913,21.01711 -81.362898,37.15725 -58.8858491,-15.65797 -27.67469,46.41829 -31.245029,79.09186 28.492235,-4.72889 20.780881,47.69432 -11.5334002,46.71197 -27.2781678,-33.14507 -8.62209887,-81.50153 -21.8086108,-119.16861 -16.957486,4.41397 -58.572781,14.84445 -44.246316,-18.0478 42.800258,-16.47467 95.192159,-11.90574 135.674722,-24.68303 22.985712,-0.39275 42.394192,-25.98465 54.521532,-1.06164 z"
       id="path4161"
       inkscape:connector-curvature="0" />
    <path
       style="font-style:normal;font-variant:normal;font-weight:normal;font-stretch:normal;font-size:241.57670593px;line-height:87.00000048%;font-family:'Rock Salt';-inkscape-font-specification:'Rock Salt';text-align:center;letter-spacing:0px;word-spacing:0px;text-anchor:middle;fill:#000000;fill-opacity:1;stroke:#ffffff;stroke-width:5;stroke-linecap:butt;stroke-linejoin:round;stroke-miterlimit:4;stroke-dasharray:none;stroke-opacity:1"
       d="m 371.20362,590.23101 c -23.27324,24.22921 -75.14202,15.52511 -106.31698,26.80631 -42.07466,26.97652 -124.32906,-8.16164 -69.4101,-61.57488 32.12232,-19.27867 88.81368,-94.46257 11.7431,-75.37614 -29.65688,3.10158 -64.38336,9.87082 -59.13489,46.97738 0.77011,33.09787 -7.31339,74.49641 14.67887,100.8554 -15.9541,59.44868 -48.79596,-42.28401 -35.85839,-67.94469 -4.31573,-18.62406 13.28421,-74.71435 -17.19525,-45.91575 -36.585295,-10.29228 7.19276,-37.90715 23.08007,-47.05912 32.65455,-5.21131 73.30123,-21.18315 112.38496,-17.96606 74.98114,16.49203 -4.73601,103.61338 -36.90688,131.112 -6.5695,38.95374 58.93339,8.48236 80.1047,8.22768 24.46762,6.45957 62.27946,-16.77104 82.83079,1.85787 z"
       id="path4163"
       inkscape:connector-curvature="0" />
    <path
       style="font-style:normal;font-variant:normal;font-weight:normal;font-stretch:normal;font-size:241.57670593px;line-height:87.00000048%;font-family:'Rock Salt';-inkscape-font-specification:'Rock Salt';text-align:center;letter-spacing:0px;word-spacing:0px;text-anchor:middle;fill:#000000;fill-opacity:1;stroke:#ffffff;stroke-width:5;stroke-linecap:butt;stroke-linejoin:round;stroke-miterlimit:4;stroke-dasharray:none;stroke-opacity:1"
       d="m 444.59796,467.61208 c -29.82011,18.65052 -119.63389,-0.8329 -106.73637,59.98242 20.91228,5.77199 86.17832,-27.90413 68.5713,14.33208 -25.68445,18.04099 -86.87534,1.45435 -75.91074,46.97738 -11.75491,54.5803 44.2203,52.04878 57.87669,10.35096 22.06428,-53.98254 24.7304,35.66835 -7.75883,46.44656 -27.12846,41.68283 -78.95617,6.03164 -72.13617,-34.23775 -6.04703,-39.44352 7.79989,-75.38451 5.24245,-114.65667 2.89874,-20.44466 31.26599,-33.21464 51.54041,-38.84773 21.9195,2.49805 70.50721,-13.40256 79.31126,9.65275 z"
       id="path4165"
       inkscape:connector-curvature="0" />
    <path
       style="font-style:normal;font-variant:normal;font-weight:normal;font-stretch:normal;font-size:241.57670593px;line-height:87.00000048%;font-family:'Rock Salt';-inkscape-font-specification:'Rock Salt';text-align:center;letter-spacing:0px;word-spacing:0px;text-anchor:middle;fill:#000000;fill-opacity:1;stroke:#ffffff;stroke-width:5;stroke-linecap:butt;stroke-linejoin:round;stroke-miterlimit:4;stroke-dasharray:none;stroke-opacity:1"
       d="m 567.48113,467.61208 c -29.8201,18.65052 -119.63387,-0.83291 -106.73637,59.98242 20.91229,5.77199 86.17831,-27.90413 68.57131,14.33208 -25.68445,18.04099 -86.87535,1.45435 -75.91074,46.97738 -11.75492,54.58031 44.2203,52.04877 57.87669,10.35096 22.06429,-53.98254 24.73041,35.66834 -7.75883,46.44656 -27.12845,41.68281 -78.95618,6.03167 -72.13617,-34.23775 -6.04704,-39.44351 7.79989,-75.38452 5.24245,-114.65667 2.89872,-20.44466 31.266,-33.21465 51.54041,-38.84773 21.91949,2.49805 70.5072,-13.40256 79.31125,9.65275 z"
       id="path4167"
       inkscape:connector-curvature="0" />
    <path
       style="font-style:normal;font-variant:normal;font-weight:normal;font-stretch:normal;font-size:241.57670593px;line-height:87.00000048%;font-family:'Rock Salt';-inkscape-font-specification:'Rock Salt';text-align:center;letter-spacing:0px;word-spacing:0px;text-anchor:middle;fill:#000000;fill-opacity:1;stroke:#ffffff;stroke-width:5;stroke-linecap:butt;stroke-linejoin:round;stroke-miterlimit:4;stroke-dasharray:none;stroke-opacity:1"
       d="m 738.17545,465.75422 c -6.92043,43.57528 -48.66391,21.01711 -81.3629,37.15725 -58.88585,-15.65796 -27.6747,46.41828 -31.24503,79.09186 28.49224,-4.72888 20.78087,47.69432 -11.5334,46.71197 -27.27817,-33.14506 -8.6221,-81.50153 -21.80861,-119.16861 -16.95748,4.41397 -58.5728,14.84444 -44.24631,-18.0478 42.80025,-16.47467 95.19214,-11.90574 135.67471,-24.68303 22.98571,-0.39275 42.39419,-25.98465 54.52154,-1.06164 z"
       id="path4169"
       inkscape:connector-curvature="0" />
    <path
       style="font-style:normal;font-variant:normal;font-weight:normal;font-stretch:normal;font-size:241.57670593px;line-height:87.00000048%;font-family:'Rock Salt';-inkscape-font-specification:'Rock Salt';text-align:center;letter-spacing:0px;word-spacing:0px;text-anchor:middle;fill:#000000;fill-opacity:1;stroke:#ffffff;stroke-width:5;stroke-linecap:butt;stroke-linejoin:round;stroke-miterlimit:4;stroke-dasharray:none;stroke-opacity:1"
       d="m 965.69796,699.57949 c -18.14546,36.26576 -59.51946,-9.31571 -63.32889,-33.70694 -12.46721,-30.31651 -48.47088,4.419 -71.92646,-0.79622 -39.77139,-2.7784 -28.62284,122.17708 -63.32885,58.12456 6.22629,-22.69081 35.68962,-56.75266 -1.25819,-57.32834 -12.66234,-42.1636 56.81803,-12.46312 44.03662,-63.23367 19.51624,-76.99171 28.82683,-155.63585 23.27649,-235.61678 16.82865,-25.93542 33.73386,22.93369 38.58447,37.95348 4.06419,31.65678 16.04768,64.29675 19.5019,95.54721 2.70537,41.69208 7.90734,81.9385 17.19533,121.8227 20.06422,17.57499 11.19554,74.11488 53.47298,61.57487 2.57071,4.88127 1.30065,10.73629 3.7746,15.65913 z m -79.05623,-73.51827 c -14.52862,-62.47755 -9.47955,-129.4025 -32.29353,-188.70575 -3.09631,67.64764 -14.0323,133.69631 -29.35774,199.05669 20.58702,-0.35784 43.8784,-2.23964 61.65127,-10.35094 z"
       id="path4171"
       inkscape:connector-curvature="0" />
    <path
       style="font-style:normal;font-variant:normal;font-weight:normal;font-stretch:normal;font-size:241.57670593px;line-height:87.00000048%;font-family:'Rock Salt';-inkscape-font-specification:'Rock Salt';text-align:center;letter-spacing:0px;word-spacing:0px;text-anchor:middle;fill:#000000;fill-opacity:1;stroke:#ffffff;stroke-width:5;stroke-linecap:butt;stroke-linejoin:round;stroke-miterlimit:4;stroke-dasharray:none;stroke-opacity:1"
       d="m 1203.286,590.23101 c -23.2732,24.22918 -75.142,15.52515 -106.317,26.80631 -42.0747,26.97656 -124.32904,-8.16171 -69.41,-61.57488 32.1223,-19.27871 88.8135,-94.46256 11.743,-75.37614 -29.6568,3.10159 -64.38334,9.87083 -59.13488,46.97738 0.77012,33.09785 -7.31337,74.49649 14.67893,100.8554 -15.95425,59.44868 -48.79591,-42.28401 -35.85846,-67.94469 -4.31569,-18.62408 13.28425,-74.71435 -17.19524,-45.91575 -36.58526,-10.29227 7.19275,-37.90712 23.08007,-47.0591 32.65453,-5.21135 73.30128,-21.18316 112.38498,-17.96608 74.9811,16.4921 -4.736,103.61328 -36.9068,131.112 -6.5698,38.95371 58.9334,8.48237 80.1046,8.22768 24.4676,6.45958 62.2795,-16.77106 82.8308,1.85787 z"
       id="path4173"
       inkscape:connector-curvature="0" />
    <path
       style="font-style:normal;font-variant:normal;font-weight:normal;font-stretch:normal;font-size:241.57670593px;line-height:87.00000048%;font-family:'Rock Salt';-inkscape-font-specification:'Rock Salt';text-align:center;letter-spacing:0px;word-spacing:0px;text-anchor:middle;fill:#000000;fill-opacity:1;stroke:#ffffff;stroke-width:5;stroke-linecap:butt;stroke-linejoin:round;stroke-miterlimit:4;stroke-dasharray:none;stroke-opacity:1"
       d="m 1320.2976,465.75422 c -6.9204,43.57528 -48.6639,21.01711 -81.3629,37.15725 -58.8859,-15.65795 -27.6746,46.41829 -31.2451,79.09186 28.4923,-4.72896 20.7811,47.69432 -11.5334,46.71197 -27.278,-33.14526 -8.6221,-81.50153 -21.8085,-119.16861 -16.9575,4.41396 -58.5728,14.84444 -44.2463,-18.0478 42.8002,-16.4747 95.1921,-11.90571 135.6746,-24.68303 22.9858,-0.39274 42.3943,-25.98466 54.5216,-1.06164 z"
       id="path4175"
       inkscape:connector-curvature="0" />
    <path
       style="font-style:normal;font-variant:normal;font-weight:normal;font-stretch:normal;font-size:241.57670593px;line-height:87.00000048%;font-family:'Rock Salt';-inkscape-font-specification:'Rock Salt';text-align:center;letter-spacing:0px;word-spacing:0px;text-anchor:middle;fill:#000000;fill-opacity:1;stroke:#ffffff;stroke-width:5;stroke-linecap:butt;stroke-linejoin:round;stroke-miterlimit:4;stroke-dasharray:none;stroke-opacity:1"
       d="m 107.19361,936.027 c -18.145427,36.26576 -59.519415,-9.31564 -63.328852,-33.70694 -12.467302,-30.31649 -48.470873,4.419 -71.926476,-0.79622 -39.771379,-2.7784 -28.622857,122.17706 -63.328848,58.12455 6.226279,-22.6908 35.689629,-56.75266 -1.25819,-57.32833 -12.662344,-42.16359 56.818031,-12.46314 44.036617,-63.23368 19.51624,-76.99171 28.826825,-155.63585 23.276498,-235.61678 16.8286606,-25.93539 33.7338449,22.93368 38.584464,37.95348 4.064203,31.65677 16.047619,64.29676 19.501931,95.54722 2.76433,41.51307 7.885014,82.02368 17.195251,121.82271 20.06434,17.57491 11.195542,74.11486 53.473035,61.57486 2.57072,4.88128 1.30066,10.73628 3.77457,15.65913 z M 28.137394,862.50872 C 13.608788,800.03116 18.657842,733.10622 -4.1561255,673.80297 -7.2524406,741.45062 -18.188427,807.4993 -33.513871,872.85968 c 20.587032,-0.35787 43.878412,-2.23963 61.651265,-10.35096 z"
       id="path4177"
       inkscape:connector-curvature="0" />
    <path
       style="font-style:normal;font-variant:normal;font-weight:normal;font-stretch:normal;font-size:241.57670593px;line-height:87.00000048%;font-family:'Rock Salt';-inkscape-font-specification:'Rock Salt';text-align:center;letter-spacing:0px;word-spacing:0px;text-anchor:middle;fill:#000000;fill-opacity:1;stroke:#ffffff;stroke-width:5;stroke-linecap:butt;stroke-linejoin:round;stroke-miterlimit:4;stroke-dasharray:none;stroke-opacity:1"
       d="m 233.8513,685.74638 c 6.53786,42.30178 -90.07736,72.41744 -57.66699,92.0969 56.74651,1.45127 44.58987,60.60779 0.20969,71.39499 -38.31508,31.28903 -37.25759,-17.47677 -3.56487,-23.62139 39.45229,-27.16978 -34.68486,-23.33446 -54.42183,-20.9673 -18.20755,17.53135 33.27614,77.32326 -17.71434,52.02015 -20.179817,-45.61693 -3.046528,-97.23407 -5.87155,-145.7095 -9.753075,-21.21637 -43.466761,28.75718 -54.521525,9.28931 -13.906452,-33.49972 49.449672,-32.36066 71.297375,-43.79248 23.13304,-5.67149 48.89924,-16.91607 70.87799,-16.98616 21.4962,-11.33777 52.11662,-2.03824 51.37605,26.27548 z m -23.27649,2.9195 c -22.74208,-19.36286 -57.87829,2.7968 -84.29867,7.69686 -17.70215,23.23659 -20.16484,116.42323 27.15592,56.3994 19.47485,-19.30137 52.37615,-33.81669 57.14275,-64.09626 z"
       id="path4179"
       inkscape:connector-curvature="0" />
    <path
       style="font-style:normal;font-variant:normal;font-weight:normal;font-stretch:normal;font-size:241.57670593px;line-height:87.00000048%;font-family:'Rock Salt';-inkscape-font-specification:'Rock Salt';text-align:center;letter-spacing:0px;word-spacing:0px;text-anchor:middle;fill:#000000;fill-opacity:1;stroke:#ffffff;stroke-width:5;stroke-linecap:butt;stroke-linejoin:round;stroke-miterlimit:4;stroke-dasharray:none;stroke-opacity:1"
       d="m 369.52602,704.0596 c -29.82011,18.65049 -119.63388,-0.8329 -106.73637,59.98241 20.91231,5.77198 86.17833,-27.90413 68.5713,14.33209 -25.68444,18.04098 -86.87535,1.45433 -75.91074,46.97738 -11.75492,54.5803 44.22032,52.04877 57.87669,10.35094 22.06431,-53.98251 24.73039,35.66838 -7.75882,46.44656 -27.12845,41.68285 -78.95619,6.03165 -72.13618,-34.23775 -6.04704,-39.44351 7.7999,-75.3845 5.24245,-114.65665 2.89874,-20.44467 31.26599,-33.21465 51.54042,-38.84774 21.9195,2.49805 70.50722,-13.40257 79.31125,9.65276 z"
       id="path4181"
       inkscape:connector-curvature="0" />
    <path
       style="font-style:normal;font-variant:normal;font-weight:normal;font-stretch:normal;font-size:241.57670593px;line-height:87.00000048%;font-family:'Rock Salt';-inkscape-font-specification:'Rock Salt';text-align:center;letter-spacing:0px;word-spacing:0px;text-anchor:middle;fill:#000000;fill-opacity:1;stroke:#ffffff;stroke-width:5;stroke-linecap:butt;stroke-linejoin:round;stroke-miterlimit:4;stroke-dasharray:none;stroke-opacity:1"
       d="m 627.87419,826.67852 c -23.27323,24.22921 -75.14202,15.52512 -106.31697,26.8063 -42.07468,26.97654 -124.32906,-8.16164 -69.4101,-61.57487 32.12232,-19.27866 88.81368,-94.46257 11.7431,-75.37614 -29.65688,3.10158 -64.38336,9.87082 -59.13489,46.97738 0.77012,33.09786 -7.31341,74.49642 14.67888,100.8554 -15.95413,59.44868 -48.79596,-42.28402 -35.85839,-67.94469 -4.31575,-18.62405 13.28419,-74.71439 -17.19525,-45.91574 -36.58532,-10.2923 7.19276,-37.90714 23.08006,-47.05912 32.65454,-5.21134 73.30122,-21.18312 112.38496,-17.96608 74.98114,16.49207 -4.73602,103.61337 -36.90688,131.11202 -6.56949,38.95373 58.93337,8.48235 80.1047,8.22768 24.46761,6.45954 62.27945,-16.77102 82.83078,1.85786 z"
       id="path4183"
       inkscape:connector-curvature="0" />
    <path
       style="font-style:normal;font-variant:normal;font-weight:normal;font-stretch:normal;font-size:241.57670593px;line-height:87.00000048%;font-family:'Rock Salt';-inkscape-font-specification:'Rock Salt';text-align:center;letter-spacing:0px;word-spacing:0px;text-anchor:middle;fill:#000000;fill-opacity:1;stroke:#ffffff;stroke-width:5;stroke-linecap:butt;stroke-linejoin:round;stroke-miterlimit:4;stroke-dasharray:none;stroke-opacity:1"
       d="m 709.4468,742.01306 c -3.98633,44.42356 -35.1241,79.87998 -66.05493,110.67554 -28.37568,33.56777 -52.91879,4.63748 -64.79674,-22.82517 -1.36322,-31.92933 16.51003,-95.71681 -7.33943,-107.49062 -47.47755,5.59461 1.71641,-41.61556 23.06679,-38.21889 33.59581,-9.09322 80.1273,-13.24733 99.60664,22.29436 8.61868,8.93717 12.99554,23.50726 15.51767,35.56478 z m -19.50194,3.98115 c -4.63911,-32.8919 -38.48053,-46.87788 -67.9422,-39.54593 -34.78939,11.31027 -9.3114,75.57916 -21.17952,109.8793 3.60278,40.39806 40.99472,13.11283 52.42454,-7.43146 16.00603,-17.41097 33.36543,-38.09338 36.69718,-62.90191 z"
       id="path4185"
       inkscape:connector-curvature="0" />
    <path
       style="font-style:normal;font-variant:normal;font-weight:normal;font-stretch:normal;font-size:241.57670593px;line-height:87.00000048%;font-family:'Rock Salt';-inkscape-font-specification:'Rock Salt';text-align:center;letter-spacing:0px;word-spacing:0px;text-anchor:middle;fill:#000000;fill-opacity:1;stroke:#ffffff;stroke-width:5;stroke-linecap:butt;stroke-linejoin:round;stroke-miterlimit:4;stroke-dasharray:none;stroke-opacity:1"
       d="m 851.41247,704.0596 c -29.82012,18.65049 -119.63386,-0.8329 -106.73637,59.98241 20.91231,5.77198 86.17834,-27.90413 68.5713,14.33209 -25.68445,18.04098 -86.87535,1.45433 -75.91074,46.97738 -11.75491,54.58031 44.22032,52.04875 57.87671,10.35094 22.06428,-53.98251 24.7304,35.66839 -7.75884,46.44656 -27.12844,41.68284 -78.9562,6.03167 -72.13617,-34.23775 -6.04705,-39.4435 7.79989,-75.3845 5.24245,-114.65665 2.89872,-20.44467 31.26599,-33.21465 51.54041,-38.84774 21.91949,2.49805 70.50723,-13.40257 79.31125,9.65276 z"
       id="path4187"
       inkscape:connector-curvature="0" />
    <path
       style="font-style:normal;font-variant:normal;font-weight:normal;font-stretch:normal;font-size:241.57670593px;line-height:87.00000048%;font-family:'Rock Salt';-inkscape-font-specification:'Rock Salt';text-align:center;letter-spacing:0px;word-spacing:0px;text-anchor:middle;fill:#000000;fill-opacity:1;stroke:#ffffff;stroke-width:5;stroke-linecap:butt;stroke-linejoin:round;stroke-miterlimit:4;stroke-dasharray:none;stroke-opacity:1"
       d="m 974.29558,704.0596 c -29.82012,18.65049 -119.63385,-0.8329 -106.73636,59.98241 20.91231,5.77197 86.17835,-27.90412 68.57128,14.33209 -25.68445,18.04101 -86.87533,1.45433 -75.91071,46.97738 -11.75492,54.58034 44.22034,52.04872 57.87672,10.35094 22.06423,-53.98253 24.73042,35.66845 -7.75888,46.44656 -27.12841,41.68283 -78.95616,6.03169 -72.13615,-34.23775 -6.04704,-39.44351 7.79989,-75.38451 5.24246,-114.65665 2.89871,-20.44467 31.26599,-33.21464 51.5404,-38.84775 21.91949,2.49807 70.50728,-13.40257 79.31124,9.65277 z"
       id="path4189"
       inkscape:connector-curvature="0" />
    <path
       style="font-style:normal;font-variant:normal;font-weight:normal;font-stretch:normal;font-size:241.57670593px;line-height:87.00000048%;font-family:'Rock Salt';-inkscape-font-specification:'Rock Salt';text-align:center;letter-spacing:0px;word-spacing:0px;text-anchor:middle;fill:#000000;fill-opacity:1;stroke:#ffffff;stroke-width:5;stroke-linecap:butt;stroke-linejoin:round;stroke-miterlimit:4;stroke-dasharray:none;stroke-opacity:1"
       d="m 1102.4212,698.48601 c -20.1663,37.95443 1.9618,85.73626 -1.6776,128.72333 10.6714,54.24369 -50.4795,87.13929 -74.5477,28.00064 -17.4441,-18.62319 -37.70307,-93.56279 -39.73779,-33.30882 -8.87501,22.75919 -10.20995,53.9584 5.24239,73.25287 -48.27077,46.90115 -37.07475,-68.56692 -25.37349,-94.48559 8.29934,-32.24941 8.61902,-65.80359 11.11402,-99.26293 37.25557,-23.84191 24.79537,53.54275 39.21357,77.23399 9.0702,22.97671 37.7814,99.21065 61.6513,68.47551 7.3156,-52.21613 -2.7322,-103.93685 -8.1782,-155.52964 -2.9289,-18.12029 28.9105,-0.94738 32.2935,6.90064 z"
       id="path4191"
       inkscape:connector-curvature="0" />
  </g>
</svg>
