<?xml version="1.0" encoding="UTF-8" standalone="no"?>
<svg
   xmlns:dc="http://purl.org/dc/elements/1.1/"
   xmlns:cc="http://creativecommons.org/ns#"
   xmlns:rdf="http://www.w3.org/1999/02/22-rdf-syntax-ns#"
   xmlns:svg="http://www.w3.org/2000/svg"
   xmlns="http://www.w3.org/2000/svg"
   xmlns:sodipodi="http://sodipodi.sourceforge.net/DTD/sodipodi-0.dtd"
   xmlns:inkscape="http://www.inkscape.org/namespaces/inkscape"
   viewBox="0 0 512 512"
   version="1.1"
   id="svg4"
   sodipodi:docname="saa_icon.svg"
   inkscape:version="0.92.5 (2060ec1f9f, 2020-04-08)">
  <metadata
     id="metadata10">
    <rdf:RDF>
      <cc:Work
         rdf:about="">
        <dc:format>image/svg+xml</dc:format>
        <dc:type
           rdf:resource="http://purl.org/dc/dcmitype/StillImage" />
      </cc:Work>
    </rdf:RDF>
  </metadata>
  <defs
     id="defs8" />
  <sodipodi:namedview
     pagecolor="#ffffff"
     bordercolor="#666666"
     borderopacity="1"
     objecttolerance="10"
     gridtolerance="10"
     guidetolerance="10"
     inkscape:pageopacity="0"
     inkscape:pageshadow="2"
     inkscape:window-width="3772"
     inkscape:window-height="2096"
     id="namedview6"
     showgrid="false"
     inkscape:zoom="2.08"
     inkscape:cx="14.101695"
     inkscape:cy="256"
     inkscape:window-x="68"
     inkscape:window-y="27"
     inkscape:window-maximized="1"
     inkscape:current-layer="svg4" />
  <!-- Font Awesome Pro 5.15.4 by @fontawesome - https://fontawesome.com License - https://fontawesome.com/license (Commercial License) -->
  <path
     d="M 224,128 V 32 C 224,14.33 209.67,0 192,0 H 128 C 110.33,0 96,14.33 96,32 v 96 C 0.19153846,128 0,116.17231 0,224 v 256 c 0,17.67 14.33,32 32,32 h 256 c 17.67,0 32,-14.33 32,-32 V 224 c 0,-96.28923 1.73154,-96 -96,-96 z M 128,32 h 64 v 96 H 128 Z M 288,480 H 32 V 224 c 0,-74.23231 -8.79,-64 64,-64 h 128 c 71.82846,0 64,-8.79 64,64 z M 488,80 c 13.25,0 24,-10.75 24,-24 0,-13.26 -10.75,-24 -24,-24 -13.25,0 -24,10.74 -24,24 0,13.25 10.75,24 24,24 z m 0,48 c -13.25,0 -24,10.74 -24,24 0,13.25 10.75,24 24,24 13.25,0 24,-10.75 24,-24 0,-13.26 -10.75,-24 -24,-24 z M 392,32 c -13.25,0 -24,10.74 -24,24 0,13.25 10.75,24 24,24 13.25,0 24,-10.75 24,-24 0,-13.26 -10.75,-24 -24,-24 z m 0,96 c -13.25,0 -24,10.74 -24,24 0,13.25 10.75,24 24,24 13.25,0 24,-10.75 24,-24 0,-13.26 -10.75,-24 -24,-24 z M 296,32 c -13.25,0 -24,10.74 -24,24 0,13.25 10.75,24 24,24 13.25,0 24,-10.75 24,-24 0,-13.26 -10.75,-24 -24,-24 z m 192,192 c -13.25,0 -24,10.74 -24,24 0,13.25 10.75,24 24,24 13.25,0 24,-10.75 24,-24 0,-13.26 -10.75,-24 -24,-24 z"
     id="path2"
     style="fill:#314152;fill-opacity:1"
     inkscape:connector-curvature="0"
     sodipodi:nodetypes="csssscssssssccccccccsssscssssssssssssssssssssssssssssss" />
  <g
     aria-label="A"
     style="font-style:normal;font-weight:normal;font-size:40px;line-height:1.25;font-family:sans-serif;letter-spacing:0px;word-spacing:0px;fill:#000000;fill-opacity:1;stroke:none"
     id="text819">
    <path
       d="m 138.92974,332.2153 h 42.31771 L 160.1537,273.75176 Z m 51.17187,-71.09374 41.53646,115.10416 c 2.25695,6.25 1.43229,12.06597 -2.47396,17.44792 -3.90625,5.46875 -9.11458,8.20312 -15.625,8.20312 h -2.86458 c -12.65799,-1.45597 -10.65333,-5.26849 -14.1226,-13.41146 l -10.61698,-32.29166 h -49.34896 l -10.09615,32.38181 c -2.34739,5.61888 -10.08543,13.2954 -15.81531,13.32131 h -2.86458 c -6.51042,0 -11.675348,-2.73437 -15.494793,-8.20312 -3.819444,-5.38195 -4.687499,-11.19792 -2.604166,-17.44792 L 129.16411,261.64239 c 2.25695,-6.59722 6.1632,-11.84896 11.71875,-15.75521 5.55556,-3.90625 11.19792,-5.85937 16.92709,-5.85937 h 3.64583 c 5.64236,0 11.24132,1.95312 16.79687,5.85937 5.64237,3.90625 9.59202,8.98438 11.84896,15.23438 z"
       style="font-style:normal;font-variant:normal;font-weight:normal;font-stretch:normal;font-size:266.66665649px;font-family:Dyuthi;-inkscape-font-specification:'Dyuthi, Normal';font-variant-ligatures:normal;font-variant-caps:normal;font-variant-numeric:normal;font-feature-settings:normal;text-align:center;writing-mode:lr-tb;text-anchor:middle;fill:#314152;fill-opacity:1"
       id="path842"
       inkscape:connector-curvature="0"
       sodipodi:nodetypes="cccccccsccccccsccccsscc" />
  </g>
  <ellipse
     style="fill:#314152;fill-opacity:1;stroke:none;stroke-width:0.99024367;stroke-opacity:1"
     id="path840"
     cx="181.00963"
     cy="67.528839"
     rx="24.278847"
     ry="23.317307" />
</svg>
