<?xml version="1.0" encoding="UTF-8" standalone="no"?>
<!-- Created with Inkscape (http://www.inkscape.org/) -->

<svg
   xmlns:dc="http://purl.org/dc/elements/1.1/"
   xmlns:cc="http://creativecommons.org/ns#"
   xmlns:rdf="http://www.w3.org/1999/02/22-rdf-syntax-ns#"
   xmlns:svg="http://www.w3.org/2000/svg"
   xmlns="http://www.w3.org/2000/svg"
   xmlns:sodipodi="http://sodipodi.sourceforge.net/DTD/sodipodi-0.dtd"
   xmlns:inkscape="http://www.inkscape.org/namespaces/inkscape"
   version="1.1"
   id="svg908"
   width="3933.5745"
   height="4029.3035"
   viewBox="0 0 3933.5745 4029.3035"
   sodipodi:docname="splash_simple.svg"
   inkscape:version="0.92.5 (2060ec1f9f, 2020-04-08)">
  <metadata
     id="metadata914">
    <rdf:RDF>
      <cc:Work
         rdf:about="">
        <dc:format>image/svg+xml</dc:format>
        <dc:type
           rdf:resource="http://purl.org/dc/dcmitype/StillImage" />
        <dc:title></dc:title>
      </cc:Work>
    </rdf:RDF>
  </metadata>
  <defs
     id="defs912" />
  <sodipodi:namedview
     pagecolor="#ffffff"
     bordercolor="#666666"
     borderopacity="1"
     objecttolerance="10"
     gridtolerance="10"
     guidetolerance="10"
     inkscape:pageopacity="0"
     inkscape:pageshadow="2"
     inkscape:window-width="3840"
     inkscape:window-height="2123"
     id="namedview910"
     showgrid="false"
     fit-margin-top="0"
     fit-margin-left="0"
     fit-margin-right="0"
     fit-margin-bottom="0"
     inkscape:zoom="0.7784"
     inkscape:cx="1630.3322"
     inkscape:cy="2772.2132"
     inkscape:window-x="3840"
     inkscape:window-y="1050"
     inkscape:window-maximized="1"
     inkscape:current-layer="svg908" />
  <path
     style="fill:#cc0000;fill-opacity:1"
     d="m 2254.2687,4028.5541 c -268.4278,-106.1455 70.1283,-341.7618 40.3567,-516.0299 -117.1709,-240.675 -280.546,1.5707 -196.1912,164.4572 -89.2929,191.4901 -221.3724,-59.271 -83.5464,-149.3878 78.1774,-209.8017 -245.4353,-210.3027 -349.2498,-102.5201 -147.3781,-15.4369 -111.3675,-366.0502 -325.619,-225.7429 -162.4447,109.3356 -23.6487,-189.7509 -203.1753,-188.7229 C 1015.605,2885.7578 857.34214,2671.6249 703.05832,2890.649 556.87085,3026.1205 486.13621,2733.1362 676.51897,2773.6048 c 290.48022,19.1463 165.16231,-304.1997 104.39292,-463.6444 -33.7571,-192.3813 -186.13366,-350.2239 -385.47007,-243.3235 -178.757,105.141 -298.869045,-213.6376 -71.94757,-187.1518 134.67199,79.476 475.30508,189.9845 478.00282,-58.7772 -100.77505,-144.5592 -10.88963,-250.7679 89.15308,-354.2641 54.12948,-187.248 -244.64305,-125.0022 -138.23658,-44.3621 -48.2779,-175.018 -237.58165,104.0706 -314.43072,-83.2585 -14.41875,-214.5147 225.4336,-54.7893 271.33973,-205.9435 89.32147,46.1317 369.20242,190.2028 331.30592,-17.2314 -46.84361,-74.0521 -101.53979,-159.29319 -199.61478,-62.91 -117.59641,-20.855 -251.08015,49.1532 -373.49482,45.6554 -58.91636,-13.7773 -311.4331,104.2947 -221.6588,-7.7448 172.83118,-2.4978 340.55534,-53.2206 515.65877,-66.5123 96.15925,-30.0813 349.17813,-2.3804 261.75683,-171.31716 -62.39689,93.30705 -197.62699,-111.6782 -315.3622,-96.99631 -71.83105,-28.42504 -582.92837,-176.4775 -426.37317,-142.80612 166.71084,43.58772 316.67562,72.04734 476.334,132.57046 74.426,46.1975 410.97497,39.99065 194.45579,-45.2343 -142.1264,-50.81132 -289.95428,-80.96767 -436.93295,-114.4445 62.83446,43.54645 30.5236,-84.55286 104.8511,-66.9916 205.20905,24.77633 414.63933,71.21762 616.03963,110.41397 -20.7928,-175.30747 376.6597,-214.25226 226.731,-36.68207 57.5102,90.28508 422.4472,14.47489 210.2858,-125.25974 -160.2806,-167.02361 178.2001,-219.23334 147.6213,-16.26886 48.6498,249.31558 345.5519,0.84374 228.9149,-162.5 -128.7231,-86.66538 -82.9832,-375.961272 94.8577,-255.70466 74.3757,172.54473 -129.1854,418.02115 47.8207,576.85703 161.6681,103.08848 284.8171,-154.74651 456.7633,-37.91927 66.3224,-50.20109 164.0703,-277.59753 230.3224,-103.29442 -14.5253,105.22361 -301.7134,142.9387 -118.682,261.25551 139.9909,61.252 307.8135,-102.54117 308.8114,126.36615 182.6827,42.71246 165.4199,-444.97372 341.8484,-246.06037 16.08,177.0603 -436.4097,255.46443 -208.2016,421.67846 230.7949,16.869 169.1482,310.648 301.4196,439.7048 81.8574,189.4564 256.2811,106.2537 371.6727,22.6345 123.0596,167.2654 -169.1234,178.3364 -168.4863,170.8553 -26.7528,117.5426 200.101,288.6716 14.0236,399.8317 -237.6817,98.2087 -61.1373,323.7267 -69.6513,478.7666 -17.1041,191.8007 -284.7681,226.9831 -290.6742,409.9856 80.6099,176.6023 466.9806,-30.6252 453.2488,248.6992 -119.1507,295.6291 -259.5355,-212.6774 -433.4148,-32.2264 -110.7566,83.092 -386.2509,-161.9573 -334.4112,87.8554 76.7111,137.7056 -54.0843,144.3635 -97.9322,26.366 -110.7984,-211.0631 -216.6199,172.1449 -129.7151,269.7358 35.1952,130.8942 -150.9904,211.849 -133.1265,33.2843 -56.5034,-209.7999 -403.5745,-71.4162 -339.3327,131.3287 32.759,108.2408 85.8121,306.9442 -92.7329,309.9338 z m 286.219,-875.3209 c 67.4996,-80.2938 -140.3689,-202.225 31.0242,-270.5293 135.4227,-72.2357 280.9424,-110.9975 343.6954,-249.2587 93.0258,-2.4547 201.6406,301.9432 267.2802,121.1032 -88.0582,-51.5762 -318.3957,-161.0339 -100.4685,-203.1096 -100.8787,-121.5562 74.5479,-306.1847 120.0876,-99.2538 153.2953,34.3692 -90.5691,-188.2869 -33.0876,-148.5361 61.3871,-112.8069 -151.6749,-309.4879 73.884,-333.9636 96.0227,-1.6392 393.7752,89.3306 260.4253,-95.4323 -99.0245,22.4338 -373.3666,128.4654 -304.5792,-84.4924 108.029,18.2303 219.1931,-169.7042 57.5692,-131.5866 -140.9402,183.5606 -119.152,-166.7391 -264.3412,-189.9341 -96.3325,-118.804 240.443,-105.8388 49.3616,-225.9057 -110.832,70.9539 -457.8027,24.635 -250.6444,-144.7282 40.4039,-160.60848 -139.6134,145.9733 -137.1863,43.2559 -117.0011,64.7638 -179.7399,-158.22854 -310.8512,-38.785 -254.3629,-24.1787 128.3302,-438.2634 -135.1927,-385.25866 -29.8296,145.56317 58.8174,356.45806 -182.0313,371.77606 -23.4005,154.3943 -331.9069,129.0285 -309.5187,55.7829 -14.3448,134.7383 -280.4036,196.4031 -172.7729,346.8922 84.0257,91.8248 222.7578,138.4861 319.8778,92.3779 -44.8686,-163.8643 88.8415,78.8006 90.6898,-66.0715 -29.2477,-82.4507 24.5268,-174.2966 60.158,-50.7629 166.579,84.2887 45.2513,-316.6806 178.1533,-139.6808 -53.7011,42.0622 -82.8261,228.6325 22.582,152.2327 -48.4585,-130.373 109.3785,-106.7467 18.4198,3.1311 53.2917,99.3191 187.4137,-56.0383 203.0007,103.9737 130.8211,-66.5612 165.6379,253.2397 327.9312,97.7008 -1.4488,64.8473 -177.6683,90.4679 -69.6627,224.3225 -32.5218,180.0781 301.2233,17.5287 177.7418,156.5429 -107.4716,-71.7572 -227.9965,-25.9826 -176.3305,101.9862 -148.1497,57.7256 155.4495,193.8157 -22.6805,150.1131 -148.0315,-117.6997 -10.032,300.7018 -141.2011,144.0086 -37.4798,-85.5108 -248.2462,194.7888 -191.9557,90.9787 114.3687,188.8893 -189.9313,-62.3267 -67.8642,-3.0019 -114.6188,9.3701 47.349,290.4212 -89.479,166.5 73.4481,-140.65 -31.5952,-239.218 -154.1621,-168.5874 -31.7786,10.7526 -135.7384,106.9924 -83.8606,5.631 134.5067,-97.3137 -112.239,-22.3377 -96.2809,-115.2854 -37.7105,27.9199 -137.144,187.8492 -102.1078,50.9916 188.1857,-86.1567 -47.3279,-135.6725 -44.9815,-263.9484 -14.9429,-112.814 -248.3562,24.1719 -119.3968,-72.7629 98.9034,-16.6369 -60.9433,-156.8614 74.7644,-198.7839 -39.2085,-109.6967 7.4216,-194.9293 90.9311,-272.7153 -63.5052,-60.8612 -194.762,-38.6734 -220.326,-170.0451 -107.4994,-112.7955 -36.6825,115.5894 -169.0798,92.548 -159.259,41.1858 116.6158,288.2453 -103,305.1143 -66.0706,-94.2633 -263.62583,-18.3592 -110.7775,46.6172 121.5339,-78.1976 248.384,88.0587 80.2775,127.9249 -95.5793,-61.4807 -409.34813,-169.7617 -283.35792,46.1282 129.81602,-16.4397 399.81612,-24.3953 295.46672,189.8279 -92.6513,5.0336 -179.8252,95.6747 -31.6088,108.8389 147.5034,-70.4298 326.0932,50.7231 127.2584,138.7571 29.9491,40.2378 247.2349,-42.9219 129.1375,126.8397 -10.4688,116.397 80.1168,226.6483 -77.3516,293.7905 58.6568,236.6019 233.31,-51.8297 187.3909,-182.8722 160.6744,-71.5709 262.7502,306.2618 453.6465,132.807 148.4189,-19.206 236.4883,256.1584 389.9183,64.0367 101.0443,-17.756 1.5264,189.9234 125.4658,152.7603 z M 2110.0125,2638.741 c -80.1271,-93.6186 119.4926,-31.281 0,0 z m -523.6937,-891.9828 c -101.8829,-142.4642 172.8912,-46.7178 0,0 z m 227.9752,-190.1088 c -54.0777,-60.5718 81.7397,-30.5479 0,0 z m 506.0367,-111.9745 c -56.2814,-100.0741 115.8361,-16.8453 0,0 z m -625.1258,1665.4937 c 184.6319,-84.6857 -149.8907,-233.4836 -80.4061,-36.7985 15.2293,27.6984 49.8049,41.6811 80.4061,36.7985 z m -306.288,-430.083 c 57.8522,-129.2883 -134.0769,-8.9504 0,0 z m 1924.3836,-520.5504 c 123.1745,-163.3813 -208.6987,-51.4162 0,0 z M 1179.357,1775.5976 c 132.5591,-143.1108 -213.82928,-73.3391 0,0 z M 1060.4112,706.30184 c 60.9263,-13.3622 219.3454,-31.71762 59.9246,-67.22945 -151.49548,-41.27683 -307.28509,-73.99212 -464.10533,-88.45222 54.09573,126.96959 292.49707,72.5383 404.18073,155.68147 z M 1746.019,3702.6683 c -179.8041,-100.9933 161.2007,-221.7985 67.5099,-28.147 -16.1901,19.3389 -42.2909,30.3975 -67.5099,28.147 z m 1396.6571,-341.0334 c -129.3033,-177.4991 218.8444,-68.815 0,0 z m 582.8429,-401.4823 c -280.2155,-193.9718 299.9465,-314.2603 91.4365,-25.3592 -26.7827,17.0373 -58.4176,32.5875 -91.4365,25.3592 z M 77.518996,1248.1382 c -165.412611,-85.5923 52.144934,-299.25223 119.423204,-130.929 -32.63367,36.7757 -35.37768,142.9804 -119.423204,130.929 z m 802.873874,-62.5723 c -33.93605,-43.8481 55.78538,-5.5334 0,0 z M 1.6154958,1095.4547 c -6.0190363,-86.1359 24.0418902,20.0025 0,0 z M 823.30647,949.99084 c -47.20347,-72.0897 86.83995,-14.30207 0,0 z m -280.7875,-31.4631 c -126.38723,-81.26556 156.82471,-20.33137 0,0 z M 341.3454,604.60484 c -104.90877,-131.39136 154.46686,-29.05474 0,0 z M 196.519,593.09277 c -155.001017,-6.89745 -67.98798,-70.79137 0,0 z M 168.7885,489.60793 c -79.424672,-101.48468 150.10723,23.64624 0,0 z m 2164.7305,-37.0725 c -175.6395,-81.6411 123.0858,-227.47209 76.0748,-46.74067 -10.8969,29.49229 -45.2696,49.32504 -76.0748,46.74067 z"
     id="path1461"
     inkscape:connector-curvature="0" />
</svg>
