<?xml version="1.0" encoding="UTF-8" standalone="no"?>
<!-- Created with Inkscape (http://www.inkscape.org/) -->

<svg
   xmlns:dc="http://purl.org/dc/elements/1.1/"
   xmlns:cc="http://creativecommons.org/ns#"
   xmlns:rdf="http://www.w3.org/1999/02/22-rdf-syntax-ns#"
   xmlns:svg="http://www.w3.org/2000/svg"
   xmlns="http://www.w3.org/2000/svg"
   xmlns:sodipodi="http://sodipodi.sourceforge.net/DTD/sodipodi-0.dtd"
   xmlns:inkscape="http://www.inkscape.org/namespaces/inkscape"
   version="1.1"
   id="svg908"
   width="3933.5745"
   height="4029.3035"
   viewBox="0 0 3933.5745 4029.3035"
   sodipodi:docname="street_art_aberdeen.svg"
   inkscape:version="0.92.5 (2060ec1f9f, 2020-04-08)">
  <metadata
     id="metadata914">
    <rdf:RDF>
      <cc:Work
         rdf:about="">
        <dc:format>image/svg+xml</dc:format>
        <dc:type
           rdf:resource="http://purl.org/dc/dcmitype/StillImage" />
        <dc:title></dc:title>
      </cc:Work>
    </rdf:RDF>
  </metadata>
  <defs
     id="defs912" />
  <sodipodi:namedview
     pagecolor="#ffffff"
     bordercolor="#666666"
     borderopacity="1"
     objecttolerance="10"
     gridtolerance="10"
     guidetolerance="10"
     inkscape:pageopacity="0"
     inkscape:pageshadow="2"
     inkscape:window-width="3840"
     inkscape:window-height="2160"
     id="namedview910"
     showgrid="false"
     fit-margin-top="0"
     fit-margin-left="0"
     fit-margin-right="0"
     fit-margin-bottom="0"
     inkscape:zoom="0.3892"
     inkscape:cx="1975.6603"
     inkscape:cy="1935.0326"
     inkscape:window-x="3840"
     inkscape:window-y="1050"
     inkscape:window-maximized="1"
     inkscape:current-layer="svg908" />
  <path
     style="fill:#cc0000;fill-opacity:1"
     d="m 2254.2687,4028.5541 c -23.4993,-3.0553 -49.7454,-16.8433 -70.9629,-37.2794 -5.7419,-5.5304 -12.998,-13.4525 -16.1248,-17.6048 -23.4249,-31.1076 -28.6904,-69.8336 -15.031,-110.5496 5.9097,-17.6157 25.4125,-55.3569 65.369,-126.5 31.2886,-55.7097 38.6075,-69.3112 52.4641,-97.5 14.2007,-28.8889 18.2475,-38.9291 22.5712,-56 6.3472,-25.06 7.0471,-48.9167 2.0711,-70.5961 -11.3181,-49.3103 -50.6221,-86.3018 -107.4531,-101.1309 -10.2096,-2.664 -13.4496,-3.0551 -26.1533,-3.1568 -11.0034,-0.088 -16.0674,0.3083 -21,1.644 -37.0959,10.0456 -58.9721,49.0816 -58.9941,105.2697 -0.01,22.9089 1.7352,34.8256 12.8754,87.9701 5.1754,24.6895 7.1187,38.149 7.1187,49.306 0,34.1464 -13.9079,62.9212 -40.2532,83.2822 -16.7255,12.9263 -32.1843,18.2906 -46.3593,16.0869 -28.088,-4.3668 -55.7171,-29.8763 -63.0088,-58.1751 -6.1766,-23.9711 3.4154,-58.5876 27.5494,-99.4228 4.5257,-7.6575 10.7214,-18.9075 13.7683,-25 3.0469,-6.0924 9.8459,-18.9522 15.1089,-28.5772 22.472,-41.0966 28.1077,-57.7347 26.9055,-79.4319 -1.1511,-20.7753 -10.007,-37.5641 -31.0339,-58.8332 -42.1354,-42.621 -98.8825,-60.1854 -165.1094,-51.1049 -31.914,4.3758 -59.6289,15.9058 -103.9332,43.2387 -33.44,20.6303 -47.4115,26.8218 -69.0153,30.5845 -25.8294,4.4987 -48.0574,-2.0027 -65.0936,-19.0389 -7.6425,-7.6425 -12.7151,-14.8397 -18.2644,-25.9143 -5.6801,-11.3359 -8.4248,-19.4301 -16.785,-49.5 -14.1988,-51.0704 -20.0373,-67.5658 -32.5799,-92.0492 -18.2865,-35.6955 -41.6207,-56.5011 -72.4046,-64.5587 -8.4621,-2.2149 -12.211,-2.6256 -24.4915,-2.6829 -29.764,-0.1387 -55.0202,7.2279 -96,28.0011 -43.3641,21.9818 -62.4416,29.4133 -76.1253,29.6539 -6.3698,0.112 -8.2148,-0.2265 -10.5475,-1.9353 -7.501,-5.4949 -8.1032,-15.3091 -2.8845,-47.0138 4.729,-28.7295 5.9159,-40.984 5.2217,-53.9151 -1.1902,-22.1709 -7.5964,-37.6295 -21.1351,-51 -4.4553,-4.4 -10.5596,-9.4079 -13.565,-11.1287 -27.7419,-15.884 -40.0708,-23.3318 -55.9643,-33.8076 -76.8677,-50.6656 -139.6894,-113.4568 -192.71493,-192.6212 -8.2465,-12.3116 -17.45,-21.2828 -31.2603,-30.4711 -37.9011,-25.2165 -84.0325,-27.1926 -126.8412,-5.4332 -13.8643,7.0471 -22.7411,13.5778 -46.1836,33.9776 -63.5776,55.3255 -77.2267,66.0052 -97.2723,76.1108 -31.9255,16.0944 -62.1018,16.4448 -91.1967,1.0587 -9.3709,-4.9556 -21.175,-16.6055 -25.3074,-24.9772 -9.3263,-18.8933 -7.9351,-46.0317 3.5375,-69.0102 9.2525,-18.5316 25.6792,-31.6676 48.2549,-38.5881 16.4043,-5.0287 22.6474,-5.6156 70.484,-6.6253 60.8592,-1.2845 71.7922,-2.3986 93.1513,-9.4918 16.7297,-5.5558 33.1239,-14.5513 51.8889,-28.4713 24.9114,-18.4795 39.2798,-37.0697 46.0423,-59.5707 2.2899,-7.6193 2.7594,-11.3306 3.1562,-24.9507 0.6168,-21.1761 -1.0613,-32.7643 -8.2545,-57 -3.1016,-10.45 -11.4121,-41.725 -18.4678,-69.5 -26.0336,-102.4822 -46.1105,-169.0724 -72.8696,-241.6912 -25.0762,-68.0516 -58.1892,-143.3414 -77.0914,-175.2842 -32.6191,-55.123 -70.3159,-77.1057 -128.0554,-74.6747 -25.8712,1.0892 -43.4637,4.3121 -115.49997,21.1592 -88.5062,20.6989 -110.3708,24.2699 -141.9348,23.181 -37.9666,-1.3098 -65.843,-12.2906 -89.0258,-35.0682 -14.8689,-14.609 -26.0333,-32.1978 -30.2278,-47.6219 -2.7125,-9.9743 -2.4601,-29.1155 0.5207,-39.5 2.6227,-9.1368 8.0038,-20.3761 14.1881,-29.6341 6.6115,-9.8975 27.0064,-29.4556 36.7667,-35.258 32.3158,-19.2117 69.0167,-19.1756 116.2129,0.1143 4.675,1.9107 21.55,9.7877 37.5,17.5043 33.7257,16.3166 60.2811,28.2902 80,36.0715 88.62537,34.9726 158.97197,40.3427 235.99997,18.0158 29.0909,-8.4322 50.3114,-19.5411 66.2518,-34.683 26.8489,-25.5038 34.6969,-59.3201 24.7263,-106.5432 -3.7479,-17.751 -9.1469,-33.6555 -23.996,-70.6875 -15.7838,-39.363 -21.5886,-55.6904 -25.5445,-71.8499 -3.7923,-15.4912 -4.5967,-27.5383 -2.5352,-37.9668 4.8387,-24.4773 20.6786,-42.5264 79.5976,-90.6999 23.6353,-19.3247 35.7235,-31.3064 43.8112,-43.4251 33.9618,-50.8892 26.8431,-111.9511 -18.0781,-155.0676 l -9.9519,-9.5521 -8.6406,0.6406 c -31.3887,2.3269 -69.8248,7.3162 -97.0661,12.5998 -21.2449,4.1206 -20.2006,3.607 -14.2468,7.0073 2.7756,1.5852 6.6484,4.8018 8.6061,7.1479 6.2936,7.5419 13.5662,18.9752 13.5662,21.3275 0,2.6984 -3.7318,7.4215 -7.426,9.3986 -1.4409,0.7711 -2.497,1.752 -2.3469,2.1797 0.1501,0.4276 6.5128,5.5211 14.1394,11.3187 7.6265,5.7977 13.3093,10.5412 12.6283,10.5412 -0.681,0 -5.9011,-0.6924 -11.6002,-1.5386 -15.8252,-2.3498 -21.275,-4.7578 -23.6769,-10.4614 -0.5791,-1.375 -1.3476,-11.05 -1.7078,-21.5 -0.6887,-19.9762 -1.6039,-24.3101 -6.1576,-29.1573 -1.5471,-1.6467 -2.8277,-2.0602 -5.2023,-1.6797 -1.7423,0.2791 -9.4064,-0.8884 -17.15,-2.6127 l -14,-3.1175 -10.2018,1.4282 c -17.628,2.4679 -21.7291,6.2419 -17.0522,15.6922 1.8474,3.7328 2.1054,4.9468 1.0514,4.9468 -1.9683,0 -6.758,-2.5864 -14.1637,-7.6485 -3.5014,-2.3933 -6.9626,-4.3515 -7.6915,-4.3515 -0.7289,0 -3.3195,2.5917 -5.7569,5.7592 -32.9305,42.7957 -94.7593,54.2686 -148.1853,27.4972 -11.36607,-5.6955 -25.68767,-15.4475 -29.52827,-20.1069 -15.3383,-18.6079 -20.5142,-54.0442 -12.5053,-85.6162 7.2787,-28.6935 27.4999,-56.8092 53.03357,-73.7386 20.1811,-13.3805 47.5106,-23.0673 65.5,-23.2161 13.0453,-0.1079 15.4393,0.9463 25.7951,11.359 7.0145,7.053 9.8701,9.1983 14.7049,11.0471 13.1109,5.0136 30.6914,3.2394 47.9251,-4.8366 l 8.171,-3.8291 2.1985,-8.9095 c 4.0582,-16.4467 15.2098,-36.0378 27.9057,-49.025 15.1408,-15.4881 31.0348,-22.6372 50.2997,-22.6246 21.3601,0.014 40.2757,8.3622 65,28.6871 5.225,4.2952 19.85,18.2207 32.5,30.9454 12.65,12.7247 26.0176,25.9942 29.7058,29.4878 l 6.7059,6.352 71.7941,1.7333 c 62.99743,1.5209 72.00283,1.5542 73.49693,0.2718 1.8643,-1.6004 8.0165,-11.6925 12.2165,-20.0402 6.8994,-13.7127 23.1439,-57.2952 28.5695,-76.6494 1.2262,-4.3738 2.4534,-8.5363 2.7273,-9.25 0.3706,-0.9657 -0.8955,-1.2977 -4.949,-1.2977 -2.9959,0 -8.9168,-0.8874 -13.1575,-1.972 -24.7476,-6.3294 -44.19343,-27.0021 -53.24743,-56.6069 -2.5001,-8.1747 -2.7339,-10.3526 -2.7952,-26.0315 l -0.067,-17.1105 -11,-0.635 c -31.5238,-1.8198 -82.188,0.8718 -94.9842,5.0462 -5.109,1.6667 -7.2059,3.5649 -26.0158,23.5495 -9.5981,10.1976 -15.8503,13.2054 -27.5148,13.2371 -7.6104,0.021 -9.217,-0.3222 -15.1252,-3.2281 -3.6357,-1.7882 -9.3836,-5.7257 -12.773,-8.75 -9.5353,-8.5082 -14.2399,-7.4612 -27.7076,6.1663 l -8.1207,8.217 -4.7406,-1.4267 c -15.2146,-4.5789 -41.4326,-5.8185 -61.3898,-2.9024 -5.8455,0.8541 -21.7407,4.0113 -35.3225,7.016 -33.2563,7.3573 -41.0431,8.4181 -61.8457,8.4251 -19.5459,0.01 -25.5054,1.0473 -35.0119,6.1142 -9.8794,5.2657 -20.2618,15.1623 -28.9482,27.5939 l -1.5,2.1467 -13,-2.4422 c -21.5572,-4.0497 -36.2166,-5.6378 -51.99997,-5.6333 -20.1706,0.01 -29.1482,1.7442 -58,11.2312 -38.4994,12.6592 -47.9163,14.5161 -69.6913,13.7424 -10.7762,-0.3828 -16.5427,-1.1091 -23.3575,-2.9417 l -9.0488,-2.4334 -8.646,8.0641 c -10.4666,9.7621 -23.1123,17.8827 -34.0964,21.8955 -14.7011,5.3708 -33.7152,3.8109 -44.8569,-3.68 -7.2695,-4.8874 -7.6999,-18.7931 -1.0474,-33.8323 4.5817,-10.3575 14.3255,-17.4771 27.0855,-19.7906 8.0394,-1.4576 13.7076,-0.7928 34.1588,4.0063 27.67,6.4931 31.2443,6.3803 50.1821,-1.5839 18.6741,-7.8533 38.4364,-12.106 76.3179,-16.4229 48.775,-5.5583 70.89357,-10.7832 91.28017,-21.5622 l 8.2803,-4.378 14.9395,1.9444 c 33.6618,4.3812 53.8806,4.7421 75,1.3389 10.8834,-1.7537 27.0477,-6.8521 35.9129,-11.3272 5.8528,-2.9545 6.9913,-3.1364 31.8285,-5.0835 45.4836,-3.5657 71.8682,-7.1942 97.7586,-13.4442 23.2001,-5.6006 47.4915,-14.8024 63.8984,-24.20536 l 6.8984,-3.9535 10.6016,5.31196 c 31.0606,15.5633 68.5096,15.7973 120.9168,0.7558 8.48,-2.43376 15.5645,-4.42516 15.7432,-4.42516 0.1787,0 2.9042,-4.3826 6.0567,-9.739 10.5526,-17.9306 19.61293,-29.4503 34.02493,-43.261 9.6161,-9.215 23.4186,-19.4828 32.11,-23.887 2.3375,-1.1845 4.25,-2.7451 4.25,-3.4679 0,-3.3824 -11.7093,-29.5923 -19.0517,-42.6451 -2.9391,-5.225 -6.9808,-12.5604 -8.9814,-16.3009 -2.7913,-5.2186 -3.8871,-6.4982 -4.7101,-5.5 -0.5899,0.7155 -4.0089,7.969 -7.5978,16.1188 -3.5889,8.1499 -7.6766,16.3275 -9.0838,18.1724 -3.7216,4.8792 -12.69723,8.9838 -19.56233,8.9459 -10.9187,-0.06 -15.6307,-4.4846 -22.0854,-20.7371 -4.8195,-12.135 -8.3925,-18.8762 -11.583,-21.8537 -4.6422,-4.3322 -56.0896,-27.0839 -105.3445,-46.5867 -86.2111,-34.1358 -169.5699,-62.2591 -353.5,-119.2626 -122.30727,-37.9053 -241.36987,-76.4596 -240.08597,-77.7434 1.4876,-1.4876 46.7143,5.9244 72.2537,11.8414 30.4651,7.0581 115.9145,32.8073 147.3323,44.3969 23.75047,8.7613 28.39637,9.8177 43.49997,9.8912 11.2745,0.055 13.8513,-0.2496 19.4142,-2.2941 l 6.4142,-2.3574 2.063,2.8847 c 3.0333,4.2414 11.6854,13.3031 14.86,15.5637 1.8648,1.3278 14.4919,4.5044 39.0031,9.8118 85.6537,18.5468 124.7619,28.6441 178.2455,46.0212 59.5764,19.3566 102.7501,25.7698 131.5,19.5336 5.8274,-1.264 7.9488,-1.2145 20.5,0.4792 7.7,1.039 21.875,2.8283 31.5,3.9762 20.0666,2.3933 35.119,5.7121 45.29113,9.986 3.8942,1.6361 7.1454,2.8709 7.2249,2.7438 0.079,-0.127 0.9723,-3.3809 1.9839,-7.2309 3.4459,-13.1133 9.2877,-25.4225 18.2093,-38.3678 2.4137,-3.5023 4.254,-6.4815 4.0897,-6.6204 -0.5895,-0.4982 -74.06553,-24.646 -112.54623,-36.9882 -41.5481,-13.326 -74.4331,-24.6614 -98.163,-33.8366 -13.5295,-5.2312 -23.5044,-7.6361 -163.1999,-39.3461 -81.8343,-18.5759 -148.6645,-33.89947 -148.5115,-34.05257 0.153,-0.153 19.818,1.7494 43.6999,4.2274 40.0876,4.15967 43.4986,4.37767 44.4218,2.8401 9.382,-15.626 25.7335,-33.6136 43.3441,-47.681 4.8851,-3.9023 7.7869,-6.8446 7,-7.0977 -0.7393,-0.2379 -6.0691,-1.3865 -11.8441,-2.5525 -13.0887,-2.6426 -22.1116,-6.8279 -25.5304,-11.8421 l -2.5107,-3.6825 6.2705,-1.2033 c 3.4488,-0.6618 13.6956,-1.2219 22.7706,-1.2446 26.4343,-0.066 44.1357,2.9967 103.5,17.9082 40.3335,10.1313 62.1495,14.5497 96.5,19.5442 108.313,15.7486 257.41753,44.49917 371.00003,71.53687 l 20.5,4.8799 1.769,-2.2106 c 3.355,-4.1927 16.589,-32.244 21.3294,-45.21067 2.614,-7.15 8.046,-23.531 12.0713,-36.4022 9.3631,-29.9397 11.9067,-34.31274 22.8303,-39.25088 4.5854,-2.0729 6.5754,-2.27145 24,-2.39469 12.0784,-0.0854 20.0534,-0.56716 21.8916,-1.3224 1.5904,-0.65341 5.4154,-3.49497 8.5,-6.31458 12.6255,-11.54084 24.5592,-18.67983 39.6627,-23.72706 29.4825,-9.85236 57.8845,-4.11137 73.0348,14.76279 2.494,3.10696 5.2269,6.4945 6.0732,7.52786 2.402,2.93288 11.4817,1.68084 27.2348,-3.75553 7.3684,-2.54282 13.7809,-4.62331 14.25,-4.62331 2.0843,0 0.7994,13.36461 -2.1237,22.08959 -5.4247,16.19161 -12.8463,28.53801 -24.7787,41.22121 -12.5082,13.2951 -17.2447,24.4788 -17.2447,40.7178 0,13.44727 4.1222,24.81927 10.3443,28.53717 4.8503,2.8982 15.2375,2.3068 34.3373,-1.9551 24.1202,-5.3821 33.9214,-4.8545 48.8184,2.6278 3.8084,1.9129 8.7627,5.8089 13.5636,10.6663 l 7.5635,7.6527 13.2159,-5.7837 c 25.8614,-11.3178 54.3262,-19.6858 87.657,-25.7692 9.35,-1.7065 21.3953,-4.2031 26.7674,-5.5479 45.2238,-11.32157 54.1777,-29.88677 31.3239,-64.94767 -11.2742,-17.2961 -22.2872,-29.98773 -55.0964,-63.49391 -13.2028,-13.4833 -27.0493,-28.56509 -30.7699,-33.51509 -7.7677,-10.33444 -15.5324,-24.85254 -18.7189,-35 -3.0567,-9.73391 -3.7924,-26.55075 -1.5737,-35.97237 3.4071,-14.46783 12.3572,-28.6975 25.7225,-40.89573 18.5626,-16.94178 36.3785,-24.98439 55.3451,-24.98439 22.1095,0 41.6596,10.37528 65.0535,34.52414 27.3911,28.27497 36.7849,52.06546 44.3536,112.32835 3.3388,26.58424 6.1594,38.98304 11.8946,52.28581 5.203,12.06859 11.7058,21.54219 20.5599,29.95269 12.6657,12.0312 26.7076,18.8985 47.8361,23.3946 14.0158,2.9826 41.1541,3.2257 53.8023,0.482 23.8165,-5.1663 41.4807,-15.0267 58.2419,-32.5114 11.6431,-12.14581 17.7497,-21.28811 28.1533,-42.14883 33.0575,-66.28539 35.8262,-130.01071 8.4268,-193.95487 -5.7214,-13.35259 -11.9279,-24.72232 -30.868,-56.5473 -30.872,-51.87406 -39.891,-69.86286 -45.4601,-90.67275 -8.8742,-33.15997 -3.2366,-64.64634 16.6121,-92.77995 6.1423,-8.70612 19.6563,-22.56609 28.6508,-29.38436 19.2073,-14.5601501 42.5573,-21.4251201 63.33,-18.61929007 22.0342,2.97622997 43.9163,14.26779007 62.5929,32.29899007 23.5726,22.75815 33.4283,49.16747 30.2433,81.03944 -1.4426,14.43536 -4.2171,25.16025 -12.8453,49.65394 -21.2442,60.30808 -33.4688,114.13629 -39.7457,175.01128 -2.4548,23.80735 -2.4686,86.73535 -0.024,111 5.9159,58.72899 16.6585,95.9365 36.3404,125.8666 6.8221,10.3742 23.9575,27.72917 33.852,34.28577 27.7843,18.4111 67.0469,28.9324 108,28.941 24.464,0.01 39.6437,-3.2077 48.6847,-10.3043 2.9234,-2.2947 11.8466,-10.2735 19.8293,-17.7306 18.1361,-16.94227 26.7363,-23.97567 39.707,-32.47357 31.004,-20.3125 72.5598,-32.5268 110.779,-32.5607 23.0604,-0.021 40.7696,3.595 63.5,12.9638 28.0607,11.5658 31.8028,13.0029 37.9802,14.5854 8.651,2.2163 21.722,1.5969 28.2831,-1.3403 4.2571,-1.9058 49.3205,-39.2366 53.9614,-44.702 4.4874,-5.2845 18.2321,-26.25851 24.2673,-37.0311 3.6975,-6.6 11.3661,-21.56425 17.0412,-33.25389 11.5186,-23.72615 16.7295,-32.1678 24.8524,-40.26077 7.4287,-7.40134 14.5527,-11.53987 24.0427,-13.967 9.4276,-2.41119 17.2829,-2.54617 29.0238,-0.49873 34.6264,6.03833 54.9378,29.65081 57.1336,66.41907 1.6966,28.40954 -10.4172,50.80052 -36.9183,68.23912 -11.4755,7.5512 -23.3495,13.5369 -50.6674,25.5411 -42.1925,18.5405 -57.7414,28.0044 -76.1082,46.32357 -8.9715,8.9482 -11.2752,11.9267 -14.9311,19.3047 -3.8079,7.6846 -4.3749,9.7137 -4.7589,17.0298 -0.7555,14.394 3.4064,23.5228 17.8893,39.2381 4.0749,4.4217 10.7837,12.2139 14.9085,17.3159 16.7829,20.7591 45.1917,39.4277 69.3086,45.5454 33.8039,8.5751 99.8043,4.0576 146.2374,-10.0093 19.9562,-6.0457 26.1657,-8.9845 41.6567,-19.7148 17.3597,-12.0248 31.556,-12.9588 40.2327,-2.6471 9.8073,11.6552 18.3592,44.1027 21.089,80.0153 2.1228,27.9266 3.6929,36.2527 8.7462,46.3795 6.2525,12.5303 17.9986,20.1271 34.8058,22.5108 19.5444,2.7719 39.2957,-6.6089 56.8438,-26.9977 7.1864,-8.3497 36.4511,-47.1574 43.835,-58.1293 19.5196,-29.0045 34.6003,-58.6473 58.701,-115.3838 21.1354,-49.7555 26.4336,-61.6347 31.2206,-69.99997 22.9264,-40.0645 50.4437,-50.5921 85.8236,-32.8346 23.9844,12.038 39.2364,29.2876 44.0635,49.83457 2.1841,9.2969 1.4664,26.8387 -1.5544,37.9947 -8.2261,30.3789 -28.6585,60.7117 -57.8506,85.8813 -14.0865,12.1455 -29.4875,23.295 -59.3693,42.9801 -67.1948,44.2655 -107.8551,74.4239 -125.7892,93.2996 -21.2468,22.3624 -31.6583,45.2119 -32.7364,71.8443 -1.1036,27.2628 7.0323,51.0696 22.7695,66.62716 15.0338,14.8621 31.8383,21.3809 72.9669,28.3051 22.5452,3.7957 33.2407,6.5999 48.8553,12.8091 20.419,8.1198 36.7934,19.1004 53.1447,35.6386 26.39,26.6916 43.6551,62.7474 54.4498,113.7106 11.4996,54.2917 19.6789,82.624 35.0501,121.4094 27.1197,68.4299 68.2248,136.3424 120.1435,198.4969 75.205,90.0317 143.4653,101.6645 228.0943,38.8715 12.3319,-9.1501 21.3102,-16.7378 37.2623,-31.4908 31.654,-29.2747 47.8705,-36.8302 69.4542,-32.3598 24.8946,5.1561 46.3903,23.4452 54.1819,46.0992 3.6881,10.7232 3.9016,26.6906 0.5265,39.383 -6.5021,24.4514 -21.7899,42.882 -42.4089,51.1271 -18.049,7.2174 -32.6457,9.1608 -81.7537,10.8849 -38.6082,1.3554 -49.9039,2.9541 -71.6477,10.1404 -21.8572,7.2237 -36.8696,17.8811 -42.8951,30.4515 -3.6856,7.6891 -4.5205,20.5784 -1.9688,30.3961 3.8212,14.702 10.0273,25.1728 33.4878,56.5 30.0954,40.1869 46.1988,64.4412 57.4306,86.5 31.0176,60.9169 24.0493,102.3989 -31.1113,185.2048 l -9.7955,14.7048 -18.5085,9.2952 c -52.3131,26.2723 -88.0099,60.9032 -109.5667,106.2952 -13.4651,28.3535 -19.1416,52.9316 -20.1028,87.0422 -1.022,36.269 3.558,65.6903 15.7159,100.9578 11.6693,33.8499 31.5015,71.0358 52.6254,98.674 5.1711,6.7659 5.1855,6.9548 2.2848,30.0143 -9.7529,77.5315 -36.9183,142.0873 -83.3126,197.984 -20.0011,24.0978 -43.3111,45.7635 -72.1355,67.0471 -37.467,27.6652 -50.3625,38.3627 -86.5,71.7566 -37.862,34.9874 -46.1648,44.6651 -54.07,63.024 -5.6031,13.0126 -7.0689,19.8512 -7.6547,35.7126 -1.5642,42.3508 16.3906,77.6063 47.7247,93.7112 25.2732,12.9899 40.8764,14.4778 152.5,14.5426 87.7369,0.051 105.5892,1.0837 131.7121,7.6194 25.6464,6.4164 43.397,15.6872 68.7879,35.9262 27.631,22.0246 44.1449,41.7752 52.3553,62.617 7.6838,19.5051 8.5535,41.4311 2.5595,64.5272 -13.6798,52.7107 -41.3673,84.9487 -81.9148,95.3777 -27.9733,7.1948 -51.9845,3.0385 -74.5,-12.8959 -6.6846,-4.7307 -22.2205,-19.8618 -29.9177,-29.138 -3.4228,-4.125 -12.6819,-16.05 -20.5757,-26.5 -47.0306,-62.2602 -66.4215,-82.6779 -89.2852,-94.0131 -19.9535,-9.8923 -38.88,-9.4644 -69.116,1.563 -9.0933,3.3163 -43.022,19.9456 -68.1054,33.3799 -15.3337,8.2125 -31.9448,14.2205 -47.5,17.1801 -14.1886,2.6996 -43.1716,2.48 -60.5,-0.4585 -29.1854,-4.9491 -68.8699,-17.2667 -108.5,-33.6772 -40.6925,-16.8505 -51.0866,-19.8464 -69,-19.888 -9.2828,-0.022 -14.0442,0.4389 -18.5,1.7889 -8.6938,2.6341 -19.0311,7.9253 -26.6393,13.6354 l -6.6393,4.983 -0.6898,11.7532 c -0.3795,6.4643 -0.1882,24.5783 0.425,40.2533 3.0004,76.701 10.7082,125.4772 23.076,146.028 4.879,8.1072 5.6815,11.6903 3.5441,15.8237 -2.7167,5.2536 -8.5682,7.582 -19.0767,7.591 -29.1488,0.025 -62.898,-24.1687 -86.7475,-62.1867 -6.4363,-10.2601 -22.062,-40.6008 -39.2724,-76.256 -5.853,-12.1259 -9.1769,-17.7592 -12.5384,-21.25 -4.3774,-4.5458 -4.8124,-4.75 -10.1198,-4.75 -6.1005,0 -30.0238,6.2657 -40.8219,10.6917 -9.0778,3.7208 -16.516,8.5516 -23.3367,15.1564 -11.2326,10.8769 -17.0218,20.9161 -31.8035,55.1519 l -7.1241,16.5 -0.8294,18.5 c -0.4562,10.175 -1.5217,31.1684 -2.3679,46.652 -1.7938,32.8256 -1.9916,70.8426 -0.4632,89.0435 2.3443,27.9169 8.6313,55.5267 16.9293,74.3454 7.385,16.7483 7.3112,16.355 7.4077,39.4591 0.094,22.5713 -0.588,28.4594 -5.458,47.0978 -6.2781,24.027 -16.2615,41.2217 -29.8403,51.3947 -3.6376,2.7253 -10.7903,8.5184 -15.8947,12.8736 -21.7819,18.5847 -38.2648,21.1646 -49.8074,7.796 -9.6197,-11.1415 -15.1788,-27.595 -25.9498,-76.8048 -10.3236,-47.1654 -17.0106,-70.3972 -25.5777,-88.8613 l -3.9458,-8.504 -26.7192,-10.6792 c -30.9316,-12.3627 -43.3634,-16.6032 -62.5986,-21.3525 -19.7525,-4.8769 -34.4836,-6.7679 -52.6207,-6.7549 -44.406,0.032 -79.8213,15.4252 -114.5641,49.7946 -50.9293,50.3821 -71.3024,113.2334 -60.4536,186.5 2.3466,15.8476 5.6669,29.8398 13.8934,58.5483 23.9669,83.6391 27.9072,129.7817 14.5216,170.0558 -11.5937,34.8826 -40.376,63.4573 -76.8973,76.3427 -14.6932,5.184 -29.7141,6.8769 -44.2503,4.987 z m 286.219,-875.3209 c 16.7686,-8.2875 28.8618,-30.0699 25.5503,-46.0214 -2.1776,-10.4896 -7.0836,-18.0673 -22.3953,-34.5915 -22.7781,-24.5818 -36.8166,-46.717 -42.8095,-67.5 -1.9031,-6.5998 -2.2961,-10.2753 -2.245,-21 0.057,-11.9427 0.325,-13.7727 3.2974,-22.5 3.7533,-11.0201 8.9265,-20.2509 17.6661,-31.5223 21.2381,-27.3908 75.8322,-68.0746 124.4707,-92.7562 35.7196,-18.1259 66.8136,-28.6377 115.9966,-39.2145 41.9343,-9.018 70.0023,-25.6664 87.4303,-51.859 9.9269,-14.9194 14.5429,-28.0204 19.0281,-54.0058 4.1288,-23.9209 8.2925,-34.2531 17.902,-44.4242 14.7231,-15.5838 45.0029,-19.7238 67.4455,-9.2216 21.7509,10.1784 39.584,31.1061 84.6162,99.2994 16.265,24.6305 26.0701,37.1467 38.1716,48.7264 13.0889,12.5243 26.3395,20.7732 41.9063,26.0879 5.8554,1.9991 8.9657,2.3899 19.021,2.3899 11.6166,0 12.2501,-0.1128 18.8306,-3.3523 20.3614,-10.0239 34.4933,-38.7833 28.1169,-57.2196 -3.4951,-10.1052 -13.2832,-19.5072 -28.4685,-27.3453 -4.675,-2.4131 -20.875,-9.6364 -36,-16.0517 -33.8877,-14.3737 -62.149,-28.2421 -76,-37.2949 -17.1577,-11.214 -42.0264,-30.0765 -49.1179,-37.2551 -9.1682,-9.2806 -13.1936,-17.5753 -13.2396,-27.2807 -0.061,-12.8695 5.3051,-23.0822 14.6267,-27.8377 5.0745,-2.5889 15.5111,-4.4936 29.2308,-5.3349 17.8706,-1.0958 40.7848,-6.2694 49.1446,-11.0958 6.7046,-3.8708 9.3554,-7.7281 9.3554,-13.6135 0,-5.6993 -2.2059,-10.7225 -9.1822,-20.9096 -9.9269,-14.4957 -17.5142,-46.1545 -19.3905,-80.9089 -1.8086,-33.5014 5.812,-56.1406 25.5727,-75.9703 12.5907,-12.6347 25.3214,-23.2138 31.2234,-25.9464 11.704,-5.4188 23.6599,-1.8833 36.1122,10.6791 11.4801,11.5816 19.2576,24.4104 30.1536,49.7376 18.273,42.4749 31.392,55.9412 55.7926,57.2696 16.49,0.8977 29.8277,-3.7323 38.6924,-13.4317 8.4641,-9.2611 12.243,-19.7148 12.2321,-33.8379 -0.015,-18.8134 -8.1247,-28.1668 -36.2063,-41.7567 -34.5655,-16.7277 -43.2711,-22.9924 -61.3995,-44.1847 -13.8379,-16.1766 -16.6005,-20.9245 -16.6005,-28.53 0,-4.6042 2.812,-13.6073 8.3827,-26.8389 6.485,-15.403 9.1546,-24.5944 10.6565,-36.6897 2.5867,-20.831 -3.4726,-51.2605 -14.5167,-72.9021 -6.1515,-12.0541 -13.6154,-22.1699 -26.5833,-36.028 -14.2698,-15.2492 -15.4492,-16.8996 -17.5591,-24.5699 -2.3938,-8.7022 -2.4255,-33.6742 -0.059,-46.5 4.949,-26.8227 13.564,-44.6026 28.387,-58.5858 24.6909,-23.2921 64.7869,-33.8367 128.8813,-33.8937 52.1703,-0.046 93.7228,7.4195 152.9106,27.4738 10.45,3.5408 21.925,6.8996 25.5,7.4642 22.0147,3.4764 41.11,-1.879 56.0629,-15.7231 21.0463,-19.4856 29.89,-44.9644 23.1639,-66.7354 -5.4472,-17.6315 -22.2941,-36.5164 -40.9175,-45.8673 -10.2706,-5.1569 -19.3275,-6.905 -33.2478,-6.4173 -10.8276,0.3793 -13.8728,0.8859 -22.0615,3.6702 -11.5104,3.9136 -27.215,12.0314 -52.5,27.1377 -44.6262,26.6616 -64.1971,33.3737 -97,33.2677 -22.359,-0.072 -42.9804,-4.958 -65.6602,-15.5563 -19.8721,-9.2863 -36.0325,-22.589 -43.6805,-35.9563 -9.9358,-17.3659 -12.4318,-41.1503 -6.6371,-63.2439 5.7858,-22.0596 21.776,-36.6769 46.9778,-42.9445 3.3,-0.8207 13.425,-2.4233 22.5,-3.5613 38.3603,-4.8104 55.0971,-11.879 74.3371,-31.3957 18.1258,-18.3865 24.1082,-35.2717 18.6992,-52.7777 -5.175,-16.7485 -20.5238,-33.7408 -35.9808,-39.8334 -15.752,-6.2089 -34.6837,-2.0707 -52.7562,11.5318 -4.0231,3.028 -16.2209,14.1693 -27.1062,24.7585 -37.8019,36.7733 -54.9361,45.8764 -66.7787,35.4785 -6.8421,-6.0074 -10.3309,-15.7026 -15.8043,-43.9185 -10.9248,-56.3192 -32.9904,-96.7559 -75.2363,-137.8763 -15.2347,-14.8288 -25.234,-23.0924 -47.8738,-39.564 -17.6853,-12.8669 -28.8901,-23.2413 -34.9553,-32.3646 -5.567,-8.374 -7.4809,-13.332 -11.607,-30.0673 -2.8787,-11.6764 -3.3357,-15.2561 -3.383,-26.5 -0.048,-11.4647 0.1995,-13.4724 2.098,-17 6.3329,-11.7676 19.6375,-15.8759 44.5295,-13.7502 22.9489,1.9598 35.6153,-0.9861 49.6799,-11.554 8.0255,-6.0302 14.7481,-14.5889 20.1834,-25.6958 7.8081,-15.9557 9.7654,-29.1923 6.4171,-43.3969 -5.1806,-21.9777 -28.5924,-45.0695 -55.1429,-54.3892 -7.9412,-2.7875 -10.0149,-3.099 -20.8197,-3.1271 -15.2266,-0.04 -26.5442,3.1674 -40.6714,11.5247 -19.0885,11.2923 -41.39,20.0719 -62.296,24.5244 -16.3067,3.473 -48.6624,4.3972 -67.5326,1.9289 -23.6326,-3.0911 -48.7511,-9.7964 -74.9239,-20.0004 -23.6234,-9.2101 -33.8182,-15.198 -43.2855,-25.4239 -18.1096,-19.5605 -16.9543,-45.3964 3.3153,-74.1405 2.9088,-4.125 15.6625,-18.0814 28.3414,-31.0143 12.679,-12.9329 24.9316,-25.9829 27.228,-29 17.0724,-22.4303 20.4603,-41.7568 10.5848,-60.3805 -3.3994,-6.4107 -15.0748,-18.0489 -22.5315,-22.4598 -30.2831,-17.91346 -54.0526,-10.3727 -70.4636,22.3546 -1.6547,3.3 -7.8328,18.15 -13.7291,33 -5.8962,14.85 -13.2113,31.8161 -16.2558,37.7025 -13.8916,26.8588 -33.2913,44.2643 -56.7801,50.9433 -10.3441,2.9414 -28.6278,3.1645 -38.4422,0.4691 -12.5643,-3.4506 -24.6476,-10.1557 -35.3344,-19.6072 -2.6271,-2.3234 -9.8028,-10.3632 -15.946,-17.8661 -29.7195,-36.2973 -39.372,-45.7813 -53.1639,-52.2353 -16.2465,-7.6026 -30.934,-4.7607 -83.0573,16.0712 -26.3126,10.5163 -38.6636,14.3624 -52.9184,16.4791 -12.6981,1.8855 -18.7623,1.8969 -29.1022,0.055 -20.1109,-3.5831 -37.4243,-18.475 -47.4451,-40.8094 -10.5979,-23.6207 -16.9157,-58.3799 -15.7588,-86.70176 1.5741,-38.5382 12.0745,-73.2892 39.432,-130.5 13.8616,-28.9879 18.2559,-39.2444 21.8624,-51.0281 2.493,-8.1457 2.7502,-10.4453 2.7931,-24.9719 0.044,-14.9103 -0.1302,-16.4592 -2.5588,-22.7416 -3.9679,-10.2646 -8.6073,-17.3394 -16.9536,-25.8535 -13.9555,-14.236 -27.0885,-20.845 -43.0537,-21.6662 -7.9354,-0.4081 -10.8626,-0.1242 -16.5,1.6005 -19.5545,5.9825 -39.1427,25.0223 -47.1727,45.852 -4.2871,11.1207 -6.1804,22.4677 -6.1804,37.0409 0,19.5898 2.8551,35.8811 16.5264,94.302 11.107,47.4626 11.8693,52.1908 11.9257,73.9659 0.056,21.5502 -0.8674,26.2332 -8.0582,40.8739 -3.8527,7.8442 -6.0964,10.87446 -13.749,18.56876 -5.2883,5.3171 -13.1513,11.8345 -18.6449,15.4543 -23.3569,15.3897 -89.3826,44.1939 -144.5862,63.0766 -9.7978,3.3513 -17.9955,6.2748 -18.2172,6.4965 -0.2217,0.2217 0.8254,4.0919 2.3269,8.6005 3.132,9.4044 3.0555,15.5707 -0.3113,25.0973 -4.337,12.2718 -11.5523,19.1986 -21.8736,20.999 -3.3115,0.5777 -32.4572,1.222 -67.3386,1.4888 l -61.5,0.4702 -5.841,-5.5629 c -3.2125,-3.0597 -6.5875,-5.5596 -7.5,-5.5554 -0.9124,0 -4.5208,0.8779 -8.0185,1.9415 -3.4978,1.0636 -10.6427,2.473 -15.8776,3.1319 -29.3475,3.694 -50.2028,-5.3065 -68.9203,-29.7439 -3.3275,-4.3442 -6.3582,-7.3371 -7.43,-7.3371 -9.6497,0 -34.9126,5.4252 -34.9126,7.4974 0,0.1381 0.7,2.2202 1.5555,4.6269 4.8117,13.5354 5.9118,33.8286 2.5461,46.9657 -5.4772,21.3791 -15.8138,35.1463 -37.4818,49.9219 -7.2159,4.9206 -15.6633,10.9529 -18.7719,13.4051 l -5.6522,4.4586 0.1522,13.8122 c 0.1472,13.3674 0.064,13.9614 -2.5722,18.4464 -4.2883,7.2947 -11.7423,13.3219 -20.7913,16.8116 -4.3559,1.6798 -8.3927,3.0542 -8.9706,3.0542 -2.3673,0 -23.9098,7.4431 -29.1037,10.0555 -4.7283,2.3783 -7.0063,4.633 -14.7789,14.6281 -11.4838,14.7675 -23.277,32.4141 -34.6236,51.8089 -10.0455,17.1707 -13.5921,21.8026 -19.9139,26.0075 -4.3922,2.9214 -4.5642,3.2358 -6.5659,12 -2.7967,12.2453 -4.8298,24.1881 -5.5853,32.809 -0.6114,6.9776 -0.5098,7.4284 3.4225,15.191 4.6647,9.2083 12.7075,20.1463 30.2572,41.1487 6.8254,8.1682 15.9268,19.6546 20.2254,25.5254 9.08,12.4009 8.5705,12.1122 29.6524,16.8053 7.975,1.7754 17.2746,4.4858 20.6657,6.0233 3.3911,1.5375 8.5559,3.308 11.4773,3.9345 10.5714,2.2672 17.3887,8.3016 34.5713,30.6014 17.4426,22.6372 24.2415,28.8619 34.5202,31.6046 7.6957,2.0535 14.614,0.041 36.7655,-10.6977 17.0069,-8.2443 20.5528,-9.5999 27.7349,-10.6029 14.654,-2.0463 30.9778,1.4828 60.7519,13.134 21.8162,8.5372 29.0344,8.9647 39.2725,2.3262 l 4.2407,-2.7497 v -13.5265 c -0.01,-24.7758 -3.5898,-51.2822 -7.9268,-58.6329 -2.6486,-4.4891 -2.6218,-7.0279 0.089,-8.4789 2.9386,-1.5727 10.7002,-0.5309 16.0223,2.1506 11.7307,5.9104 18.8799,14.9742 30.5732,38.7611 6.2804,12.7759 9.1227,17.5566 10.8221,18.2027 2.9052,1.1046 15.1961,-2.1487 21.0786,-5.5793 5.8149,-3.3912 9.7314,-8.7588 14.7292,-20.1863 l 4.3094,-9.8534 0.9928,-22.4551 c 1.4476,-32.7432 0.028,-46.8534 -6.2767,-62.3683 -4.315,-10.6192 -2.6875,-28.6579 3.6599,-40.5669 2.3795,-4.4644 5.0627,-7.4479 10.7981,-12.0066 8.6158,-6.8482 12.2009,-8.2675 16.6318,-6.5841 4.3735,1.6616 7.8183,9.2538 11.5115,25.3708 4.1094,17.9334 7.5495,30.3086 10.0247,36.0626 1.9917,4.6296 2.0619,4.6771 13.8087,9.3296 18.2435,7.2256 26.6745,9.1579 40.1551,9.2031 9.5262,0.032 12.6156,-0.3571 18,-2.2664 18.7219,-6.6385 35.7497,-24.0999 43.0749,-44.1717 6.5196,-17.864 6.2208,-33.7121 -1.1399,-60.4572 -5.9149,-21.4918 -7.935,-32.9341 -7.935,-44.9464 0,-16.431 3.9525,-26.4897 14.2272,-36.2072 6.143,-5.8098 10.737,-8.408 19.2338,-10.8781 12.7599,-3.7094 27.4684,1.284 39.612,13.4478 10.8408,10.8588 15.107,22.9378 12.9252,36.5953 -1.7875,11.1894 -4.0995,16.1107 -26.3025,55.9886 -22.8601,41.0581 -27.4393,51.4875 -29.1977,66.5 -2.6048,22.2388 12.8987,43.9839 36.7252,51.5107 21.5751,6.8156 35.7315,-0.6351 41.357,-21.7666 2.5323,-9.512 1.8177,-23.8235 -2.1727,-43.5156 -4.3824,-21.6268 -4.3338,-28.5219 0.27,-38.34 5.3299,-11.3665 16.2502,-19.9118 25.3882,-19.8665 12.5904,0.062 25.8981,13.4866 25.9245,26.1517 0.022,10.4367 -1.8771,15.1244 -19.1719,47.3263 -9.9932,18.6067 -11.8183,23.4521 -11.8183,31.3752 0,15.9935 19.5051,34.9469 42,40.812 8.763,2.2847 28.123,2.2629 37,-0.042 8.1918,-2.1267 20.2135,-7.8368 32.8556,-15.6056 20.9965,-12.9028 34.9744,-14.1032 46.4634,-3.9902 6.0768,5.349 9.3037,12.3878 15.1056,32.9504 10.4507,37.0379 22.76,52.1094 43.8627,53.7054 10.4797,0.7925 20.8716,-2.122 39.7127,-11.138 17.3021,-8.2795 21.9097,-9.8847 26.9819,-9.4001 5.2125,0.498 5.7607,3.2105 3.5553,17.5899 -4.1314,26.9372 -0.7778,35.8246 17.4628,46.2787 32.769,18.7807 61.7531,45.4595 82.0249,75.5009 12.4475,18.4465 30.7739,26.0527 50.4335,20.932 9.4968,-2.4736 16.1681,-6.7197 31.5451,-20.0779 27.0584,-23.5058 34.0204,-27.6303 47.6515,-28.2297 7.1902,-0.3162 8.8793,-0.034 14.2769,2.3887 10.6622,4.785 14.6884,11.575 13.8403,23.3416 -1.03,14.2894 -9.6504,23.8237 -24.3571,26.9393 -2.7967,0.5925 -14.0467,1.3684 -25,1.7242 -10.9533,0.3559 -22.7316,1.271 -26.174,2.0337 -15.4271,3.4179 -34.1221,17.2331 -39.5058,29.1941 -2.8473,6.3257 -3.513,21.3938 -1.2907,29.2172 0.8593,3.025 4.9057,18.325 8.9921,34 15.7326,60.3486 31.1767,104.3775 49.2157,140.3063 14.9772,29.8305 30.6817,39.7734 58.0079,36.7263 5.0591,-0.5641 21.0022,-3.738 35.4291,-7.0531 34.3607,-7.8957 43.2068,-9.3048 54.4106,-8.6672 14.3934,0.8191 23.934,5.093 33.0518,14.8061 7.0244,7.4831 9.8289,13.6799 9.8899,21.8532 0.096,12.9079 -9.7831,27.0175 -23.3689,33.3751 -5.6972,2.6661 -7.6598,3.0659 -15.0618,3.0686 -11.1029,0 -16.3978,-1.6646 -38.511,-12.1362 -42.4002,-20.0784 -66.8656,-26.3487 -91.759,-23.5172 -45.0339,5.1225 -63.5502,23.8517 -56.2501,56.8971 0.9527,4.3126 5.0147,16.2598 9.0267,26.5493 15.8769,40.7194 15.0889,43.8933 -17.6247,70.9915 -13.181,10.9186 -17.7389,16.0378 -21.4011,24.0372 -9.7696,21.3396 -1.5667,44.2287 20.8574,58.1998 3.9329,2.4504 16.0356,8.0355 26.8948,12.4113 25.8348,10.4104 31.9998,14.9161 34.8395,25.4622 2.046,7.5982 -1.8548,18.3073 -9.7636,26.8043 -5.9452,6.3874 -11.0374,8.8345 -18.4442,8.8634 -11.4269,0.045 -17.737,-3.7993 -36.8757,-22.4634 -16.0928,-15.6939 -19.6616,-18.5253 -28.6528,-22.7331 -5.6117,-2.6263 -8.1102,-3.2112 -13.8472,-3.2418 -12.4641,-0.067 -21.1263,6.6079 -28.5003,21.9603 -9.8449,20.4967 -14.9386,40.9649 -15.698,63.0791 -0.8284,24.1251 1.6484,34.6138 14.0026,59.2987 l 7.1957,14.3777 v 9.6741 c 0,9.2088 -0.1853,10.049 -3.8517,17.4674 -4.614,9.3358 -13.7878,19.1172 -21.1483,22.5487 -17.5961,8.2036 -40.8554,-1.4704 -49.1576,-20.4457 -1.4328,-3.2748 -1.7126,-6.534 -1.5435,-17.9768 0.225,-15.2282 -0.5945,-19.4738 -4.5845,-23.7501 -5.1492,-5.5187 -13.5822,-6.0047 -30.3635,-1.7499 -14.6009,3.7019 -19.754,7.9367 -35.8229,29.4394 -17.1351,22.9292 -32.0168,37.0693 -50.528,48.0096 -14.0853,8.3246 -26.7779,13.0678 -44.2551,16.5378 -15.3963,3.0569 -21.1612,5.0454 -24.9288,8.5987 -7.678,7.2413 -3.1755,16.1318 20.7775,41.0263 15.4696,16.0777 19.4287,22.8932 19.3694,33.344 -0.045,7.9395 -2.5044,13.178 -9.1978,19.5914 -13.5423,12.9758 -27.8744,12.5747 -42.2988,-1.1839 -11.1949,-10.6781 -14.6422,-18.5973 -17.8898,-41.096 -1.12,-7.7594 -2.9696,-16.6023 -4.1102,-19.6509 -2.8883,-7.7195 -9.4158,-14.6518 -17.1659,-18.2304 -5.8949,-2.7219 -7.1066,-2.9092 -18.8215,-2.9092 -12.087,0 -12.7483,0.1119 -19.0757,3.2269 -9.629,4.7403 -16.817,12.7414 -22.9117,25.5033 -6.5008,13.6123 -8.9756,24.1706 -8.9846,38.3315 -0.012,18.5125 3.0492,27.5083 18.0405,53.0191 11.6697,19.8585 15.6248,28.471 17.1445,37.3335 2.1713,12.6618 -2.0042,24.7778 -12.0642,35.0068 -8.0492,8.1845 -15.4692,11.5911 -25.1278,11.5365 -6.4381,-0.037 -8.4519,-0.5142 -14.2235,-3.3742 -8.2463,-4.0865 -15.6692,-11.0336 -19.4382,-18.1923 -2.5952,-4.9294 -2.8383,-6.2903 -2.8383,-15.8911 0,-9.9412 0.2539,-11.233 4.7703,-24.2727 10.4847,-30.2709 14.1179,-51.2059 14.1835,-81.7273 0.083,-38.8219 -5.5308,-60.0318 -19.6314,-74.1646 -10.2344,-10.2578 -27.0113,-16.1856 -45.8224,-16.1905 -12.0341,0 -16.1236,1.3945 -22.9878,7.856 -18.2851,17.2125 -32.6176,24.2256 -53.2574,26.0594 -9.605,0.8534 -17.7273,-0.736 -31.4169,-6.1477 -16.8742,-6.6707 -18.2678,-6.3995 -32.9866,6.4199 -9.3272,8.1236 -13.9219,14.6418 -22.4746,31.8838 -8.7085,17.5562 -15.096,22.4409 -27.2384,20.8301 -11.554,-1.5327 -19.2936,-8.7519 -21.6736,-20.2164 -2.9124,-14.029 4.1784,-25.5354 20.5126,-33.2864 27.2633,-12.9372 31.3591,-15.1651 36.6839,-19.9539 8.6041,-7.7381 11.5945,-15.5236 8.5437,-22.2439 -3.4381,-7.5735 -18.3625,-22.3974 -27.2164,-27.0331 -9.0809,-4.7546 -17.7943,-6.2741 -31.4552,-5.4853 -19.6843,1.1366 -35.5041,5.1409 -46.0333,11.652 -15.2208,9.4122 -20.0465,2.7921 -23.9003,-32.7873 -0.7045,-6.5045 -1.6709,-10.3802 -3.2085,-12.8681 -3.9224,-6.3466 -14.5151,-9.1793 -22.246,-5.9491 -5.3036,2.216 -10.4421,7.3676 -19.6527,19.7028 -13.2842,17.7907 -18.2504,27.1209 -33.4921,62.9223 -6.9921,16.424 -11.4348,23.356 -17.4436,27.2175 -4.0021,2.572 -5.2905,2.8851 -10.5847,2.5722 -7.2044,-0.4257 -13.2396,-3.2763 -19.217,-9.0768 -8.9792,-8.7135 -9.7089,-20.4027 -2.2174,-35.5212 6.2624,-12.638 15.5525,-21.4937 38.9623,-37.1405 36.4293,-24.3489 48.9377,-35.0205 54.564,-46.5512 2.6128,-5.3547 2.9269,-7.0217 2.9206,-15.5 -0.01,-7.8158 -0.424,-10.4267 -2.3591,-14.727 -4.7572,-10.5722 -13.2178,-15.6036 -31.4014,-18.6741 -17.8799,-3.0192 -30.1364,-8.8979 -39.1008,-18.7542 -10.5899,-11.6436 -14.7026,-21.5256 -22.4092,-53.8447 -6.6511,-27.8922 -16.9959,-51.7017 -33.107,-76.1986 -18.371,-27.9332 -34.1525,-44.734 -48.8927,-52.0508 -7.225,-3.5864 -9.3489,-4.1687 -16.5914,-4.5488 -16.8815,-0.8861 -31.326,6.2464 -53.9479,26.6386 -9.1471,8.2457 -14.5894,11.1681 -20.7408,11.1376 -8.3229,-0.041 -18.5654,-6.7566 -22.0693,-14.4694 -4.0153,-8.8385 -1.2365,-22.8722 5.8786,-29.6892 7.3402,-7.0327 12.8446,-8.4891 36.9667,-9.7809 27.4467,-1.4699 39.0178,-5.6483 43.4615,-15.694 3.4684,-7.8409 0.7534,-14.9095 -12.5788,-32.7485 -23.5882,-31.5621 -29.6087,-46.7968 -25.5146,-64.5638 1.4893,-6.4628 7.7948,-19.423 14.5215,-29.8471 5.0614,-7.8433 6.5059,-9.3578 10.8421,-11.367 19.733,-9.1435 36.5601,-26.1735 44.0327,-44.5635 11.2285,-27.6337 4.9705,-65.0236 -15.9715,-95.4251 l -5.6136,-8.1492 1.5567,-10.5901 c 4.0295,-27.4135 12.6509,-47.9789 28.605,-68.2336 7.846,-9.961 16.2407,-17.8019 30.3434,-28.3418 12.7499,-9.5289 24.8841,-19.9514 37.0835,-31.8524 11.2133,-10.9391 14.8982,-18.375 14.9276,-30.1231 0.045,-18.0546 -8.2047,-30.5196 -23.9058,-36.1197 -4.357,-1.554 -10.3366,-1.8696 -46.5,-2.4545 -52.8114,-0.8541 -57.1548,-1.7074 -74.5,-14.6353 -15.4661,-11.5274 -22.3699,-21.7786 -23.2855,-34.5761 -0.4894,-6.8399 -0.747,-7.4536 -5.6137,-13.3756 -4.6757,-5.6894 -9.6603,-13.3337 -28.4412,-43.6161 -13.3582,-21.5389 -22.282,-31.6277 -37.7181,-42.6424 -16.5706,-11.8244 -33.1663,-17.9689 -45.2968,-16.7712 -2.9454,0.2909 -5.5455,0.719 -5.778,0.9515 -0.2324,0.2325 0.075,1.7226 0.6838,3.3114 6.1721,16.113 8.5286,38.1935 5.5196,51.7182 -2.4497,11.011 -7.44,20.2578 -15.7142,29.1177 -16.2248,17.3734 -37.8895,27.515 -88.8559,41.595 -22.5336,6.2251 -30.9191,9.6253 -40.2987,16.3409 -26.2448,18.7905 -28.0521,49.5174 -5.103,86.7586 27.4354,44.5216 33.0415,59.6496 34.1057,92.0336 0.7705,23.4486 -1.6586,38.1961 -9.1897,55.7913 -10.0033,23.3711 -32.8421,47.6317 -51.0143,54.1899 -8.5642,3.0907 -21.4423,3.0896 -31.5,0 -4.125,-1.2683 -15.375,-6.4118 -25,-11.4298 -9.625,-5.018 -19.75,-10.217 -22.5,-11.5533 -2.75,-1.3363 -10.7936,-5.7832 -17.8746,-9.8821 -44.4713,-25.7422 -70.0391,-27.1766 -91.7637,-5.1482 -13.1704,13.3547 -17.9385,29.1556 -13.0204,43.1485 4.5244,12.8728 18.8737,28.1305 32.6491,34.7159 16.9902,8.1223 33.7921,8.9324 61.5096,2.9656 51.2152,-11.0253 72.2491,-11.6975 95.9021,-3.0653 25.9564,9.473 37.278,28.7657 32.8196,55.9267 -5.1399,31.3124 -24.527,58.8581 -50.0473,71.1083 -11.606,5.5711 -18.3247,7.1419 -33.1744,7.7558 -22.6782,0.9376 -36.2533,-2.7768 -68.4725,-18.7355 -19.6428,-9.7295 -31.0339,-15.9103 -82.5275,-44.7797 -27.5993,-15.4733 -54.432,-28.7445 -64.8935,-32.0956 -21.37183,-6.846 -41.54183,-5.6822 -59.66113,3.4426 -18.9646,9.5504 -37.304,30.9196 -44.6037,51.9725 -2.4456,7.0533 -2.7779,9.4793 -2.8078,20.5 -0.038,14.0376 1.6597,20.8926 8.1559,32.9298 15.6578,29.0134 42.2191,44.0185 77.9878,44.0571 20.52393,0.022 40.59073,-3.534 76.76843,-13.6045 36.9508,-10.2857 39.7155,-10.7528 64.054,-10.8224 16.9624,-0.048 22.6343,0.2989 29.5,1.8066 25.8828,5.6839 48.1083,17.8839 67.4614,37.0309 28.252,27.9511 38.6474,57.7658 33.0617,94.8225 -2.6623,17.6619 -6.7428,31.2099 -17.7594,58.9642 l -6.2637,15.7802 -8.3481,3.517 c -11.5149,4.8512 -24.5136,8.4962 -53.1519,14.9044 -35.9543,8.0453 -45.2691,11.2487 -52.9893,18.2235 -9.2777,8.3819 -7.1521,18.9002 7.1037,35.1521 3.251,3.7062 7.989,9.1196 10.5288,12.0298 11.0204,12.6273 41.7203,21.6059 67.3568,19.6995 7.8146,-0.5811 11.0967,-1.3868 18.5,-4.5415 11.3565,-4.8393 25.4363,-8.5077 40.3604,-10.5159 13.66,-1.838 48.8811,-2.0686 74.1396,-0.4854 9.075,0.5688 20.5192,1.0382 25.4316,1.0432 8.7581,0.01 9.2338,0.137 24.5,6.6066 32.2216,13.6552 39.8619,21.1897 47.0739,46.4216 4.0171,14.0543 3.9707,17.9754 -0.2555,21.5582 -1.7875,1.5154 -12.925,7.4363 -24.75,13.1575 -38.0037,18.3872 -51.5833,27.2716 -64.1048,41.9404 -12.7125,14.8927 -18.8258,33.3749 -14.4799,43.7762 2.6175,6.2644 7.1928,7.0637 14.9686,2.6149 15.5485,-8.896 55.0126,-14.4292 103.5474,-14.5181 l 26.4313,-0.048 4.3521,6.4883 c 8.2353,12.2774 10.284,25.8767 6.2654,41.5893 -1.1109,4.3437 -6.0108,17.8032 -10.8886,29.91 -24.3398,60.4111 -29.3746,93.5839 -18.9741,125.0124 1.6381,4.95 6.9712,16.4554 11.8513,25.5675 17.3165,32.3334 23.0313,47.8589 23.0313,62.5693 0,22.6066 -11.8172,36.6088 -65.2086,77.2656 -23.1649,17.6398 -31.3521,25.162 -37.674,34.6139 -6.9943,10.4574 -9.2649,17.0396 -9.8697,28.6106 -1.8612,35.6059 22.9336,63.6124 65.5802,74.0752 10.2475,2.5141 25.0145,2.9113 33.1721,0.8923 13.8056,-3.4168 25.8687,-11.0202 38.693,-24.3883 17.179,-17.9075 29.542,-37.6829 34.2236,-54.743 4.8944,-17.8352 5.2628,-23.5712 6.0993,-94.9631 0.8249,-70.3999 1.0001,-73.1558 5.4978,-86.5 8.2505,-24.4784 31.7987,-39.4719 62.0262,-39.493 15.4087,-0.011 26.4609,3.5365 39.0841,12.5442 6.4213,4.5822 29.5716,28.6122 47.1568,48.9488 5.2315,6.05 15.9264,19.55 23.7665,30 7.84,10.45 18.3138,23.5 23.2749,29 38.1654,42.3107 89.9667,69.4416 148.6778,77.8699 22.4738,3.2262 21.0743,3.344 29,-2.4419 26.3506,-19.2363 59.266,-33.9762 89.5817,-40.1156 15.4637,-3.1317 50.5481,-3.3785 63.8914,-0.4496 26.6721,5.8547 48.2215,17.2343 67.2835,35.5305 14.8052,14.2103 25.6158,29.3224 35.2879,49.3284 l 4.6869,9.6946 13.6874,8.9951 c 16.0307,10.5351 35.8066,21.0853 46.2158,24.6555 36.3733,12.4756 62.2315,4.6159 116.9827,-35.5574 30.2681,-22.209 34.2609,-24.8936 41.8827,-28.1604 9.3531,-4.0089 19.9988,-4.5629 26.457,-1.3769 8.3213,4.1052 14.3582,12.4567 19.4494,26.9066 4.5652,12.9571 6.0098,23.1805 7.1265,50.4356 1.0948,26.7186 2.0474,35.3818 4.9698,45.1948 6.8213,22.9045 26.5621,36.599 51.308,35.5931 7.7172,-0.3137 9.7225,-0.8088 16.158,-3.9894 z M 2110.0125,2638.741 c -11.4198,-3.7245 -18.3611,-14.819 -16.4809,-26.3417 0.9106,-5.5799 6.1217,-15.388 9.4035,-17.6986 13.1943,-9.2896 24.5219,-9.07 33.0702,0.6414 3.8409,4.3635 7.0137,11.9535 7.0137,16.7782 0,8.4192 -7.6612,20.7078 -15.1734,24.3385 -4.8555,2.3466 -14.034,3.5212 -17.8331,2.2822 z m -523.6937,-891.9828 c -10.5657,-3.6508 -16.9157,-10.1956 -21.3769,-22.0326 -1.7378,-4.6107 -2.0405,-7.2022 -1.7063,-14.6053 0.4454,-9.8665 2.1295,-14.7353 8.5034,-24.5832 9.1711,-14.1696 33.4492,-22.1217 46.9693,-15.3843 14.546,7.2485 24.328,26.4982 21.3052,41.9256 -2.2406,11.4352 -9.8286,23.5796 -18.431,29.4982 -9.764,6.7178 -24.5359,8.8884 -35.2637,5.1816 z m 227.9752,-190.1088 c -4.8592,-1.1545 -8.0292,-3.627 -10.2621,-8.0039 -4.6553,-9.125 -0.5867,-21.6327 8.4616,-26.0129 9.86,-4.7731 16.6374,-3.1331 21.8909,5.2972 6.801,10.9138 0.9411,25.0243 -11.8654,28.5714 -2.2,0.6094 -4.225,1.0644 -4.5,1.0112 -0.275,-0.053 -1.9512,-0.4416 -3.725,-0.863 z m 506.0367,-111.9745 c -4.8588,-2.206 -9.8047,-8.4653 -11.4248,-14.4587 -2.2964,-8.4956 1.2105,-20.5841 7.7699,-26.7828 6.7196,-6.3502 18.789,-9.481 26.0281,-6.7518 4.0863,1.5406 9.1256,6.7184 11.9846,12.3138 6.2451,12.2223 0,29.2509 -13.0488,35.5665 -5.5912,2.7066 -15.4807,2.7591 -21.309,0.113 z m -625.1258,1665.4937 c 25.001,-5.2987 43.385,-20.5998 50.5203,-42.0483 2.3341,-7.0164 2.6695,-9.6598 2.7276,-21.5 0.056,-11.4766 -0.2848,-14.6241 -2.2757,-21 -3.884,-12.4389 -8.7824,-20.6481 -17.6433,-29.5685 -22.9471,-23.1011 -51.4029,-31.5011 -78.0148,-23.0294 -21.1456,6.7315 -40.6676,24.639 -46.5821,42.7296 -2.9437,9.0039 -3.1467,21.9365 -0.5003,31.8683 4.3938,16.4901 16.9465,37.3138 26.8771,44.5867 21.7021,15.8942 44.6611,22.2491 64.8912,17.9616 z m -306.288,-430.083 c 14.7574,-6.6227 20.9662,-22.8633 14.9777,-39.1778 -2.6885,-7.3242 -11.4801,-16.3015 -19.6089,-20.0229 -12.8099,-5.8646 -26.2641,-3.6894 -36.8131,5.9518 -8.6027,7.8624 -11.3815,15.3115 -9.3259,24.9999 2.2623,10.6625 8.1038,19.7987 15.8282,24.7554 11.733,7.529 23.3596,8.6915 34.942,3.4936 z m 1924.3836,-520.5504 c 19.184,-6.4324 29.006,-20.0486 28.875,-40.0289 -0.1382,-21.0686 -14.6619,-39.4024 -36.4774,-46.0465 -16.2114,-4.9373 -33.453,-0.2956 -46.0605,12.4004 -13.6529,13.7486 -15.0795,27.648 -4.9208,47.9411 5.0606,10.1091 9.1697,14.6792 17.8094,19.8075 13.5426,8.0386 28.1451,10.1611 40.7743,5.9264 z M 1179.357,1775.5976 c 8.1003,-2.5019 18.0582,-9.0789 22.3617,-14.7694 11.9859,-15.8489 8.515,-44.86 -7.0017,-58.524 -22.6981,-19.9879 -49.549,-19.8843 -69.3336,0.2674 -6.8638,6.9911 -9.6805,13.2394 -10.1696,22.5594 -0.5186,9.8799 2.1868,18.6204 9.2921,30.0203 4.7655,7.646 10.0068,12.1333 20.2638,17.3489 10.4671,5.3224 23.5812,6.4968 34.5873,3.0974 z M 1060.4112,706.30184 c 7.5996,-6.4252 13.6525,-10.3187 22.8484,-14.6972 11.3289,-5.3941 18.3344,-7.1069 31.5663,-7.7181 17.0737,-0.7886 30.4127,1.9629 48.0795,9.9177 l 6.6136,2.9779 2,-2.7072 c 15.3367,-20.7594 21.2344,-28.4887 23.812,-31.2065 1.8799,-1.9822 2.7139,-3.5913 2.1361,-4.121 -0.5215,-0.478 -18.2731,-5.0251 -39.4481,-10.1048 -39.0958,-9.3786 -45.1946,-11.2286 -48.5946,-14.7404 -1.4644,-1.5124 -10.701,-3.87 -39.9054,-10.1854 -20.9,-4.5196 -59.825,-12.9377 -86.50003,-18.707 -115.3442,-24.94667 -195.956,-39.72997 -263.7559,-48.36997 -22.6235,-2.883 -52.8388,-5.9914 -58.3884,-6.0067 l -4.6442,-0.013 2.8665,8.9138 c 3.0572,9.5066 6.3078,25.967 7.4687,37.81957 0.3896,3.9784 1.2135,7.6227 1.8309,8.0985 0.6173,0.4758 4.7224,1.5922 9.1224,2.4808 4.4,0.8887 22.4,4.5291 40,8.09 34.784,7.0374 77.8933,14.4125 102.6761,17.5656 19.3315,2.4596 54.7711,6.0317 59.8415,6.0317 2.8763,0 6.2904,1.5581 14.6176,6.6712 21.0779,12.9423 58.6167,29.9009 93.8648,42.4046 9.0066,3.195 63.89593,21.2443 66.39223,21.8319 0.2157,0.051 2.6907,-1.851 5.5,-4.2262 z M 1746.019,3702.6683 c -20.7807,-3.8644 -39.7306,-22.4542 -47.9662,-47.0548 -12.0072,-35.8665 14.5147,-82.2869 52.5757,-92.0212 9.5476,-2.4419 26.2617,-2.6605 34.9304,-0.457 8.8338,2.2456 19.3202,7.7709 24.8225,13.0791 8.7204,8.413 16.149,21.6825 19.2611,34.4059 1.7965,7.3449 1.7071,22.9718 -0.1771,30.9663 -2.0691,8.7786 -9.293,23.7076 -15.9365,32.9347 -4.4865,6.2312 -6.9763,8.5515 -13.7445,12.8092 -19.9881,12.5741 -39.1822,18.0497 -53.7654,15.3378 z m 1396.6571,-341.0334 c -9.7935,-3.8258 -19.2362,-13.3926 -25.1836,-25.5146 -9.3655,-19.0888 -5.2269,-40.771 11.1608,-58.4718 9.0116,-9.7335 17.1929,-14.0523 30.5442,-16.1239 18.8482,-2.9243 37.1174,5.8457 45.614,21.8967 10.365,19.5806 7.9155,40.0464 -7.2925,60.9298 -4.5891,6.3018 -17.7869,14.2227 -29.4315,17.664 -7.4176,2.1921 -19.2809,2.0146 -25.4114,-0.3802 z m 582.8429,-401.4823 c -25.4182,-5.5439 -50.216,-27.2916 -65.0309,-57.0323 -21.8996,-43.9629 -11.412,-93.8313 27.9708,-133 12.4122,-12.3448 21.9806,-18.6847 36.3182,-24.0643 14.3646,-5.3897 23.6559,-6.9419 41.2419,-6.8898 19.1399,0.057 28.4045,2.127 44.6087,9.9686 9.0297,4.3697 12.6351,6.8117 19.265,13.0487 13.1536,12.3739 23.8258,30.3335 29.6775,49.9423 3.2901,11.0251 4.4569,31.914 2.474,44.2911 -3.2408,20.2289 -13.8368,43.2891 -29.5012,64.2034 -4.5012,6.0097 -7.5985,8.826 -15.5875,14.1731 -18.5697,12.4287 -39.3994,21.776 -56.3101,25.269 -9.0743,1.8744 -26.7384,1.9198 -35.1264,0.09 z M 77.518996,1248.1382 c -34.4141,-7.5887 -58.394,-38.0768 -60.1839,-76.5179 -1.8507,-39.7474 15.9592,-84.9641 42.3271,-107.4624 14.7547,-12.5894 28.7866,-17.7317 48.907604,-17.923 12.0219,-0.1143 12.0692,-0.1055 19.6898,3.6603 17.2688,8.5336 33.4339,30.3322 45.2169,60.9751 2.062,5.3625 4.0975,9.75 4.5233,9.75 0.4259,0 1.3591,-0.7047 2.0739,-1.5659 4.0867,-4.9243 12.1598,-5.8073 16.8685,-1.8452 5.4373,4.5751 4.0159,6.9724 -5.5655,9.3865 -5.4543,1.3742 -10.7472,7.2384 -12.8301,14.215 -0.8719,2.9203 -2.2247,9.8096 -3.0064,15.3096 -3.6671,25.8042 -14.4034,48.7213 -31.1591,66.51 -20.6082,21.8787 -43.5791,30.6421 -66.862104,25.5079 z m 802.873874,-62.5723 c -3.3693,-1.0681 -6.578,-2.5054 -7.1304,-3.1938 -0.6904,-0.8604 -0.2458,-4.4052 1.4216,-11.3363 l 2.4261,-10.0844 11.0419,2.6151 c 12.5504,2.9724 13.4191,3.7434 12.544,11.1322 -0.7861,6.6374 -3.003,10.4909 -6.7959,11.8132 -4.2595,1.4848 -6.2874,1.3428 -13.5073,-0.946 z M 1.6154958,1095.4547 c -2.14490003,-3.0623 -2.15670003,-14.8517 -0.019,-19.3559 1.8166,-3.8281 3.7827,-4.8914 6.4275,-3.476 2.4540002,1.3133 3.1626002,3.8288 3.1278002,11.1032 -0.051,10.6852 -5.5390002,17.4351 -9.5360002,11.7287 z M 823.30647,949.99084 c -2.0421,-1.0069 -3.9991,-3.2091 -5.3718,-6.0447 -1.8352,-3.791 -2.0889,-5.6892 -1.6898,-12.6433 0.4667,-8.131 2.9806,-15.694 5.2093,-15.672 0.5856,0.01 6.4556,1.1099 13.0443,2.4537 13.4609,2.7452 14.5205,3.505 14.5205,10.4112 0,8.8032 -8.059,19.3277 -16.8068,21.9486 -4.9108,1.4713 -5.0125,1.4661 -8.9057,-0.4535 z m -280.7875,-31.4631 c -12.4742,-1.5373 -24.0729,-7.9923 -31.6731,-17.6267 l -3.717,-4.712 2.6248,-4.8228 c 3.406,-6.2578 9.9785,-12.2517 17.0901,-15.5855 5.0999,-2.3907 6.7902,-2.6549 16.6752,-2.6065 9.5424,0.047 11.924,0.4165 17.974,2.7895 11.5807,4.5426 22.1042,12.2858 29.6565,21.8214 l 2.9426,3.7153 -5.2866,3.9888 c -13.6464,10.2966 -30.3518,15.0024 -46.2865,13.0385 z M 227.019,602.42024 c -6.875,-2.2443 -12.0211,-4.252 -11.4358,-4.4616 1.3795,-0.494 16.624,3.936 22.4358,6.5198 7.2711,3.2326 2.436,2.3279 -11,-2.0582 z m 114.3264,2.1846 c -6.0349,-1.235 -9.3732,-3.2267 -14.2179,-8.4826 -6.3014,-6.83617 -9.2357,-13.99207 -9.8634,-24.05447 -1.6758,-26.8597 13.0757,-46.5468 31.8591,-42.5185 7.1621,1.536 16.9027,6.8839 26.5256,14.5633 6.8031,5.4291 8.49,7.3753 10.337,11.9262 1.214,2.9911 4.1931,8.2584 6.6202,11.7053 6.6233,9.4058 5.7974,12.9439 -4.9132,21.0474 -16.004,12.10837 -34.1678,18.30577 -46.3474,15.81337 z M 196.519,593.09277 c -0.55,-0.2033 -12.025,-1.7811 -25.5,-3.5063 -13.475,-1.7251 -28.9721,-4.0271 -34.438,-5.1154 -13.4141,-2.6709 -28.5284,-7.5994 -29.2755,-9.5463 -1.9206,-5.0052 14.1748,-19.3044 21.7293,-19.3044 3.118,0 14.3732,5.4693 32.9842,16.0281 9.075,5.1486 21.9,12.1871 28.5,15.6411 7.6443,4.0006 11.0925,6.2606 9.5,6.2265 -1.375,-0.03 -2.95,-0.2199 -3.5,-0.4233 z M 168.7885,489.60793 c -13.006,-2.244 -23.34,-14.80304 -21.268,-25.84738 1.6496,-8.79315 13.6247,-15.01014 26.4192,-13.7158 22.5218,2.2784 38.0991,11.06049 47.3293,26.68302 4.137,7.00213 4.6098,9.88985 2.0402,12.45945 -1.5144,1.51442 -3.0278,1.61855 -13.25,0.91166 -14.9868,-1.03638 -24.2312,-1.13366 -31.0402,-0.32664 -3.025,0.35853 -7.6288,0.28459 -10.2305,-0.16431 z m 2164.7305,-37.0725 c -11.3611,-1.47868 -20.4107,-5.90012 -29.3708,-14.35006 -9.8542,-9.293 -18.3723,-23.26846 -21.7259,-35.64496 -2.3311,-8.60275 -2.3851,-24.3332 -0.113,-32.92004 5.5615,-21.01848 22.2181,-42.25144 39.9698,-50.95145 11.42,-5.59689 19.1329,-7.39354 31.7399,-7.39354 26.0788,0 43.5688,10.71446 55.2477,33.84499 12.8714,25.4924 8.6455,53.81644 -12.1607,81.50686 -7.9543,10.58625 -33.0158,23.79249 -48.4581,25.5352 -2.8209,0.31834 -6.0289,0.7082 -7.1289,0.86636 -1.1,0.15816 -4.7,-0.0639 -8,-0.49336 z"
     id="path1461"
     inkscape:connector-curvature="0" />
</svg>
