<?xml version="1.0" encoding="UTF-8" standalone="no"?>
<!-- Created with Inkscape (http://www.inkscape.org/) -->

<svg
   xmlns:dc="http://purl.org/dc/elements/1.1/"
   xmlns:cc="http://creativecommons.org/ns#"
   xmlns:rdf="http://www.w3.org/1999/02/22-rdf-syntax-ns#"
   xmlns:svg="http://www.w3.org/2000/svg"
   xmlns="http://www.w3.org/2000/svg"
   xmlns:sodipodi="http://sodipodi.sourceforge.net/DTD/sodipodi-0.dtd"
   xmlns:inkscape="http://www.inkscape.org/namespaces/inkscape"
   version="1.1"
   id="svg2"
   width="804.70941"
   height="823.89954"
   viewBox="0 0 804.70941 823.89954"
   sodipodi:docname="street_art_aberdeen.svg"
   inkscape:version="0.92.5 (2060ec1f9f, 2020-04-08)">
  <metadata
     id="metadata8">
    <rdf:RDF>
      <cc:Work
         rdf:about="">
        <dc:format>image/svg+xml</dc:format>
        <dc:type
           rdf:resource="http://purl.org/dc/dcmitype/StillImage" />
        <dc:title></dc:title>
      </cc:Work>
    </rdf:RDF>
  </metadata>
  <defs
     id="defs6" />
  <sodipodi:namedview
     pagecolor="#ffffff"
     bordercolor="#666666"
     borderopacity="1"
     objecttolerance="10"
     gridtolerance="10"
     guidetolerance="10"
     inkscape:pageopacity="0"
     inkscape:pageshadow="2"
     inkscape:window-width="3840"
     inkscape:window-height="2123"
     id="namedview4"
     showgrid="false"
     fit-margin-top="0"
     fit-margin-left="0"
     fit-margin-right="0"
     fit-margin-bottom="0"
     inkscape:zoom="1.8994141"
     inkscape:cx="413.04987"
     inkscape:cy="423.47776"
     inkscape:window-x="3840"
     inkscape:window-y="1050"
     inkscape:window-maximized="1"
     inkscape:current-layer="svg2" />
  <path
     style="fill:#cc0001;fill-opacity:1"
     d="m 455.60251,822.52753 c -5.15571,-1.83737 -13.1876,-9.86994 -15.23827,-15.23955 -3.43725,-9.00031 -0.94754,-17.17363 12.4189,-40.7694 14.48829,-25.57616 17.19454,-32.18812 17.19627,-42.01429 0.002,-11.47384 -6.90709,-20.89869 -18.6007,-25.37358 -10.02334,-3.83571 -17.30473,-2.21753 -22.00905,4.89118 -3.85578,5.82648 -4.38359,17.26658 -1.48514,32.19035 2.42342,12.47793 1.79391,18.72496 -2.44721,24.28535 -3.3579,4.40244 -10.52962,7.94994 -14.21343,7.03069 -3.83856,-0.95786 -8.93885,-5.07211 -10.83625,-8.74129 -3.24451,-6.27418 -1.77954,-11.18706 10.07365,-33.7827 4.52903,-8.63367 5.51013,-11.38873 5.51966,-15.5 0.0355,-15.31176 -21.24525,-27.44343 -41.27573,-23.53036 -6.4783,1.26557 -9.92953,2.76323 -23.20039,10.06784 -6.75988,3.72081 -8.87251,4.40552 -13.67353,4.43163 -9.90506,0.0539 -12.86466,-3.71571 -19.36296,-24.66231 -4.30939,-13.89085 -8.77835,-20.98954 -15.46833,-24.57055 -3.87564,-2.07455 -5.5012,-2.34856 -11.71604,-1.97487 -6.04497,0.36347 -8.79243,1.19601 -16.92962,5.13 -10.97759,5.30722 -17.93399,6.86761 -18.93913,4.24825 -0.34335,-0.89475 -0.0596,-5.4221 0.6305,-10.06079 2.05759,-13.8302 -0.29759,-18.85583 -11.73866,-25.04865 -13.15321,-7.11956 -30.79931,-23.12362 -42.16412,-38.24058 -8.8056,-11.71281 -14.3257,-15.29657 -23.54215,-15.28403 -8.86054,0.0121 -11.93972,1.751 -30.79018,17.38854 -9.63446,7.99234 -14.61908,10.5533 -20.60044,10.58392 -5.46128,0.028 -11.73024,-3.1493 -13.68955,-6.93819 -3.76761,-7.28575 -0.24027,-16.9417 7.61282,-20.83976 3.96076,-1.96602 6.71914,-2.38102 19,-2.85854 16.38162,-0.63697 21.31665,-2.18315 29.89687,-9.36692 6.19681,-5.18826 8.46729,-10.72134 7.68623,-18.73104 -1.40942,-14.4535 -17.20358,-66.88235 -26.88457,-89.24359 C 138.67124,421.91535 132.83143,416.05332 117,416.04362 c -4.125,-0.003 -10.425,0.63678 -14,1.42069 -3.575,0.78391 -11.9,2.61794 -18.5,4.07564 -13.42985,2.96615 -23.78699,3.50125 -30.5,1.57576 -5.90104,-1.69259 -14.58068,-10.35934 -15.55015,-15.52706 -1.52583,-8.13335 3.1957,-16.86091 11.55015,-21.35 3.90331,-2.09736 5.42818,-2.35117 11.5,-1.91411 5.93969,0.42755 9.12911,1.49297 21.05612,7.03379 23.27945,10.81473 27.60557,12.01769 43.44388,12.08039 14.90808,0.059 20.61098,-1.22251 29.05362,-6.52886 9.08305,-5.70885 11.82883,-17.10524 7.20528,-29.90557 -10.38294,-28.74527 -10.66338,-30.15923 -7.14021,-36 2.43215,-4.03206 3.10591,-4.70444 11.88131,-11.85699 7.52418,-6.13273 10.39393,-9.27047 12.93503,-14.14301 4.56243,-8.74842 3.11442,-19.30648 -3.70114,-26.98665 l -3.79422,-4.27556 -10.31756,1.19948 c -5.67466,0.65972 -11.24983,1.54435 -12.38926,1.96585 -1.13943,0.4215 -3.90795,0.42755 -6.15227,0.0134 C 137.92639,275.87753 134,276.78609 134,279.13776 c 0,1.60317 -0.28408,1.70607 -1.90885,0.69138 -1.62747,-1.01637 -2.46434,-0.70437 -5.67727,2.11662 -5.13233,4.50624 -9.28364,6.05853 -16.20245,6.05853 -6.80773,0 -15.35096,-3.76524 -18.54999,-8.17551 -2.72744,-3.76012 -3.26631,-11.48731 -1.22887,-17.62149 2.33029,-7.01584 9.7219,-14.256 16.84725,-16.50207 7.11987,-2.24434 8.38673,-2.15929 11.90255,0.79907 5.46139,4.59546 13.84705,2.97093 15.8403,-3.06869 1.62009,-4.90891 7.29672,-11.05158 11.4929,-12.43645 6.51602,-2.15048 12.19983,0.73649 23.98443,12.18238 l 7,6.7988 7,0.018 c 3.85,0.01 10.6,0.29063 15,0.62388 l 8,0.60591 2.2052,-4.3619 C 212.25693,241.81885 216,231.54699 216,229.59178 c 0,-0.73562 -1.24944,-1.58738 -2.77654,-1.8928 -6.42168,-1.28433 -12.15642,-9.24839 -12.2015,-16.94469 l -0.022,-3.75 -6.25,-0.0851 -6.25,-0.085 5.5,-1.32299 c 4.05338,-0.97502 6.02007,-2.0705 7.47728,-4.16496 1.0875,-1.56308 4.74845,-5.58257 8.13543,-8.93221 l 6.15816,-6.09025 -2.82975,-5.77073 c -1.55637,-3.17391 -3.0739,-6.01489 -3.37231,-6.31329 -0.29841,-0.29841 -1.2359,1.11685 -2.08332,3.14501 -1.84515,4.41606 -5.62114,6.58174 -8.01365,4.59614 -0.87307,-0.72458 -2.2231,-2.83888 -3.00007,-4.69844 -1.71991,-4.11632 -8.09305,-7.26732 -33.74496,-16.68416 -22.05318,-8.09573 -33.29255,-11.75508 -101.72681,-33.12053 -4.125,-1.28785 -6.50686,-2.37122 -5.29302,-2.40751 3.09638,-0.0926 27.01119,6.16616 37.79302,9.89078 5.50529,1.90182 10.59139,3.02179 13.09834,2.88429 2.88779,-0.1584 4.87902,0.38928 6.7413,1.85415 1.45363,1.14343 4.33438,2.38861 6.40166,2.76708 7.62802,1.3965 28.99483,6.71026 36.64021,9.11213 12.6245,3.96612 16.41605,4.61318 29.11849,4.96928 6.66329,0.1868 14.10131,0.98328 16.72495,1.79095 l 4.72495,1.45455 2.53944,-5.54687 c 1.39669,-3.05078 2.42047,-5.62102 2.27505,-5.71166 -1.51266,-0.94277 -51.99847,-16.87097 -57.26439,-18.06682 -40.7193,-9.24708 -44.91063,-10.32826 -37.85973,-9.76621 6.6121,0.52707 7.18917,0.41513 7.80124,-1.51334 0.36353,-1.14537 2.4379,-3.55219 4.60972,-5.34847 4.33798,-3.58788 4.89021,-4.83582 2.1399,-4.83582 -0.99488,0 -2.68238,-0.66069 -3.75,-1.4682 -3.30587,-2.50043 9.68772,-1.9414 20.88273,0.89845 5.26918,1.33663 14.21438,3.16771 19.87823,4.06906 24.06993,3.8305 45.44718,7.82698 62.29791,11.6466 9.9,2.24407 18.9444,4.29372 20.09867,4.55476 2.40979,0.54499 4.73603,-3.6278 8.47592,-15.20402 2.77431,-8.58744 4.64604,-10.49665 10.29055,-10.49665 2.73235,0 5.2572,-0.69522 6.75,-1.8586 7.76577,-6.052139 16.52586,-6.775649 21.72525,-1.794319 2.43091,2.328959 3.13683,2.519839 6.13701,1.659399 1.86458,-0.53475 3.58648,-0.77593 3.82646,-0.53595 0.97425,0.97425 -0.98053,5.51955 -4.77795,11.10984 -2.8651,4.21779 -4.02183,6.96252 -4.02353,9.54719 -0.003,5.26298 1.60631,6.13064 9.86446,5.3169 6.18206,-0.60916 7.41697,-0.43217 10.56663,1.51442 l 3.56647,2.2042 6.25003,-2.05836 c 3.43752,-1.1321 9.40003,-2.75472 13.25003,-3.60582 19.65738,-4.34557 20.12673,-8.22003 3.17746,-26.229919 -8.40806,-8.93421 -12.60746,-15.47222 -12.6555,-19.70326 -0.0804,-7.08097 9.55907,-16.56572 16.83596,-16.56572 7.34941,0 17.84584,9.47243 20.20506,18.2339 0.58434,2.17007 1.66348,7.65846 2.39808,12.19643 1.90693,11.779959 4.21538,15.775009 11.04637,19.117099 4.87472,2.38499 6.39571,2.65669 12.44809,2.22364 8.7914,-0.62902 14.62597,-3.8763 18.84931,-10.49072 9.79805,-15.345339 10.85785,-34.632579 2.6797,-48.767669 -14.2524,-24.6338 -16.2847,-30.52807 -13.46827,-39.06196 1.54612,-4.68478 8.39733,-12.2893795 12.70162,-14.0983395 12.39075,-5.20746 28.17991,5.32374 28.26016,18.8492195 0.0121,2.03588 -1.74524,9.26686 -3.90514,16.06884 -6.82534,21.49435 -9.01672,38.42729 -7.13853,55.15997 1.4135,12.592789 3.37185,19.305589 7.3831,25.307589 6.28977,9.41135 16.80445,13.82793 31.19097,13.10144 l 7.21086,-0.36413 6.37132,-5.89872 c 7.76253,-7.18674 14.77637,-10.53866 24.8053,-11.8545 7.23737,-0.94957 8.04383,-0.84636 16.72277,2.14011 5.01528,1.72579 10.26237,3.1378 11.6602,3.1378 3.16772,0 11.71109,-6.63168 15.8364,-12.29281 1.6862,-2.31395 4.60805,-7.443309 6.493,-11.398559 4.23753,-8.89185 7.07733,-11.30991 13.27653,-11.30489 8.465,0.007 14.1152,5.60948 14.1152,13.99626 0,7.842089 -3.8433,12.050509 -16,17.520019 -17.32873,7.79649 -23.70768,14.5323 -20.62409,21.77781 1.96635,4.62033 10.37729,12.92687 15.68979,15.49502 8.6107,4.16254 31.7719,2.31682 41.3477,-3.295 5.022,-2.94307 7.7172,-3.14918 9.7796,-0.74785 2.201,2.5627 2.77,4.63308 4.323,15.72989 1.6663,11.90649 2.9352,13.52011 10.6321,13.52011 4.5509,0 5.2726,-0.3561 9.4658,-4.67066 8.1215,-8.35632 15.742,-21.4576 23.9747,-41.21726 4.9608,-11.9067 9.4906,-17.31208 14.5078,-17.31208 4.879,0 11.5615,3.59091 13.9391,7.49034 2.5086,4.11429 2.5084,10.9147 -5e-4,16.44158 -3.1086,6.84797 -10.23,13.48311 -25.8542,24.08869 -24.4217,16.57725 -28.5675,21.31163 -28.6161,32.67939 -0.047,11.04671 4.2405,15.13072 19.3475,18.42787 19.6094,4.27981 26.7957,12.23424 32.5888,36.07213 5.2046,21.4159 11.7235,36.05903 23.3488,52.44705 11.0526,15.58073 19.6254,23.09207 29.3019,25.674 9.1043,2.42924 19.5753,-1.95475 33.2058,-13.90251 8.0365,-7.0444 11.3328,-8.03098 17.2545,-5.16431 6.2294,3.01561 8.6584,7.03783 7.9902,13.23111 -0.6013,5.57277 -3.4745,10.08013 -7.8766,12.35652 -1.9237,0.99478 -7.5393,1.93921 -14.6711,2.46735 -13.6521,1.01101 -16.3349,1.51754 -21.2711,4.01609 -7.3682,3.72959 -7.5844,10.25787 -0.6696,20.21236 2.3544,3.38929 4.5591,6.38734 4.8994,6.66234 1.6199,1.30902 7.3998,10.66054 9.7161,15.71992 3.6379,7.94626 3.4679,15.12455 -0.5622,23.73673 -3.6485,7.79667 -8.8295,15.54335 -10.3954,15.54335 -2.1971,0 -13.9054,8.345 -17.6046,12.54742 -7.1574,8.13125 -11.0974,18.75414 -11.1427,30.04262 -0.045,11.2076 5.7241,28.1441 12.705,37.29881 l 2.5842,3.38884 -1.5288,8.62478 c -1.7672,9.97029 -6.2373,21.77446 -11.1597,29.46933 -4.3402,6.78488 -15.5953,18.08639 -22.7251,22.81891 -8.3152,5.51928 -23.4632,20.2755 -25.8275,25.15938 -4.9552,10.23625 -0.3665,23.42059 9.7015,27.87413 3.9451,1.74513 7.6649,2.07041 30.6084,2.67666 25.1657,0.66497 26.318,0.78312 31.6176,3.24178 6.8323,3.16974 15.4335,10.82673 18.1556,16.16237 4.5045,8.82964 -0.083,25.0341 -8.7927,31.05508 -4.97,3.4359 -11.8411,4.46224 -17.4597,2.60795 -4.1013,-1.35354 -7.9348,-5.09697 -15.9032,-15.5294 -16.1317,-21.12001 -20.0183,-22.31844 -40.3391,-12.43866 -11.8408,5.75686 -12.6552,6 -20.097,6 -8.6565,0 -14.5089,-1.44639 -28.834,-7.12622 -11.4762,-4.55023 -17.9313,-5.07645 -22.0951,-1.8012 -2.5386,1.99691 -2.6347,2.44417 -2.631,12.25 0,11.87117 2.1952,26.80605 4.4332,30.22162 2.0541,3.13502 2.0083,3.336 -1.024,4.48887 -3.6448,1.38576 -10.8329,-1.9732 -15.6849,-7.32947 -2.0943,-2.31198 -6.272,-9.01898 -9.2839,-14.90444 -3.0119,-5.88546 -5.8064,-10.90067 -6.2102,-11.14491 -1.3852,-0.83799 -12.4439,3.19425 -14.7803,5.38926 -1.2851,1.20726 -3.5757,5.17885 -5.0902,8.82576 -2.6755,6.44235 -2.7553,7.18472 -2.8086,26.13073 -0.051,18.28987 0.093,19.86675 2.3267,25.4098 1.981,4.91569 2.2867,7.01838 1.8173,12.5 -0.3104,3.62461 -1.2539,8.22562 -2.0967,10.22446 -1.7567,4.16626 -9.7331,11.60951 -13.43761,12.53927 -4.43332,1.11269 -6.98981,-4.17449 -11.49349,-23.77014 -2.88498,-12.55265 -3.43883,-13.28267 -12.82409,-16.90318 -10.3185,-3.98053 -18.65522,-5.25208 -26.28878,-4.00969 -19.07532,3.10459 -33.69308,25.46981 -30.56045,46.75759 0.46553,3.16354 2.09225,10.25189 3.61493,15.75189 3.44205,12.43286 4.03768,29.94626 1.19036,35 -6.28075,11.14776 -18.05435,15.9955 -29.20058,12.02324 z m 66.8086,-179.59997 c 4.07503,-4.8429 3.48814,-8.35463 -2.57758,-15.42327 -6.73558,-7.84925 -9.22159,-13.42794 -8.40573,-18.86269 1.88108,-12.53065 26.36851,-29.47386 51.57222,-35.68357 15.403,-3.795 20.5628,-8.55046 23.5206,-21.67721 1.9833,-8.80211 5.2679,-12.27653 11.6058,-12.27653 7.5089,0 9.9213,2.31742 25.2817,24.28647 9.8275,14.05566 22.2045,16.88483 27.2824,6.23628 1.3612,-2.85435 1.4135,-3.8575 0.3367,-6.45712 -1.0352,-2.49911 -3.0848,-3.94305 -10.9011,-7.67992 -5.2944,-2.53117 -10.6575,-4.99946 -11.918,-5.48508 -3.7901,-1.46018 -13.8772,-8.66446 -16.1152,-11.50967 -4.6663,-5.93224 -1.8763,-9.74819 8.3182,-11.37676 7.7328,-1.23532 10.5889,-2.44024 10.5889,-4.46722 0,-0.76046 -1.1271,-3.62668 -2.5047,-6.36937 -3.1119,-6.19566 -4.3647,-18.01344 -2.5064,-23.644 1.5072,-4.56696 9.4875,-12.53361 12.5551,-12.53361 3.7179,0 7.0031,3.58042 11.2025,12.20914 5.5609,11.42623 8.5671,13.6475 15.7761,11.65701 5.6247,-1.55306 8.2785,-8.84962 4.9481,-13.60451 -0.8411,-1.20085 -4.6133,-3.80396 -8.3826,-5.78468 -7.2037,-3.78542 -13.0881,-9.83277 -13.0881,-13.45044 0,-1.14992 0.7265,-3.7638 1.6146,-5.80864 1.9756,-4.54916 2.1651,-13.3344 0.4037,-18.71788 -0.7197,-2.2 -3.5486,-6.69294 -6.2862,-9.98432 l -4.9776,-5.98432 0.604,-6.46819 c 0.816,-8.73798 4.4133,-14.53985 11.1415,-17.96949 4.4259,-2.25607 6.4792,-2.59192 17.8834,-2.92505 13.8697,-0.40515 20.3351,0.46885 33.1166,4.47672 11.7216,3.67554 17.5654,2.06703 21.6618,-5.96246 2.4101,-4.72437 2.0244,-9.20827 -1.1793,-13.70748 -5.6001,-7.8646 -14.2184,-7.94927 -27.6446,-0.27157 -11.1044,6.34994 -15.1171,7.63134 -22.1939,7.08738 -12.3342,-0.94806 -22.144,-8.64479 -22.144,-17.37413 0,-9.6665 3.7227,-13.37698 15.4102,-15.35935 3.8006,-0.64465 8.1213,-1.79837 9.6015,-2.56383 4.3922,-2.27125 8.9883,-8.19183 8.9883,-11.57837 0,-6.50503 -5.1048,-11.91554 -11.2423,-11.91554 -3.854,0 -6.1,1.39162 -14.1656,8.77704 -7.979,7.30623 -10.2927,8.31099 -12.5938,5.46919 -0.9717,-1.20002 -2.4821,-5.34924 -3.3563,-9.22049 -0.8742,-3.87125 -2.7303,-9.44992 -4.1245,-12.39704 -3.0305,-6.40596 -12.1571,-16.60727 -19.7796,-22.10877 -7.3971,-5.33883 -9.796,-9.06839 -10.4464,-16.24154 -0.6673,-7.35922 0.4274,-8.41139 8.9784,-8.62922 9.3956,-0.23934 14.3259,-4.21688 15.43,-12.44832 0.7099,-5.29279 -1.7261,-9.62732 -7.4509,-13.25785 -5.674,-3.59834 -9.7434,-3.73909 -16.0323,-0.55452 -11.7128,5.93114 -21.7015,6.95744 -34.6657,3.56178 C 561.60851,255.30267 557,251.81648 557,244.92133 c 0,-4.29359 2.82916,-8.81195 10.99292,-17.55639 3.1644,-3.38958 5.9765,-7.42051 6.2784,-8.99975 0.7835,-4.0984 -1.4929,-8.71667 -5.5246,-11.20843 -7.37505,-4.55802 -12.01222,-1.90264 -16.75833,9.59631 -4.33711,10.50803 -6.56196,13.92977 -11.27908,17.34684 -7.8239,5.6676 -15.87807,3.37183 -24.05931,-6.85791 -2.8325,-3.54172 -6.78612,-7.27702 -8.78581,-8.30067 -3.54821,-1.81633 -3.78917,-1.81579 -10,0.0225 -3.50031,1.03604 -8.94045,2.81897 -12.08921,3.96207 -15.61164,5.66751 -23.61218,-0.90544 -24.58114,-20.19495 -0.52973,-10.54546 0.39063,-14.3455 7.19974,-29.72666 6.02229,-13.6038 6.54987,-18.52631 2.60642,-24.3187 -2.68387,-3.94225 -7.29635,-6.6813 -11.25109,-6.6813 -3.83132,0 -10.22959,5.24483 -12.09955,9.91831 -2.19186,5.47801 -2.07053,8.4012 0.93729,22.58169 1.39992,6.6 2.79598,13.88439 3.10234,16.18753 1.78269,13.40156 -4.14948,18.89436 -31.68027,29.33386 l -9.49127,3.59903 0.31181,3.61925 c 0.22553,2.61765 -0.26119,4.19226 -1.75872,5.68979 -1.88866,1.88866 -3.25124,2.07054 -15.51152,2.07054 -8.09709,0 -13.69275,-0.40736 -14.07422,-1.0246 -0.38447,-0.62207 -2.54746,-0.77066 -5.50578,-0.37823 -6.48357,0.86008 -9.28001,0.0291 -13.87612,-4.12317 -3.23922,-2.92644 -4.34341,-3.3759 -6.99219,-2.84614 -3.1208,0.62416 -3.1405,0.66687 -2.5078,5.43637 0.86104,6.49082 -2.01665,12.43267 -8.09687,16.7184 -3.51105,2.47482 -4.50604,3.79401 -4.50604,5.97426 0,4.40613 -2.50477,6.95723 -8.55893,8.71722 -5.36856,1.56068 -5.7158,1.88242 -11.13613,10.3184 -3.07713,4.78912 -6.18543,9.19311 -6.90733,9.78664 -0.72191,0.59353 -1.78652,3.19405 -2.3658,5.77893 -1.24247,5.54414 -0.531,7.28039 6.40674,15.63483 2.5088,3.0211 4.56145,5.81454 4.56145,6.20765 0,0.39311 3.04886,1.62274 6.77524,2.7325 7.68825,2.28966 8.41728,2.78789 13.54177,9.25458 2.04308,2.57821 4.611,4.97212 5.70648,5.31982 1.1937,0.37886 4.24093,-0.39753 7.60499,-1.93765 6.77369,-3.1011 8.36448,-3.15414 15.96497,-0.53233 3.2486,1.12062 7.03155,1.90812 8.40655,1.75 2.38077,-0.27377 2.5,-0.59748 2.5,-6.78748 0,-3.575 -0.36782,-7.5125 -0.81739,-8.75 -0.60546,-1.66663 -0.44596,-2.25 0.61514,-2.25 2.46036,0 6.25532,3.68248 8.16949,7.92734 1.36778,3.03321 2.41758,4.07266 4.11321,4.07266 6.68419,0 8.68662,-9.34159 5.81499,-27.12775 -0.49318,-3.05466 -0.12248,-4.1462 2.34664,-6.90962 1.6128,-1.80503 3.42505,-2.97737 4.02724,-2.6052 0.60218,0.37217 1.65842,3.19485 2.3472,6.27261 1.48299,6.62673 2.62102,7.95293 8.08771,9.42495 8.22582,2.21499 15.42221,-1.73843 17.83724,-9.79908 1.03262,-3.44656 0.96651,-5.19212 -0.40315,-10.64477 -2.45803,-9.78545 -2.18749,-13.71081 1.1664,-16.92405 3.79039,-3.63143 7.98006,-3.56495 11.5714,0.1836 4.11399,4.29409 3.68039,7.3626 -2.72886,19.31138 -6.22982,11.61427 -6.99255,15.83796 -3.63162,20.11068 2.62585,3.33823 8.14395,5.22739 10.92358,3.73978 2.76279,-1.4786 3.44154,-4.87494 2.67181,-13.36922 -0.51455,-5.67828 -0.3224,-7.63037 0.9266,-9.41358 2.87818,-4.10917 9.48609,-1.95997 9.44425,3.0717 -0.01,1.19821 -1.35996,4.61297 -3,7.58834 -3.79694,6.88847 -3.80337,9.92901 -0.0286,13.54544 4.63911,4.44455 11.02507,4.6396 18.83444,0.57526 8.69445,-4.52497 10.77703,-3.42962 14.20177,7.46953 2.65416,8.44679 8.06787,10.5781 16.51054,6.5 5.95055,-2.87432 6.8439,-2.64667 6.05778,1.54371 -0.98403,5.24534 -3e-5,7.05583 5.99903,11.03778 2.98598,1.98198 8.41239,6.93696 12.05869,11.01106 5.98748,6.68995 6.98934,7.40745 10.34318,7.40745 2.95891,0 4.97959,-1.01606 9.94367,-5 3.42656,-2.75 7.2393,-5 8.47275,-5 3.63679,0 5.83889,2.22851 5.46069,5.52614 -0.4278,3.72992 -3.6968,5.43964 -10.43791,5.45912 -5.97352,0.0173 -11.33469,3.05027 -12.81079,7.24753 -1.63927,4.66124 7.21433,33.40522 13.41166,43.54214 3.23286,5.28794 5.89494,5.77434 18.08404,3.30416 5.8205,-1.17956 11.4455,-1.83785 12.5,-1.46286 7.9231,2.81761 8.676,12.49418 1.0829,13.91866 -2.4827,0.46576 -5.6661,-0.30119 -12.7378,-3.06881 -8.2952,-3.24647 -10.1787,-3.63008 -15.67764,-3.19309 -11.42103,0.90762 -13.93805,4.70886 -10.39739,15.70226 3.03548,9.42486 2.8724,10.29415 -2.83392,15.10579 -9.20436,7.76124 -7.85828,13.66601 4.54083,19.91896 7.47137,3.76785 8.60542,5.57275 5.99997,9.54917 -2.37237,3.62069 -5.85644,3.1403 -10.89262,-1.50189 -8.33903,-7.68665 -12.67786,-7.16207 -16.3864,1.98118 -2.96132,7.30102 -2.88717,13.59096 0.24805,21.03991 2.40204,5.70699 2.44975,6.17465 0.95181,9.33131 -1.48655,3.13267 -4.95939,5.60032 -7.88161,5.60032 -0.71881,0 -2.49763,-1.10351 -3.95295,-2.45225 C 518.65054,507.70269 518,506.13473 518,503.17448 c 0,-5.28877 -1.71568,-6.59311 -6.85278,-5.20983 -3.04265,0.8193 -4.87511,2.26326 -7.62341,6.00721 -4.88976,6.66118 -10.65725,10.68967 -18.75812,13.10221 -4.24428,1.264 -6.76569,2.5457 -6.76569,3.43919 0,0.78335 2.025,3.70431 4.5,6.49103 4.86929,5.48256 5.3627,7.32331 2.90394,10.83369 C 481.62299,543.23603 473,537.3082 473,529.31095 c 0,-4.3311 -3.74249,-8.30666 -7.81969,-8.30666 -5.70858,0 -11.18031,7.06596 -11.18031,14.43779 0,1.75644 1.80246,6.73928 4.00547,11.07297 4.26139,8.38288 4.35401,10.25278 0.70528,14.23924 -2.60503,2.84616 -6.4146,2.87684 -9.3963,0.0757 -2.75568,-2.58883 -2.94949,-6.25963 -0.70357,-13.32569 2.23613,-7.03528 2.22423,-20.94085 -0.022,-25.67273 -3.11696,-6.56618 -11.98513,-8.86558 -17.26216,-4.47584 -5.78904,4.81565 -11.33828,5.96732 -16.78822,3.48416 -3.62514,-1.65172 -6.74091,0.28296 -9.94932,6.17787 -2.7453,5.04403 -4.6832,6.40887 -7.72774,5.44256 -2.23573,-0.70959 -3.54163,-5.1426 -2.16839,-7.3608 0.54316,-0.87737 2.74693,-2.42941 4.89725,-3.44898 8.21216,-3.89375 9.56405,-7.65568 4.33296,-12.05735 -3.63824,-3.06137 -10.74746,-3.52484 -16.59442,-1.08183 -4.46866,1.86712 -6.32884,0.67437 -6.32884,-4.05809 0,-3.40184 -2.11799,-6.44898 -4.48253,-6.44898 -2.19676,0 -6.55852,5.97206 -10.70665,14.65936 -2.14282,4.48765 -4.61527,8.43536 -5.49433,8.77269 C 357.69387,522.44273 354,519.33147 354,516.1161 c 0,-3.92284 2.86526,-7.20767 11.48438,-13.16606 7.94275,-5.49082 10.1921,-9.03628 8.52115,-13.43121 -0.66916,-1.76002 -2.32403,-2.82861 -6.1316,-3.95934 -7.72522,-2.29414 -9.26806,-3.68291 -11.32934,-10.19794 -3.69472,-11.67783 -4.98209,-14.72392 -8.5549,-20.24209 -1.99959,-3.08834 -5.30594,-7.07767 -7.34745,-8.86517 -5.40431,-4.7319 -8.82162,-4.34618 -16.78614,1.89469 -4.45596,3.49162 -6.33131,3.58587 -8.40412,0.42237 -3.01453,-4.60076 1.38477,-8.56706 9.50234,-8.56706 2.30606,0 4.76127,-0.76987 6.1849,-1.93937 2.62518,-2.15656 2.92451,-1.15559 -3.45411,-11.5508 -1.54819,-2.52308 -2.98576,-5.47467 -3.1946,-6.55909 -0.6509,-3.37986 2.3667,-8.83476 6.57283,-11.88166 6.38508,-4.62533 8.28027,-7.6713 8.74164,-14.04967 0.3388,-4.68386 -0.0585,-6.58621 -2.29889,-11.00739 -2.15505,-4.25279 -2.57908,-6.15411 -2.07521,-9.30512 1.00302,-6.27255 5.19204,-12.25646 13.24081,-18.91417 10.27706,-8.5009 11.4294,-11.23854 6.9316,-16.46755 -2.30744,-2.68255 -2.80836,-2.80044 -13.44713,-3.16458 -10.94041,-0.37446 -11.09076,-0.41276 -15.10329,-3.84734 -2.22908,-1.90801 -4.05287,-4.2468 -4.05287,-5.1973 0,-2.96658 -10.28708,-17.43603 -14.82774,-20.85618 -2.38026,-1.79288 -5.53251,-3.25978 -7.00502,-3.25978 -2.64547,0 -2.67722,0.0822 -2.67226,6.91673 0.004,6.00019 -0.32625,7.27192 -2.49498,9.59731 -3.25034,3.48514 -7.49948,5.58731 -18.41302,9.10945 -7.22989,2.33331 -9.27026,3.44303 -10.80481,5.87651 -2.66416,4.22484 -1.83868,10.11883 2.418,17.26454 4.61284,7.74361 5.80169,11.46712 5.79006,18.13468 -0.0119,6.84508 -3.31631,14.51448 -7.92406,18.39165 -4.91943,4.13942 -8.71175,3.64549 -21.43503,-2.79181 -13.3447,-6.7517 -16.44822,-7.03308 -21.26306,-1.92786 C 222.51563,384.53965 221,387.037 221,388.12515 c 0,5.41924 6.8148,11.87914 12.53177,11.87914 1.53764,0 6.71103,-0.75056 11.49643,-1.66791 7.4476,-1.42769 9.37383,-1.47945 13.37428,-0.35939 8.64042,2.41916 11.13564,10.02061 6.10637,18.60241 -3.52911,6.02197 -8.62232,8.91804 -15.50885,8.81853 -5.8144,-0.084 -11.28716,-2.42455 -30,-12.83014 -4.675,-2.59961 -10.01746,-5.36488 -11.87212,-6.14503 -8.38796,-3.52835 -16.6654,-0.0998 -21.2252,8.79169 -2.57884,5.02866 -2.39163,9.2798 0.63621,14.44641 4.86153,8.29557 13.14832,9.98998 28.93818,5.917 16.6493,-4.29466 25.21872,-3.16963 33.89722,4.4502 5.17899,4.54721 7.62571,9.75855 7.62571,16.24222 0,5.62917 -3.25785,16.87319 -5.40522,18.65535 -0.69576,0.57743 -5.7083,2.20433 -11.13898,3.61534 -5.43068,1.41101 -10.45487,3.04759 -11.16488,3.63684 -3.07328,2.5506 0.24455,9.50066 5.94193,12.44689 3.63231,1.87834 13.7547,2.00298 17.04047,0.20982 1.45049,-0.79158 6.9354,-1.19819 15.73476,-1.16645 11.80264,0.0426 14.04179,0.32101 17.73538,2.20534 4.66359,2.37919 6.91704,5.18337 7.82879,9.74214 0.55762,2.78808 0.286,3.14438 -3.73545,4.89996 C 277.9456,515.70667 272,521.39472 272,527.57963 c 0,2.50018 0.21201,2.62719 3.25,1.94692 9.50022,-2.12729 11.88309,-2.43873 18.96482,-2.47871 6.63001,-0.0374 7.86037,0.22843 8.75,1.89071 1.66802,3.11672 1.2418,5.99483 -2.45474,16.57601 -4.64277,13.28975 -4.66629,18.63354 -0.12372,28.1123 6.87788,14.35173 6.31166,16.28208 -8.13014,27.71708 -3.98408,3.15458 -7.92158,7.04633 -8.75,8.64832 -4.06253,7.85606 0.17771,16.41773 9.69691,19.5795 6.68054,2.21892 10.94741,1.25673 16.29796,-3.67524 7.61156,-7.01609 8.8001,-10.86632 9.22751,-29.89223 0.44182,-19.66733 1.42643,-23.04463 7.4172,-25.44166 4.8223,-1.9295 8.15034,-1.97368 11.66749,-0.15489 3.21549,1.6628 10.57304,9.34124 18.40706,19.2099 3.10573,3.91235 7.36417,8.45451 9.46321,10.0937 5.5575,4.33999 14.64593,8.16327 22.48098,9.4572 5.83902,0.96429 7.10861,0.90521 8.59334,-0.39989 5.66887,-4.983 20.90747,-9.32088 28.48799,-8.1095 9.63608,1.53986 18.50757,8.03676 22.22203,16.27396 1.37516,3.04955 3.06035,4.46257 8.86501,7.43328 4.88897,2.50208 8.48571,3.6632 11.31554,3.65294 4.69378,-0.017 12.09509,-3.54155 19.81876,-9.43776 6.48339,-4.94939 9.34461,-6.01595 12.13397,-4.52313 3.14743,1.68445 4.09634,4.46998 4.92934,14.46995 1.146,13.75766 3.54981,17.36225 11.63059,17.44046 2.88449,0.0279 4.21027,-0.61721 6.25,-3.04129 z M 430.2,538.80429 c -0.66,-0.66 -1.2,-2.37 -1.2,-3.8 0,-3.1445 1.66995,-5 4.5,-5 4.41922,0 6.09784,5.244 2.67126,8.34501 -2.15945,1.95428 -4.30824,2.11801 -5.97126,0.45499 z M 321.5567,354.78178 c -5.42246,-7.74165 4.85998,-18.34148 11.18234,-11.52749 3.41867,3.68451 3.34895,7.75292 -0.19359,11.29545 -3.25624,3.25625 -8.78868,3.37307 -10.98875,0.23204 z m 48.10997,-37.44416 c -1.51322,-1.51321 -0.60076,-5.21947 1.44484,-5.86872 3.09787,-0.98323 5.44005,1.63627 3.95093,4.41873 -1.09233,2.04103 -4.01841,2.82735 -5.39577,1.44999 z M 473,293.00429 c -1.28967,-2.40978 0.0315,-5.41129 3.10611,-7.05679 3.9623,-2.12055 7.96739,4.58329 4.69389,7.85679 -1.93309,1.93309 -6.59309,1.45514 -7.8,-0.8 z M 349.28212,635.63317 c 6.46601,-2.75513 9.96849,-9.50991 8.32546,-16.05625 -0.99381,-3.95969 -6.27514,-9.28025 -11.00474,-11.0865 -5.68381,-2.17067 -10.92435,-0.81327 -15.63795,4.05054 -2.94082,3.03455 -3.45051,4.24245 -3.36979,7.98606 0.12817,5.94408 4.19553,12.02515 9.72104,14.53381 5.00663,2.27309 7.67497,2.40071 11.96598,0.57234 z m -62.96667,-89.37888 c 4.01328,-8.07469 -7.01177,-15.22168 -11.92168,-7.72822 -1.37825,2.10348 -1.43748,2.95849 -0.38151,5.50782 1.5148,3.65704 3.455,4.89984 7.71206,4.93999 2.53507,0.0239 3.5165,-0.55745 4.59113,-2.71959 z M 681.54542,439.54974 c 4.5258,-4.5258 2.742,-11.79408 -3.7138,-15.13254 -8.2904,-4.28712 -16.6389,5.70643 -11.2246,13.43639 3.2942,4.70316 11.0507,5.58385 14.9384,1.69615 z M 242.39243,362.87135 c 3.54203,-1.61386 5.61877,-6.3412 4.49977,-10.24293 -0.49071,-1.71101 -0.8922,-3.23301 -0.8922,-3.38223 0,-0.14921 -1.4625,-1.163 -3.25,-2.25286 -4.45152,-2.71414 -8.85749,-2.54553 -12.10398,0.46321 -4.52661,4.19513 -2.90605,11.70634 3.24725,15.05084 3.20771,1.74348 5.27697,1.8321 8.49916,0.36397 z m -22.6878,-220.44136 c 3.28945,-2.23229 4.59072,-2.51735 9.79441,-2.1456 3.30053,0.23578 6.90096,0.72604 8.00096,1.08945 1.56326,0.51647 2.60731,-0.20578 4.78112,-3.30747 l 2.78113,-3.96823 -4.28113,-1.09996 C 238.42651,132.39319 232.675,130.83676 228,129.53944 c -19.36286,-5.37323 -70.9967,-15.52986 -86.91272,-17.09616 -6.40516,-0.63033 -7.33358,-0.52323 -6.83045,0.78792 0.32025,0.83456 0.88684,3.54832 1.25907,6.03056 l 0.67679,4.51316 13.65366,2.5623 c 7.50951,1.40927 17.5876,3.05228 22.39575,3.65113 6.5828,0.81989 10.46399,1.96359 15.71329,4.63037 6.80767,3.45847 24.34952,10.23622 26.7502,10.33564 0.66308,0.0275 2.91264,-1.10851 4.99904,-2.52437 z m 135.7407,614.61539 c -1.13007,-0.45767 -3.49257,-2.4698 -5.25,-4.47141 C 347.56228,749.5751 347,748.10013 347,744.192 c 0,-6.19572 2.74857,-10.45497 8.74924,-13.55804 8.72767,-4.51325 18.29239,1.30336 18.42907,11.20731 0.0913,6.61324 -3.58193,11.76241 -10.43279,14.62488 -4.09156,1.70957 -5.30085,1.79396 -8.30019,0.57923 z m 284.47779,-71.96417 c -3.8619,-3.86184 -3.9585,-8.69297 -0.2618,-13.08628 3.5355,-4.20173 6.7321,-5.34592 11.0001,-3.93736 5.6228,1.85569 7.8107,8.19919 4.8216,13.97945 -3.2064,6.20067 -10.8986,7.70557 -15.5599,3.04419 z m 120.7321,-80.49762 c -5.2008,-1.90565 -8.4631,-5.11055 -11.2778,-11.0793 -4.2293,-8.96847 -2.4538,-18.35698 4.8536,-25.66438 4.9443,-4.94428 10.2101,-7.16344 16.8495,-7.1009 6.6667,0.0628 10.6715,1.92788 14.7412,6.86511 5.6853,6.89736 6.2233,15.27436 1.5763,24.54899 -4.9735,9.92657 -17.582,15.78718 -26.7428,12.43048 z M 151.25,289.97313 c -1.72387,-0.69291 -2.25,-1.71123 -2.25,-4.35483 0,-1.89774 -0.26267,-4.27474 -0.5837,-5.28222 -0.44109,-1.38423 -0.0584,-1.23498 1.56626,0.61082 1.27283,1.44609 1.94256,3.23571 1.6416,4.3866 -0.32154,1.22956 0.29724,2.61655 1.68374,3.77411 2.36177,1.9718 1.54696,2.31449 -2.0579,0.86552 z M 10.89788,252.74622 C 6.96319,250.13141 3,242.96951 3,238.4739 c 0,-4.42716 2.59238,-12.56898 5.26454,-16.5342 3.3723,-5.00415 8.27299,-7.93541 13.26698,-7.93541 3.65192,0 4.71958,0.53553 7.74593,3.88534 1.93059,2.13694 4.09368,5.499 4.80685,7.47124 1.09612,3.03127 1.65389,3.49625 3.60619,3.00625 C 39.06272,228.02272 40,228.2373 40,228.89588 c 0,0.60963 -0.6401,1.10841 -1.42245,1.10841 -1.37473,0 -2.76413,3.25544 -4.05452,9.5 -0.85215,4.1238 -5.41836,10.51285 -9.46009,13.23657 -4.35267,2.93326 -9.75615,2.93531 -14.16506,0.005 z m 167.87987,-11.29751 c -1.29788,-1.29788 0.51098,-3.44442 2.90256,-3.44442 1.80929,0 2.37748,0.46621 2.1328,1.75 -0.33197,1.74176 -3.81572,2.91406 -5.03536,1.69442 z M 45.25,234.34201 C 44.5625,234.0646 44,232.30012 44,230.42096 c 0,-6.54666 5.23212,-8.86835 14.3067,-6.34843 3.12885,0.86885 4.90954,0.69347 10,-0.98486 3.40632,-1.12307 10.3654,-2.50675 15.46464,-3.07485 5.09924,-0.56809 11.54324,-1.89615 14.32001,-2.95124 4.10618,-1.56023 6.66906,-1.81783 13.72866,-1.37994 6.77299,0.42013 9.66864,0.1617 13.17999,-1.17624 2.475,-0.94306 8.55,-2.11256 13.5,-2.59889 11.64574,-1.14417 17.57992,-2.45058 25.15469,-5.5378 5.94725,-2.4239 6.31076,-2.45546 10.78495,-0.93643 2.54664,0.8646 5.40203,1.60053 6.34531,1.6354 1.15604,0.0427 0.9002,0.38726 -0.78495,1.05705 -1.375,0.54651 -3.69443,2.29861 -5.15429,3.89354 -3.69241,4.03405 -7.05147,4.68776 -10.70822,2.08392 -3.64429,-2.59496 -4.36718,-2.60657 -6.62974,-0.10647 -1.52432,1.68436 -2.60492,1.89709 -7.00783,1.37961 -3.29062,-0.38674 -8.27639,0.0104 -13.55307,1.0796 -4.5911,0.93027 -11.73575,2.07139 -15.87699,2.53581 -6.56808,0.73658 -7.87177,1.22743 -10.20965,3.84398 -2.46489,2.75869 -2.98849,2.928 -6.52016,2.10842 -6.52877,-1.5151 -12.73852,-1.04268 -20.951,1.59387 -5.62854,1.80701 -9.765,2.47941 -14.43601,2.34665 -5.90821,-0.16792 -6.97167,0.12158 -10.90004,2.96728 -4.16012,3.01357 -9.11762,3.97815 -12.803,2.49107 z M 0,221.50429 c 0,-1.49071 0.4306,-2.35191 1,-2 0.55,0.33992 1,1.23992 1,2 0,0.76008 -0.45,1.66008 -1,2 -0.5694,0.35191 -1,-0.50929 -1,-2 z m 167.70124,-28.1321 c -1.24632,-1.24631 -0.74373,-5.41436 0.72062,-5.97629 0.78202,-0.30009 2.38976,-0.0276 3.57276,0.60551 1.95515,1.04636 2.01964,1.34915 0.70866,3.327 -1.51593,2.28706 -3.81812,3.22771 -5.00204,2.04378 z m -61.47873,-7.9246 C 105.00013,184.5914 104,183.25295 104,182.47327 c 0,-2.18649 5.41238,-4.5365 8.86007,-3.84697 3.04748,0.6095 7.13993,3.6942 7.13993,5.38176 0,2.99666 -10.05453,4.04719 -13.77749,1.43953 z M 66.5567,120.78178 c -3.0002,-4.28339 -0.91817,-12.77749 3.13197,-12.77749 2.62482,0 8.26933,4.01809 9.79847,6.97513 1.28707,2.48891 1.25817,2.93936 -0.27424,4.27496 -4.91094,4.28023 -10.27464,4.92755 -12.6562,1.5274 z M 35,120.32569 c -13.00687,-2.11356 -15.31061,-3.39731 -10.96581,-6.11068 1.76758,-1.10387 2.88161,-0.79646 8.5,2.34552 5.89098,3.29443 7.71767,4.67107 5.71581,4.30758 -0.4125,-0.0749 -1.875,-0.31899 -3.25,-0.54242 z M 31.86966,98.200441 c -1.17547,-0.82333 -1.85844,-2.2665 -1.67656,-3.54271 0.24873,-1.74529 1.08642,-2.21045 4.4198,-2.45424 3.25581,-0.23811 4.76665,0.24929 7.25,2.33889 4.7603,4.00553 4.13628,5.33171 -2.43634,5.17782 -3.0654,-0.0718 -6.466,-0.75566 -7.5569,-1.51976 z m 439.60921,-9.51728 c -7.97967,-7.97967 -4.31009,-21.51479 6.73792,-24.85263 5.02363,-1.51774 10.44446,0.55765 13.60638,5.20927 1.9069,2.8053 2.27765,4.4291 1.94858,8.5342 -0.49205,6.13831 -2.89741,9.72025 -8.33747,12.41576 -6.08998,3.01753 -9.99709,2.65172 -13.95541,-1.3066 z"
     id="path817"
     inkscape:connector-curvature="0" />
</svg>
