<?xml version="1.0" encoding="UTF-8" standalone="no"?>
<!-- Created with Inkscape (http://www.inkscape.org/) -->

<svg
   xmlns:dc="http://purl.org/dc/elements/1.1/"
   xmlns:cc="http://creativecommons.org/ns#"
   xmlns:rdf="http://www.w3.org/1999/02/22-rdf-syntax-ns#"
   xmlns:svg="http://www.w3.org/2000/svg"
   xmlns="http://www.w3.org/2000/svg"
   xmlns:sodipodi="http://sodipodi.sourceforge.net/DTD/sodipodi-0.dtd"
   xmlns:inkscape="http://www.inkscape.org/namespaces/inkscape"
   width="270.3927mm"
   height="36.779289mm"
   viewBox="0 0 958.08436 130.32031"
   id="svg2"
   version="1.1"
   inkscape:version="0.91 r13725"
   sodipodi:docname="street_art_aberdeen_wide.svg"
   inkscape:export-filename="/home/andy/street_art_aberdeen.png"
   inkscape:export-xdpi="90"
   inkscape:export-ydpi="90">
  <defs
     id="defs4" />
  <sodipodi:namedview
     id="base"
     pagecolor="#ffffff"
     bordercolor="#666666"
     borderopacity="1.0"
     inkscape:pageopacity="0.0"
     inkscape:pageshadow="2"
     inkscape:zoom="0.76"
     inkscape:cx="546.60205"
     inkscape:cy="262.51602"
     inkscape:document-units="px"
     inkscape:current-layer="layer1"
     showgrid="false"
     inkscape:window-width="1920"
     inkscape:window-height="1020"
     inkscape:window-x="0"
     inkscape:window-y="31"
     inkscape:window-maximized="1"
     fit-margin-top="0"
     fit-margin-left="0"
     fit-margin-right="0"
     fit-margin-bottom="0" />
  <metadata
     id="metadata7">
    <rdf:RDF>
      <cc:Work
         rdf:about="">
        <dc:format>image/svg+xml</dc:format>
        <dc:type
           rdf:resource="http://purl.org/dc/dcmitype/StillImage" />
        <dc:title></dc:title>
      </cc:Work>
    </rdf:RDF>
  </metadata>
  <g
     inkscape:label="Layer 1"
     inkscape:groupmode="layer"
     id="layer1"
     transform="translate(192.67903,-444.55788)">
    <path
       inkscape:connector-curvature="0"
       id="path4326"
       style="font-style:normal;font-variant:normal;font-weight:normal;font-stretch:normal;font-size:90px;line-height:125%;font-family:'Rock Salt';-inkscape-font-specification:'Rock Salt';letter-spacing:0px;word-spacing:0px;fill:#000000;fill-opacity:1;stroke:#ffffff;stroke-width:2;stroke-linecap:butt;stroke-linejoin:miter;stroke-miterlimit:4;stroke-dasharray:none;stroke-opacity:1"
       d="m -113.19269,534.76685 q 0,0.8789 -0.0879,1.31836 -0.43945,0.17578 -0.70312,0.52734 -0.26368,0.26367 -0.87891,0.17578 -0.17578,1.31836 -0.87891,2.19727 -0.70312,0.8789 -1.49414,1.58203 -0.70312,0.79101 -1.40625,1.58203 -0.70312,0.8789 -0.8789,2.19726 -1.31836,0.70313 -2.63672,1.84571 -1.23047,1.23047 -2.19727,1.66992 -0.70312,0.35156 -1.49414,0.52734 -0.79101,0.26367 -1.58203,0.61524 -2.54883,1.14258 -5.27344,2.37304 -2.63672,1.23047 -5.53711,1.23047 l -0.61523,0 q -0.35156,0.35157 -0.87891,0.43946 -0.52734,0.17578 -1.05468,0.26367 -0.52735,0.0879 -1.05469,0.26367 -0.52735,0.17578 -0.79102,0.52734 -0.96679,-0.35156 -2.10937,-0.35156 l -0.61524,0 q -1.49414,0.35156 -2.8125,0.52734 -1.31836,0.17579 -2.8125,0.17579 -2.63672,0 -5.27343,-0.35157 -2.63672,-0.35156 -5.27344,-0.61523 -1.66992,-1.31836 -2.72461,-3.33984 -1.05469,-1.9336 -1.05469,-4.13086 0,-1.66993 0.70313,-3.16407 0.70312,-1.40625 1.8457,-2.54882 l 0.26367,0 q 0.79102,0 1.58203,-0.35157 0.87891,-0.35156 1.66992,-0.35156 0.87891,0 1.40625,0.70313 0.61524,0.70312 0.87891,1.66992 0.35156,0.96679 0.43945,1.93359 0.0879,1.05469 0.0879,1.66992 0.9668,0.43946 2.02149,0.52735 1.14258,0.0879 2.28516,0.0879 1.14257,0 2.54882,-0.17578 1.40625,-0.0879 2.8125,-0.43946 1.49414,-0.26367 2.8125,-0.70312 1.40625,-0.43946 2.37305,-1.14258 4.83398,-0.43945 8.52539,-2.19727 3.69141,-1.75781 7.82227,-4.13086 0.17578,-0.96679 0.70312,-1.49414 0.61524,-0.61523 0.61524,-1.75781 0,-0.17578 -0.0879,-0.35156 0,-0.26367 0,-0.43945 -1.75782,-2.19727 -3.69141,-3.86719 -1.8457,-1.66992 -4.83399,-2.19727 -0.35156,-0.79101 -1.14257,-1.14258 -0.79102,-0.43945 -1.66993,-0.79101 -0.8789,-0.35156 -1.66992,-0.70313 -0.79101,-0.43945 -1.14258,-1.40625 -2.37304,-0.43945 -4.92187,-1.05468 -2.46094,-0.70313 -4.21875,-2.46094 -1.40625,-0.0879 -2.72461,-0.52734 -1.23047,-0.52735 -2.46094,-0.9668 -1.23047,-0.52735 -2.54883,-0.87891 -1.31835,-0.43945 -2.7246,-0.43945 -0.35157,-0.61524 -0.9668,-0.9668 -0.61524,-0.35156 -1.40625,-0.61523 -0.70313,-0.26367 -1.40625,-0.52735 -0.61524,-0.35156 -0.9668,-0.96679 -0.35156,0.0879 -0.52734,0.35156 -0.17578,0.26367 -0.61524,0.26367 l -0.35156,0 q -0.17578,-0.52734 -0.70312,-0.70312 -0.52735,-0.26368 -0.61524,-0.9668 -1.58203,-0.0879 -2.90039,-0.61523 -1.23047,-0.52735 -2.37305,-1.14258 -1.05468,-0.70313 -2.19726,-1.31836 -1.14258,-0.61524 -2.54883,-0.9668 -0.87891,-0.70312 -1.66992,-1.49414 -0.70313,-0.87891 -1.8457,-0.87891 -0.26368,0 -0.9668,0.17579 -0.17578,-1.58204 -1.31836,-2.19727 -1.14258,-0.70313 -2.46094,-1.23047 -0.8789,-2.28516 -2.37305,-4.04297 -1.49414,-1.75781 -3.25195,-3.25195 0.17578,-0.52734 0.17578,-0.79102 0,-0.8789 -0.43945,-1.49414 -0.43945,-0.70312 -0.9668,-1.14258 -1.23047,-3.95507 -1.23047,-7.73437 0,-5.27344 2.37305,-9.75586 2.28516,-4.57031 7.29492,-6.85547 0.0879,-0.70312 0.43946,-1.23047 0.43945,-0.52734 0.52734,-1.23047 0.79102,0 1.23047,-0.35156 0.43945,-0.35156 0.79101,-0.70312 0.43946,-0.43946 0.87891,-0.79102 0.43945,-0.35156 1.14258,-0.43945 3.33984,-2.90039 7.11914,-4.65821 3.7793,-1.8457 7.73437,-3.77929 0.79102,-0.35156 1.31836,-1.31836 l 0.52735,0 q 0.8789,0 1.31836,-0.35156 0.52734,-0.43946 1.49414,-0.26368 0.35156,-0.52734 0.8789,-0.70312 0.61524,-0.17578 1.14258,-0.26367 0.61524,-0.17578 1.14258,-0.43946 0.52734,-0.26367 0.70312,-0.79101 l 0.61524,0 q 1.49414,0 2.90039,-0.43945 1.40625,-0.52735 2.8125,-1.14258 l 0.61523,0 q 1.75782,0 3.25196,-0.61524 1.58203,-0.70312 3.33984,-0.96679 0.70313,-0.17579 1.40625,-0.0879 0.70313,0.0879 1.40625,0.0879 0.43945,0 1.05469,-0.0879 0.61523,-0.0879 0.8789,-0.52735 l 0.17579,0 q 0.52734,0 0.61523,0.35156 0.0879,0.35157 0.52734,0.35157 0.61524,0 1.23047,-0.17578 0.61524,-0.17579 1.23047,-0.17579 2.63672,0 5.18555,0.52735 2.63672,0.52734 5.18555,0.96679 0.17578,1.05469 0.8789,1.49415 0.79102,0.43945 1.66992,0.79101 l 0,0.35156 q 0,0.70313 0.35157,1.14258 -0.35157,1.23047 -1.23047,1.8457 -0.87891,0.61524 -1.9336,1.05469 0.43946,0.35156 0.52735,0.9668 0.0879,0.61523 0.0879,1.14258 l 0,1.05468 -0.43946,-0.0879 q -1.40625,0 -1.40625,1.31836 -1.14257,-0.70312 -2.54882,-0.8789 -1.31836,-0.17578 -2.63672,-0.17578 -1.75781,0 -3.69141,0.17578 -1.93359,0.0879 -3.7793,-0.0879 -0.70312,0.8789 -1.75781,1.31836 -1.05469,0.35156 -2.10937,0.35156 -1.14258,0 -2.19727,-0.43945 -1.05469,-0.52735 -1.49414,-1.49415 -0.43945,-0.17578 -0.79101,-0.17578 l -0.79102,0 q -1.40625,0 -2.8125,0.35157 -1.31836,0.26367 -2.72461,0.70312 -1.40625,0.35156 -2.8125,0.79102 -1.31836,0.35156 -2.72461,0.43945 -0.52734,0.70312 -1.40625,0.9668 -0.87891,0.26367 -1.40625,0.96679 -1.8457,0.35157 -3.33984,1.23047 -1.49414,0.79102 -2.90039,1.75781 l -2.72461,1.84571 q -1.31836,0.8789 -2.98828,1.49414 -1.23047,1.31836 -2.28516,2.10937 -1.05469,0.79102 -2.72461,1.40625 -1.05469,0.35157 -1.23047,1.05469 -0.0879,0.70313 -0.70312,1.40625 -0.52735,0.61524 -1.31836,0.9668 -0.70313,0.26367 -1.23047,0.96679 -0.43945,0.61524 -0.70313,1.49415 -0.17578,0.79101 -0.43945,1.58203 -0.26367,0.79101 -0.61523,1.58203 -0.35157,0.70312 -1.05469,1.23047 0,0.35156 -0.0879,0.70312 0,0.35156 0,0.61524 0,1.23046 0.26367,2.54882 0.35156,1.23047 0.43945,2.46094 1.75782,3.07617 4.13086,5.625 2.37305,2.46094 5.09766,4.57031 2.72461,2.10938 5.625,3.95508 2.98828,1.84571 5.88867,3.60352 1.05469,-0.0879 1.93359,0.26367 0.87891,0.26367 1.84571,0.35156 1.05468,0.79102 2.46093,1.23047 l 2.8125,0.87891 q 1.40625,0.43945 2.72461,1.05468 1.31836,0.52735 2.19727,1.49415 0.43945,0.0879 0.79102,0.26367 0.35156,0.0879 0.79101,0.0879 0.52734,0 0.61524,-0.35156 3.95507,1.49414 7.73437,3.33984 3.7793,1.75781 7.99805,2.72461 1.66992,1.40625 3.6914,2.46094 2.02149,1.05468 4.04297,2.19726 2.02149,1.05469 3.86719,2.37305 1.8457,1.23047 3.25195,2.98828 0.17578,1.66992 0.70313,3.25195 0.61523,1.49414 0.61523,3.25196 z" />
    <path
       inkscape:connector-curvature="0"
       id="path4328"
       style="font-style:normal;font-variant:normal;font-weight:normal;font-stretch:normal;font-size:90px;line-height:125%;font-family:'Rock Salt';-inkscape-font-specification:'Rock Salt';letter-spacing:0px;word-spacing:0px;fill:#000000;fill-opacity:1;stroke:#ffffff;stroke-width:2;stroke-linecap:butt;stroke-linejoin:miter;stroke-miterlimit:4;stroke-dasharray:none;stroke-opacity:1"
       d="m -52.772766,481.50513 q -0.351563,1.14258 -1.142578,2.10937 l -1.494141,1.84571 q -0.703125,0.8789 -1.230469,1.93359 -0.439453,0.9668 -0.263671,2.28516 -0.175782,0 -0.439454,0 -0.263671,-0.0879 -0.439453,-0.0879 -1.40625,0 -2.197265,0.70313 -0.703125,0.61523 -1.933594,1.05469 -0.175781,-0.52735 -0.439453,-0.9668 -0.263672,-0.52734 -0.791016,-0.70312 -2.109375,0.43945 -4.21875,0.70312 -2.109375,0.17578 -4.21875,0.52734 -0.966797,0.17579 -1.933594,0.52735 -0.966796,0.26367 -2.021484,0.52734 -0.527344,0.17578 -1.142578,0.17578 -0.615234,-0.0879 -1.230469,0 -2.109375,0.0879 -4.570312,0.35157 -2.460938,0.17578 -4.394532,1.31835 -0.878906,-0.17578 -1.845703,-0.26367 -0.966797,-0.0879 -1.933593,-0.0879 -2.109375,0 -4.658204,0.43946 -2.460937,0.35156 -4.394531,1.49414 -0.43945,-0.17579 -0.9668,-0.26368 -0.43945,-0.0879 -1.05468,-0.0879 -0.17579,0 -0.26368,0.0879 -0.0879,0 -0.26367,0 -0.0879,0.79102 0.17578,1.58204 0.35157,0.70312 1.14258,1.14257 -0.35156,0.9668 -0.35156,2.10938 0,1.49414 0.17578,2.98828 0.26367,1.49414 0.26367,2.98828 0,1.66992 -0.43945,2.63672 0.8789,2.63672 0.8789,5.625 0,1.05469 -0.17578,2.10937 -0.0879,0.9668 -0.0879,2.10938 0,0.9668 0.703129,1.58203 0.703125,0.52734 0.703125,1.49414 0,0.35156 -0.175781,0.70313 1.230469,-0.26368 2.373047,-0.70313 1.142578,-0.52734 2.373047,-0.52734 0.703125,0 1.318359,0.26367 0.703125,0.26367 1.230469,0.70312 -0.08789,0.43946 -0.175781,0.9668 0,0.52735 0,1.05469 0,0.9668 0,1.8457 0.08789,0.79102 0.175781,1.75781 -0.703125,1.23047 -1.669922,2.19727 -0.878906,0.9668 -1.230469,2.46094 -1.318359,0 -2.373047,0.61523 -0.966796,0.52735 -1.845703,1.23047 -0.878904,0.61524 -1.757814,1.23047 -0.8789,0.52734 -1.93359,0.52734 -1.31836,0 -1.84571,-0.35156 -0.52734,-0.43945 -0.79101,-0.87891 -0.26367,-0.43945 -0.52734,-0.79101 -0.17579,-0.35156 -0.87891,-0.26367 -0.17578,-1.14258 -0.70313,-2.10938 -0.52734,-1.05469 -1.14257,-2.02148 -0.52735,-0.9668 -1.14258,-1.9336 -0.52735,-1.05468 -0.79102,-2.10937 -0.52734,-2.28516 -0.43945,-4.74609 0.0879,-2.46094 -0.79102,-4.7461 0.17578,-1.23047 0.26368,-2.46094 0.0879,-1.31836 0.0879,-2.54882 0,-2.46094 -0.17579,-4.83399 -0.0879,-2.46094 -0.17578,-5.00976 -0.61523,-0.79102 -0.79101,-1.75782 -0.0879,-1.05468 -0.17578,-2.02148 -0.26368,-0.26367 -0.61524,-0.52734 -0.26367,-0.26368 -0.35156,-0.70313 -0.70313,-0.17578 -1.05469,-0.17578 -1.23047,0 -2.10937,0.61523 -0.79102,0.52735 -1.49414,0.52735 -0.70313,0 -1.31836,-0.17578 -0.61524,-0.17579 -1.23047,-0.17579 -0.52735,0 -0.61524,0.26368 0,0.17578 -0.35156,0.35156 -0.26367,0.17578 -1.23047,0.35156 -0.96679,0.17578 -2.19726,0.35156 -1.14258,0.0879 -2.28516,0.17579 -1.05469,0.0879 -1.40625,0.0879 -1.40625,0 -2.10937,-0.52735 -0.79102,-0.61523 -1.84571,-1.31836 0.17578,-0.52734 0.17578,-0.70312 0,-0.87891 -0.52734,-1.40625 -0.52734,-0.61524 -0.52734,-1.05469 0,-0.9668 0.79101,-1.49414 0.70313,-0.52734 0.79102,-1.66992 2.02148,-0.87891 4.13086,-1.31836 2.10937,-0.43945 4.30664,-0.70313 2.19726,-0.26367 4.30664,-0.61523 2.19726,-0.35156 4.30664,-1.14258 0.61523,0.0879 1.14258,0.17578 0.61523,0 1.23047,0 2.63672,0 5.18554,-0.52734 2.63672,-0.61524 5.36133,-0.61524 0.70313,0 1.40625,0.0879 0.70313,0.0879 1.406251,0.26368 3.515625,-0.52735 6.94336,-1.14258 3.515625,-0.61524 7.207031,-1.05469 1.757812,-0.17578 3.427734,-0.26367 1.757813,-0.17578 3.515625,-0.43945 0.615235,-0.0879 0.878906,-0.26368 0.351563,-0.26367 0.351563,-0.96679 0.791016,0.35156 1.757812,0.35156 1.494141,0 2.900391,-0.52734 1.40625,-0.52735 2.900391,-0.52735 0.351562,0 0.615234,0.0879 0.263672,0 0.527344,0 0.615234,0 0.615234,-0.52734 0.08789,-0.61524 0.878906,-0.79102 0.615235,-0.17578 1.757813,-0.26367 1.142578,-0.0879 2.373047,-0.17578 1.318359,-0.17578 2.373047,-0.35156 1.142578,-0.26367 1.669922,-0.70313 l 0.615234,-0.96679 q 1.582031,0.0879 2.285156,1.40625 0.791016,1.23046 0.878906,2.72461 0.351563,0.35156 0.966797,0.35156 0.703125,-0.0879 1.230469,-0.0879 l 0.263672,0 z" />
    <path
       inkscape:connector-curvature="0"
       id="path4330"
       style="font-style:normal;font-variant:normal;font-weight:normal;font-stretch:normal;font-size:90px;line-height:125%;font-family:'Rock Salt';-inkscape-font-specification:'Rock Salt';letter-spacing:0px;word-spacing:0px;fill:#000000;fill-opacity:1;stroke:#ffffff;stroke-width:2;stroke-linecap:butt;stroke-linejoin:miter;stroke-miterlimit:4;stroke-dasharray:none;stroke-opacity:1"
       d="m 27.422546,522.72583 q -0.175781,1.31836 -0.966796,2.02148 -0.703125,0.70313 -1.669922,1.31836 -0.439453,-0.0879 -0.878907,-0.0879 -0.351562,-0.0879 -0.791015,-0.0879 -2.72461,-0.0879 -5.185547,0.70313 -2.373047,0.79101 -4.921875,1.14258 -0.878906,0.17578 -1.669922,0.17578 -0.703125,-0.0879 -1.494141,0.0879 -2.8125,0.43945 -5.976562,0.70312 -3.164063,0.26367 -6.328125,0.70313 -3.164063,0.35156 -6.240234,0.96679 -2.988282,0.52735 -5.625,1.58204 -0.263672,-0.17579 -0.527344,-0.35157 -0.263672,-0.26367 -0.615235,-0.26367 -0.878906,0 -1.669921,0.26367 -0.791016,0.26368 -1.582032,0.17578 -0.878906,0.52735 -1.933593,0.79102 -0.966797,0.17578 -2.021485,0.35156 -0.966797,0.0879 -1.933594,0.35157 -0.966796,0.26367 -1.845703,0.96679 -0.703125,-0.35156 -1.757812,-0.35156 -0.966797,-0.0879 -1.31836,-0.70313 -2.021484,0.9668 -4.30664,1.23047 -2.197266,0.26368 -4.482422,0.17578 -1.494141,-0.0879 -3.427735,-0.43945 -1.933593,-0.35156 -3.867187,-0.9668 -1.933594,-0.70312 -3.603516,-1.58203 -1.669921,-0.96679 -2.548828,-2.28515 -0.615234,-0.87891 -0.878906,-1.9336 -0.263672,-1.05468 -1.230469,-1.58203 0.263672,-2.02148 0.615235,-3.95508 0.351562,-1.93359 0.703125,-3.95507 1.757812,-1.49414 3.339843,-3.16407 1.582032,-1.66992 2.988282,-3.51562 1.669921,-0.79102 3.076171,-1.9336 1.494141,-1.14257 2.900391,-2.28515 1.494141,-1.23047 2.900391,-2.37305 1.49414,-1.14258 3.164062,-2.02148 0.263672,-0.61524 0.703125,-0.9668 0.527344,-0.43945 1.054688,-0.79102 0.527343,-0.43945 0.966797,-0.8789 0.439453,-0.52735 0.615234,-1.23047 3.076172,-1.8457 5.361328,-4.6582 2.285156,-2.8125 2.988281,-6.32813 -1.49414,-1.23047 -3.427734,-1.58203 -1.845703,-0.43945 -3.867187,-0.61523 -1.757813,-0.0879 -3.691407,0 -1.845703,0.0879 -3.779297,-0.0879 -1.933593,0.61523 -4.042968,0.79101 -2.021485,0.17578 -4.042969,0.35156 -2.021485,0.0879 -4.042969,0.52735 -1.933594,0.35156 -3.779297,1.40625 -0.351562,0 -0.703125,-0.0879 -0.263672,-0.0879 -0.615234,-0.0879 -2.8125,-0.0879 -5.273438,1.14257 -2.460937,1.14258 -4.833984,2.28516 -0.175781,0.35156 -0.175781,0.52734 0,0.52735 0.175781,1.05469 0.263672,0.43945 0.263672,0.9668 -0.08789,0.0879 -0.08789,0.17578 0,0.0879 -0.08789,0.17578 -0.08789,0.43945 -0.263672,0.79102 -0.08789,0.35156 -0.263672,0.79101 -0.966797,2.8125 -1.054688,5.53711 -0.08789,2.28516 0,4.48242 0.08789,2.19727 0,4.48243 -0.175781,2.8125 -0.878906,5.27343 0.439453,2.10938 0.791016,4.48242 0.351562,2.28516 0.878906,4.57032 0.527344,2.28515 1.230469,4.48242 0.791015,2.10937 2.021484,4.04297 -0.08789,0.17578 0.08789,0.26367 0.175781,0.0879 0.351562,0.0879 l 0.703125,0 q 0.439453,0 0.351563,0.35156 0.175781,0.26367 0.263672,0.52735 0.08789,0.17578 0.351562,0.35156 0.175781,0.26367 0,0.70312 -0.08789,1.75782 -0.878906,3.25196 -0.791016,1.49414 -0.966797,3.25195 -1.054687,0.26367 -1.933594,0.26367 -1.49414,-0.0879 -2.636718,-0.8789 -1.142579,-0.70313 -2.109375,-1.75782 -0.966797,-1.05468 -1.845704,-2.10937 -0.878906,-1.14258 -1.933593,-1.9336 -0.615235,-2.46093 -1.230469,-5.44921 -0.527344,-2.98829 -1.845703,-5.09766 0.351562,-0.79102 0.351562,-1.93359 0.08789,-1.75782 -0.351562,-3.42774 -0.351563,-1.75781 -0.175781,-3.51562 0,-0.9668 0.175781,-1.9336 0.263672,-0.96679 0.351562,-1.93359 0.08789,-1.49414 -0.351562,-2.90039 -0.351563,-1.40625 -0.263672,-2.90039 0.08789,-0.70313 0.263672,-1.31836 0.263672,-0.70313 0.703125,-1.23047 -0.439453,-1.05469 -0.263672,-2.02148 0.08789,-1.49415 0.351562,-2.8125 0.263672,-1.31836 0.351563,-2.63672 0,-0.70313 -0.08789,-1.31836 -0.08789,-0.70313 -0.263672,-1.31836 l -0.791015,-0.26367 q -0.527344,0 -1.054688,0.26367 -0.439453,0.26367 -0.791015,0.61523 -0.351563,0.35156 -0.615235,0.61524 -0.263672,0.17578 -0.527343,0.17578 -0.175782,0 -0.439454,0 -0.175781,-0.0879 -0.351562,-0.0879 -0.175781,0 -0.703125,0.35156 -0.439453,0.35156 -1.142578,0.79102 -0.615235,0.35156 -1.230469,0.79101 -0.615234,0.35156 -0.966797,0.43945 -0.966797,-0.17578 -1.582031,-0.61523 -0.527344,-0.52734 -1.054688,-0.9668 -0.439453,-0.52734 -0.966796,-0.8789 -0.527344,-0.43946 -1.31836,-0.35157 -0.263672,-0.52734 -0.263672,-1.14257 -0.08789,-0.61524 0,-1.23047 l 0,-1.40625 q 0.615235,-1.14258 1.669922,-1.84571 0.966797,-0.79101 2.109375,-1.31836 l 2.285156,-1.05468 q 1.142579,-0.52735 2.109375,-1.31836 l 0.791016,0 q 1.582031,0.0879 2.724609,-0.61524 1.230469,-0.70312 2.285157,-1.58203 1.054687,-0.96679 2.109375,-1.93359 1.142578,-0.9668 2.460937,-1.49414 0.966797,0.43945 2.021485,0.79101 1.054687,0.26368 2.197265,0.35157 1.142578,0 2.373047,-0.35157 1.230469,-0.35156 1.933594,-1.31836 0.439453,0.17579 0.703125,0.26368 0.351562,0 0.791015,0 1.31836,0.0879 2.636719,-0.35157 1.31836,-0.52734 2.548828,-1.23047 1.757813,0.0879 3.427735,-0.17578 1.757812,-0.35156 3.427734,-0.70312 1.757812,-0.35156 3.427734,-0.61524 1.757813,-0.35156 3.515625,-0.26367 2.900391,0.0879 5.712891,-0.52734 2.8125,-0.61524 5.712891,-0.43945 2.021484,0.0879 3.955078,0.35156 2.021484,0.17578 4.042969,0.0879 1.142578,0.52734 2.021484,0.9668 0.966797,0.35156 2.373047,0.17578 2.8125,2.37304 5.097656,5.53711 l 0,1.49414 q -0.08789,2.02148 -0.703125,3.95507 -0.615234,1.9336 -1.494141,3.86719 -0.791015,1.84571 -1.757812,3.69141 -0.966797,1.75781 -1.845703,3.51562 -5.712891,5.18555 -11.425781,10.28321 -5.712891,5.09765 -11.777344,9.84375 -0.175782,0.8789 -0.527344,1.58203 -0.263672,0.70312 -0.351563,1.49414 0,0.43945 0.08789,0.70312 0.615235,0.17578 1.054688,0.70313 0.527344,0.43945 0.351563,1.23047 l 0.791015,0 q 0.439453,0 0.439453,0.35156 l 1.40625,0.0879 q 3.339844,0.17578 6.679688,-0.17578 3.339843,-0.35156 6.679687,-0.79102 3.427734,-0.43945 6.767578,-0.79101 3.339844,-0.43946 6.679688,-0.52735 0.791015,-0.26367 1.669921,-0.43945 0.878907,-0.17578 1.582032,-0.70312 l 0.263672,0 q 0.615234,0 0.878906,0.35156 0.351562,0.35156 0.966797,0.43945 0.439453,0 0.878906,-0.17578 0.527344,-0.17578 1.054687,-0.26367 1.230469,-0.35156 2.548829,-0.43945 1.40625,-0.0879 2.724609,-0.26368 5.097656,-0.43945 10.107422,-0.52734 5.009765,-0.17578 10.019531,-1.31836 0.439453,0.61523 1.230469,0.87891 0.791015,0.17578 1.669922,0.43945 0.878906,0.17578 1.582031,0.43945 0.791016,0.26367 1.054687,1.05469 z" />
    <path
       inkscape:connector-curvature="0"
       id="path4332"
       style="font-style:normal;font-variant:normal;font-weight:normal;font-stretch:normal;font-size:90px;line-height:125%;font-family:'Rock Salt';-inkscape-font-specification:'Rock Salt';letter-spacing:0px;word-spacing:0px;fill:#000000;fill-opacity:1;stroke:#ffffff;stroke-width:2;stroke-linecap:butt;stroke-linejoin:miter;stroke-miterlimit:4;stroke-dasharray:none;stroke-opacity:1"
       d="m 44.184265,482.12036 0,0.35156 q -0.615234,0.17579 -0.615234,0.87891 -0.966797,0.43945 -2.021485,0.70313 -1.054687,0.17578 -2.021484,0.61523 -0.966797,-0.0879 -2.021484,-0.0879 -0.966797,-0.0879 -1.933594,-0.0879 -2.636719,0 -5.273438,0.17578 -2.636718,0.17578 -5.273437,0 -1.230469,0.70312 -2.724609,1.14258 -1.40625,0.35156 -2.72461,0.35156 -1.054687,0 -1.845703,-0.26367 -2.109375,1.05469 -4.658203,1.75781 -2.460938,0.70313 -5.009766,1.40625 -2.548828,0.61524 -4.921875,1.49414 -2.285156,0.79102 -4.042968,2.28516 -0.175782,1.23047 -0.263672,2.46094 -0.08789,1.14257 -0.08789,2.28515 0,1.23047 0.08789,2.28516 0.175781,1.05469 0.615234,2.10937 0.439453,0.17578 0.966797,0.26367 0.615234,0.0879 1.054687,0.0879 0.439454,0 0.878907,-0.0879 0.439453,-0.17578 0.615234,-0.61523 1.318359,-0.17578 2.636719,-0.0879 1.318359,0 2.636719,0 1.318359,0 2.548828,-0.0879 1.318359,-0.0879 2.548828,-0.43945 1.40625,-0.35157 2.724609,-0.43946 1.40625,-0.0879 2.72461,-0.17578 1.318359,-0.0879 2.724609,-0.26367 1.40625,-0.26367 2.900391,-0.9668 1.142578,0.43946 2.285156,0.43946 1.230469,0 2.373047,0.17578 0.615234,0.43945 0.966797,0.96679 0.439453,0.52735 0.439453,1.23047 0,1.23047 -0.878907,2.46094 -0.878906,1.23047 -1.40625,2.28516 l -0.966796,0 q -2.109375,0 -4.13086,0.61523 -1.933594,0.52734 -3.955078,1.31836 -1.933594,0.70313 -3.955078,1.31836 -1.933594,0.52734 -4.042969,0.52734 -0.351562,0 -0.439453,0.43946 0,0.35156 -0.175781,0.52734 -0.439453,-0.0879 -1.31836,-0.0879 -2.021484,0 -3.867187,0.43945 -1.845703,0.43946 -3.779297,0.43946 -0.527344,0 -1.054687,0 -0.527344,-0.0879 -1.054688,-0.17579 -0.439453,0.70313 -1.142578,0.9668 -0.703125,0.17578 -1.318359,0.70313 -0.263672,0.79101 -0.351563,1.93359 0,1.14258 -0.08789,2.37305 0,1.14258 -0.175781,2.19726 -0.175781,1.05469 -0.703125,1.66992 0.08789,0.43946 0.703125,0.35157 0.615235,-0.17578 0.615235,0.52734 0,0.79102 -0.175782,1.66992 -0.175781,0.87891 -0.175781,1.75782 0,1.66992 0.351563,3.6914 0.439453,1.9336 1.230468,3.60352 0.878907,1.66992 2.285157,2.8125 1.40625,1.05468 3.515625,1.05468 1.40625,0 2.636718,-0.52734 1.230469,-0.52734 2.021485,-1.75781 l 0.439453,-0.0879 q 0.351562,0 0.615234,0.0879 0.351563,0.0879 0.703125,0.0879 0.527344,0 1.31836,-0.61524 0.878906,-0.70312 1.845703,-1.58203 1.054687,-0.8789 2.109375,-1.66992 1.054687,-0.8789 2.021484,-1.23047 0.615234,-1.23047 1.142578,-2.46093 0.615235,-1.23047 1.757813,-1.9336 l 0,-2.54883 q 0.878906,-0.96679 1.845703,-1.75781 1.054687,-0.79101 1.582031,-2.02148 0.439453,0.17578 0.791016,0.26367 0.439453,0.0879 0.878906,0.0879 0.439453,0 0.878906,-0.0879 0.527344,-0.0879 0.966797,-0.26367 0.703125,0.96679 1.054688,2.19726 0.439453,1.14258 1.054687,2.19727 -0.791016,1.58203 -1.845703,3.77929 -1.054688,2.19727 -2.285156,4.39454 -1.230469,2.19726 -2.636719,4.21875 -1.318359,1.93359 -2.636719,2.98828 -0.263672,0.26367 -1.142578,0.61523 -0.966797,0.70313 -1.757812,1.31836 -0.791016,0.70313 -1.494141,1.58203 -2.548828,0.79102 -4.921875,2.10938 -2.285156,1.31836 -4.570313,2.54883 -1.054687,-0.26368 -2.285156,-0.26368 -1.054687,0 -2.109375,0.0879 -1.054687,0.17579 -2.285156,0.17579 -0.351563,-0.43946 -1.054688,-0.61524 -0.615234,-0.0879 -0.439453,-0.87891 -2.988281,-0.17578 -4.833984,-1.66992 -1.845703,-1.40625 -3.164063,-3.51562 -1.230468,-2.10938 -2.021484,-4.57031 -0.791016,-2.46094 -1.669922,-4.7461 l 0,-0.26367 q 0,-0.43945 0.351563,-0.52734 0.351562,-0.0879 0.351562,-0.52735 0,-0.17578 -0.08789,-0.26367 -0.263672,-0.9668 -0.439454,-1.66992 -0.175781,-0.70313 -0.175781,-1.66992 0,-1.40625 0.175781,-2.72461 0.175782,-1.40625 0.175782,-2.8125 0,-1.40625 -0.351563,-2.46094 0.351563,-0.43945 0.615235,-1.14258 0.175781,-0.79101 0.263671,-1.58203 0.08789,-0.79102 0.08789,-1.58203 0.08789,-0.79102 0.263672,-1.40625 -0.351563,-0.9668 -0.615234,-1.66992 -0.263672,-0.79102 -0.263672,-1.84571 l 0,-0.61523 q 0.878906,-1.49414 1.49414,-3.07617 0.615235,-1.58203 1.31836,-3.25196 l 0,-0.26367 q 0,-2.54883 -0.175782,-5.09765 -0.175781,-2.54883 -0.175781,-5.09766 l 0,-1.66992 q 0,-0.87891 0.08789,-1.66992 0.703125,-0.35157 1.054687,-0.9668 0.351563,-0.61523 1.054688,-0.9668 l 2.90039,0 0.527344,-0.8789 q 0.263672,-0.43946 0.351563,-0.9668 0.966797,-0.26367 1.845703,-0.70313 0.966797,-0.52734 1.757812,-1.05468 1.230469,-0.70313 2.197266,-1.23047 1.054687,-0.61524 2.021484,-0.9668 1.054688,-0.43945 2.197266,-0.70312 1.142578,-0.26368 2.636719,-0.43946 0.703125,0 0.878906,-0.26367 0.263672,-0.26367 0.703125,-0.61523 1.054687,0.17578 2.109375,0.35156 1.054687,0.0879 2.109375,0.0879 2.109375,0 3.955078,-0.79102 2.636719,0 5.185547,-0.0879 2.636719,-0.0879 5.273437,-0.0879 2.285157,0 4.570313,0.17578 2.285156,0.17579 4.482422,0.61524 0.791015,-0.26367 1.757812,-0.26367 1.054688,0 2.109375,0.26367 1.142578,0.17578 2.197266,0 0.08789,0.9668 0.439453,1.66992 0.439453,0.61524 0.439453,1.49414 z" />
    <path
       inkscape:connector-curvature="0"
       id="path4334"
       style="font-style:normal;font-variant:normal;font-weight:normal;font-stretch:normal;font-size:90px;line-height:125%;font-family:'Rock Salt';-inkscape-font-specification:'Rock Salt';letter-spacing:0px;word-spacing:0px;fill:#000000;fill-opacity:1;stroke:#ffffff;stroke-width:2;stroke-linecap:butt;stroke-linejoin:miter;stroke-miterlimit:4;stroke-dasharray:none;stroke-opacity:1"
       d="m 87.68817,482.12036 0,0.35156 q -0.61523,0.17579 -0.61523,0.87891 -0.9668,0.43945 -2.02149,0.70313 -1.05468,0.17578 -2.02148,0.61523 -0.9668,-0.0879 -2.02149,-0.0879 -0.96679,-0.0879 -1.93359,-0.0879 -2.63672,0 -5.27344,0.17578 -2.63672,0.17578 -5.27343,0 -1.23047,0.70312 -2.72461,1.14258 -1.40625,0.35156 -2.72461,0.35156 -1.05469,0 -1.84571,-0.26367 -2.10937,1.05469 -4.6582,1.75781 -2.46094,0.70313 -5.00977,1.40625 -2.54882,0.61524 -4.92187,1.49414 -2.28516,0.79102 -4.04297,2.28516 -0.17578,1.23047 -0.26367,2.46094 -0.0879,1.14257 -0.0879,2.28515 0,1.23047 0.0879,2.28516 0.17578,1.05469 0.61523,2.10937 0.43946,0.17578 0.9668,0.26367 0.61523,0.0879 1.05469,0.0879 0.43945,0 0.8789,-0.0879 0.43946,-0.17578 0.61524,-0.61523 1.31836,-0.17578 2.63672,-0.0879 1.31836,0 2.63672,0 1.31836,0 2.54882,-0.0879 1.31836,-0.0879 2.54883,-0.43945 1.40625,-0.35157 2.72461,-0.43946 1.40625,-0.0879 2.72461,-0.17578 1.31836,-0.0879 2.72461,-0.26367 1.40625,-0.26367 2.90039,-0.9668 1.14258,0.43946 2.28516,0.43946 1.23047,0 2.37304,0.17578 0.61524,0.43945 0.9668,0.96679 0.43945,0.52735 0.43945,1.23047 0,1.23047 -0.8789,2.46094 -0.87891,1.23047 -1.40625,2.28516 l -0.9668,0 q -2.10937,0 -4.13086,0.61523 -1.93359,0.52734 -3.95508,1.31836 -1.93359,0.70313 -3.95507,1.31836 -1.9336,0.52734 -4.04297,0.52734 -0.35157,0 -0.43946,0.43946 0,0.35156 -0.17578,0.52734 -0.43945,-0.0879 -1.31836,-0.0879 -2.02148,0 -3.86718,0.43945 -1.84571,0.43946 -3.7793,0.43946 -0.52735,0 -1.05469,0 -0.52734,-0.0879 -1.05469,-0.17579 -0.43945,0.70313 -1.14257,0.9668 -0.70313,0.17578 -1.31836,0.70313 -0.26368,0.79101 -0.35157,1.93359 0,1.14258 -0.0879,2.37305 0,1.14258 -0.17578,2.19726 -0.17578,1.05469 -0.70312,1.66992 0.0879,0.43946 0.70312,0.35157 0.61524,-0.17578 0.61524,0.52734 0,0.79102 -0.17579,1.66992 -0.17578,0.87891 -0.17578,1.75782 0,1.66992 0.35157,3.6914 0.43945,1.9336 1.23046,3.60352 0.87891,1.66992 2.28516,2.8125 1.40625,1.05468 3.51563,1.05468 1.40625,0 2.63671,-0.52734 1.23047,-0.52734 2.02149,-1.75781 l 0.43945,-0.0879 q 0.35156,0 0.61524,0.0879 0.35156,0.0879 0.70312,0.0879 0.52735,0 1.31836,-0.61524 0.87891,-0.70312 1.8457,-1.58203 1.05469,-0.8789 2.10938,-1.66992 1.05469,-0.8789 2.02148,-1.23047 0.61524,-1.23047 1.14258,-2.46093 0.61524,-1.23047 1.75781,-1.9336 l 0,-2.54883 q 0.87891,-0.96679 1.84571,-1.75781 1.05468,-0.79101 1.58203,-2.02148 0.43945,0.17578 0.79101,0.26367 0.43946,0.0879 0.87891,0.0879 0.43945,0 0.87891,-0.0879 0.52734,-0.0879 0.96679,-0.26367 0.70313,0.96679 1.05469,2.19726 0.43945,1.14258 1.05469,2.19727 -0.79102,1.58203 -1.8457,3.77929 -1.05469,2.19727 -2.28516,4.39454 -1.23047,2.19726 -2.63672,4.21875 -1.31836,1.93359 -2.63672,2.98828 -0.26367,0.26367 -1.14258,0.61523 -0.96679,0.70313 -1.75781,1.31836 -0.79101,0.70313 -1.49414,1.58203 -2.54883,0.79102 -4.92187,2.10938 -2.28516,1.31836 -4.57032,2.54883 -1.05468,-0.26368 -2.28515,-0.26368 -1.05469,0 -2.10938,0.0879 -1.05469,0.17579 -2.28515,0.17579 -0.35157,-0.43946 -1.05469,-0.61524 -0.61524,-0.0879 -0.43946,-0.87891 -2.98828,-0.17578 -4.83398,-1.66992 -1.845703,-1.40625 -3.164062,-3.51562 -1.230469,-2.10938 -2.021485,-4.57031 -0.791015,-2.46094 -1.669922,-4.7461 l 0,-0.26367 q 0,-0.43945 0.351563,-0.52734 0.351562,-0.0879 0.351562,-0.52735 0,-0.17578 -0.08789,-0.26367 -0.263672,-0.9668 -0.439453,-1.66992 -0.175782,-0.70313 -0.175782,-1.66992 0,-1.40625 0.175782,-2.72461 0.175781,-1.40625 0.175781,-2.8125 0,-1.40625 -0.351563,-2.46094 0.351563,-0.43945 0.615235,-1.14258 0.175781,-0.79101 0.263672,-1.58203 0.08789,-0.79102 0.08789,-1.58203 0.08789,-0.79102 0.263672,-1.40625 -0.351562,-0.9668 -0.615234,-1.66992 -0.263672,-0.79102 -0.263672,-1.84571 l 0,-0.61523 q 0.878906,-1.49414 1.494141,-3.07617 0.615234,-1.58203 1.318359,-3.25196 l 0,-0.26367 q 0,-2.54883 -0.175781,-5.09765 -0.175782,-2.54883 -0.175782,-5.09766 l 0,-1.66992 q 0,-0.87891 0.08789,-1.66992 0.703125,-0.35157 1.054688,-0.9668 0.351562,-0.61523 1.054687,-0.9668 l 2.900391,0 0.527343,-0.8789 q 0.26367,-0.43946 0.35156,-0.9668 0.9668,-0.26367 1.84571,-0.70313 0.96679,-0.52734 1.75781,-1.05468 1.23047,-0.70313 2.19727,-1.23047 1.05468,-0.61524 2.02148,-0.9668 1.05469,-0.43945 2.19727,-0.70312 1.14257,-0.26368 2.63671,-0.43946 0.70313,0 0.87891,-0.26367 0.26367,-0.26367 0.70313,-0.61523 1.05468,0.17578 2.10937,0.35156 1.05469,0.0879 2.10938,0.0879 2.10937,0 3.95507,-0.79102 2.63672,0 5.18555,-0.0879 2.63672,-0.0879 5.27344,-0.0879 2.28515,0 4.57031,0.17578 2.28516,0.17579 4.48242,0.61524 0.79102,-0.26367 1.75781,-0.26367 1.05469,0 2.10938,0.26367 1.14258,0.17578 2.19727,0 0.0879,0.9668 0.43945,1.66992 0.43945,0.61524 0.43945,1.49414 z" />
    <path
       inkscape:connector-curvature="0"
       id="path4336"
       style="font-style:normal;font-variant:normal;font-weight:normal;font-stretch:normal;font-size:90px;line-height:125%;font-family:'Rock Salt';-inkscape-font-specification:'Rock Salt';letter-spacing:0px;word-spacing:0px;fill:#000000;fill-opacity:1;stroke:#ffffff;stroke-width:2;stroke-linecap:butt;stroke-linejoin:miter;stroke-miterlimit:4;stroke-dasharray:none;stroke-opacity:1"
       d="m 139.23114,481.50513 q -0.35156,1.14258 -1.14258,2.10937 l -1.49414,1.84571 q -0.70312,0.8789 -1.23047,1.93359 -0.43945,0.9668 -0.26367,2.28516 -0.17578,0 -0.43945,0 -0.26367,-0.0879 -0.43946,-0.0879 -1.40625,0 -2.19726,0.70313 -0.70313,0.61523 -1.93359,1.05469 -0.17579,-0.52735 -0.43946,-0.9668 -0.26367,-0.52734 -0.79101,-0.70312 -2.10938,0.43945 -4.21875,0.70312 -2.10938,0.17578 -4.21875,0.52734 -0.9668,0.17579 -1.9336,0.52735 -0.96679,0.26367 -2.02148,0.52734 -0.52735,0.17578 -1.14258,0.17578 -0.61523,-0.0879 -1.23047,0 -2.10937,0.0879 -4.57031,0.35157 -2.46094,0.17578 -4.39453,1.31835 -0.87891,-0.17578 -1.84571,-0.26367 -0.96679,-0.0879 -1.93359,-0.0879 -2.10937,0 -4.6582,0.43946 -2.46094,0.35156 -4.39453,1.49414 -0.43946,-0.17579 -0.9668,-0.26368 -0.43945,-0.0879 -1.05469,-0.0879 -0.17578,0 -0.26367,0.0879 -0.0879,0 -0.26367,0 -0.0879,0.79102 0.17578,1.58204 0.35156,0.70312 1.14258,1.14257 -0.35156,0.9668 -0.35156,2.10938 0,1.49414 0.17578,2.98828 0.26367,1.49414 0.26367,2.98828 0,1.66992 -0.43945,2.63672 0.8789,2.63672 0.8789,5.625 0,1.05469 -0.17578,2.10937 -0.0879,0.9668 -0.0879,2.10938 0,0.9668 0.70312,1.58203 0.70313,0.52734 0.70313,1.49414 0,0.35156 -0.17578,0.70313 1.23047,-0.26368 2.37305,-0.70313 1.14257,-0.52734 2.37304,-0.52734 0.70313,0 1.31836,0.26367 0.70313,0.26367 1.23047,0.70312 -0.0879,0.43946 -0.17578,0.9668 0,0.52735 0,1.05469 0,0.9668 0,1.8457 0.0879,0.79102 0.17578,1.75781 -0.70312,1.23047 -1.66992,2.19727 -0.87891,0.9668 -1.23047,2.46094 -1.31836,0 -2.37305,0.61523 -0.96679,0.52735 -1.8457,1.23047 -0.87891,0.61524 -1.75781,1.23047 -0.87891,0.52734 -1.9336,0.52734 -1.31836,0 -1.8457,-0.35156 -0.52734,-0.43945 -0.79102,-0.87891 -0.26367,-0.43945 -0.52734,-0.79101 -0.17578,-0.35156 -0.87891,-0.26367 -0.17578,-1.14258 -0.70312,-2.10938 -0.52734,-1.05469 -1.14258,-2.02148 -0.52734,-0.9668 -1.14258,-1.9336 -0.52734,-1.05468 -0.79101,-2.10937 -0.52735,-2.28516 -0.43946,-4.74609 0.0879,-2.46094 -0.79101,-4.7461 0.17578,-1.23047 0.26367,-2.46094 0.0879,-1.31836 0.0879,-2.54882 0,-2.46094 -0.17578,-4.83399 -0.0879,-2.46094 -0.17578,-5.00976 -0.61524,-0.79102 -0.79102,-1.75782 -0.0879,-1.05468 -0.17578,-2.02148 -0.26367,-0.26367 -0.61523,-0.52734 -0.26367,-0.26368 -0.35156,-0.70313 -0.70313,-0.17578 -1.05469,-0.17578 -1.23047,0 -2.10938,0.61523 -0.79101,0.52735 -1.49414,0.52735 -0.70312,0 -1.31836,-0.17578 -0.61523,-0.17579 -1.23047,-0.17579 -0.52734,0 -0.61523,0.26368 0,0.17578 -0.35156,0.35156 -0.26367,0.17578 -1.23047,0.35156 -0.9668,0.17578 -2.19727,0.35156 -1.14258,0.0879 -2.28515,0.17579 -1.05469,0.0879 -1.40625,0.0879 -1.40625,0 -2.10938,-0.52735 -0.79101,-0.61523 -1.8457,-1.31836 0.17578,-0.52734 0.17578,-0.70312 0,-0.87891 -0.52734,-1.40625 -0.52735,-0.61524 -0.52735,-1.05469 0,-0.9668 0.79102,-1.49414 0.70312,-0.52734 0.79101,-1.66992 2.02149,-0.87891 4.13086,-1.31836 2.10938,-0.43945 4.30664,-0.70313 2.19727,-0.26367 4.30664,-0.61523 2.19727,-0.35156 4.30664,-1.14258 0.61524,0.0879 1.14258,0.17578 0.61524,0 1.23047,0 2.63672,0 5.18555,-0.52734 2.63672,-0.61524 5.36133,-0.61524 0.70312,0 1.40625,0.0879 0.70312,0.0879 1.40625,0.26368 3.51562,-0.52735 6.94336,-1.14258 3.51562,-0.61524 7.20703,-1.05469 1.75781,-0.17578 3.42773,-0.26367 1.75781,-0.17578 3.51563,-0.43945 0.61523,-0.0879 0.8789,-0.26368 0.35157,-0.26367 0.35157,-0.96679 0.79101,0.35156 1.75781,0.35156 1.49414,0 2.90039,-0.52734 1.40625,-0.52735 2.90039,-0.52735 0.35156,0 0.61523,0.0879 0.26368,0 0.52735,0 0.61523,0 0.61523,-0.52734 0.0879,-0.61524 0.87891,-0.79102 0.61523,-0.17578 1.75781,-0.26367 1.14258,-0.0879 2.37305,-0.17578 1.31836,-0.17578 2.37304,-0.35156 1.14258,-0.26367 1.66993,-0.70313 l 0.61523,-0.96679 q 1.58203,0.0879 2.28516,1.40625 0.79101,1.23046 0.8789,2.72461 0.35157,0.35156 0.9668,0.35156 0.70312,-0.0879 1.23047,-0.0879 l 0.26367,0 z" />
    <path
       inkscape:connector-curvature="0"
       id="path4338"
       style="font-style:normal;font-variant:normal;font-weight:normal;font-stretch:normal;font-size:90px;line-height:125%;font-family:'Rock Salt';-inkscape-font-specification:'Rock Salt';letter-spacing:0px;word-spacing:0px;fill:#000000;fill-opacity:1;stroke:#ffffff;stroke-width:2;stroke-linecap:butt;stroke-linejoin:miter;stroke-miterlimit:4;stroke-dasharray:none;stroke-opacity:1"
       d="m 216.59247,558.93677 q -0.26367,1.49414 -1.23047,2.10937 -0.87891,0.70313 -1.66992,1.9336 l -0.35156,0 q -0.87891,0 -1.75782,0.17578 -0.79101,0.17578 -1.66992,0.43945 -0.43945,-0.17578 -1.05469,-0.26367 -0.61523,-0.0879 -0.79101,-0.61524 -0.70313,0.35157 -1.9336,0.35157 -2.02148,0 -3.86718,-1.14258 -1.75782,-1.14258 -3.69141,-1.75781 -0.52734,-1.05469 -1.31836,-1.9336 -0.70312,-0.79101 -1.49414,-1.58203 -0.70312,-0.79101 -1.40625,-1.66992 -0.70312,-0.87891 -1.14258,-2.10938 -0.17578,-0.52734 -0.43945,-0.61523 -0.26367,-0.0879 -0.79102,0 0.0879,-0.9668 -0.26367,-1.66992 -0.26367,-0.70313 -1.31836,-0.87891 0,-1.14258 -0.35156,-1.93359 -0.35156,-0.79102 -0.87891,-1.40625 -0.43945,-0.52735 -1.05468,-1.14258 -0.52735,-0.61523 -0.87891,-1.49414 -0.79102,-0.17578 -1.58203,-0.26367 -0.70313,0 -1.58203,0 -4.21875,0 -8.17383,1.58203 -0.43945,0.17578 -0.9668,0.43945 -0.43945,0.26367 -0.8789,0.43946 -0.17579,0 -0.35157,0 -0.0879,0.0879 -0.26367,0.0879 -0.61523,0 -1.14258,-0.26368 -0.52734,-0.17578 -1.14257,-0.17578 -0.26368,0 -0.61524,0.0879 -0.26367,0.17578 -0.52734,0.26368 -1.31836,0.43945 -2.46094,0.52734 -3.60352,0.70312 -7.64648,1.05469 -3.95508,0.35156 -7.29493,1.8457 -0.70312,0.35156 -0.8789,1.05469 -0.17578,0.79101 -0.0879,1.49414 -0.9668,0.70312 -1.49414,1.8457 -0.43946,1.14258 -0.87891,2.37305 -0.35156,1.31836 -0.79102,2.54883 -0.43945,1.23046 -1.23046,2.10937 0.26367,0.52734 0.26367,1.14258 0,1.31836 -0.87891,2.63672 -0.87891,1.31836 -1.31836,2.54883 -0.43945,1.23046 -0.70312,2.37304 -0.26368,1.23047 -0.79102,2.19727 -0.52734,0.9668 -1.40625,1.58203 -0.9668,0.61523 -2.63672,0.61523 -1.58203,0 -2.72461,-0.61523 -1.14258,-0.61523 -1.8457,-1.58203 -0.70313,-0.9668 -1.14258,-2.28516 -0.43945,-1.31836 -0.70312,-2.63672 0.96679,-1.93359 1.8457,-3.33984 0.87891,-1.40625 1.31836,-3.60352 1.58203,-1.14257 2.37305,-2.8125 0.70312,-1.58203 0.79101,-3.51562 0.9668,-0.61524 1.40625,-1.66992 0.35156,-0.9668 0.43945,-2.10938 -2.10937,-0.17578 -4.39453,-0.35156 -2.37304,-0.17578 -4.39453,-0.87891 0,-0.17578 0.0879,-0.35156 0,-0.17578 0,-0.35156 0,-1.14258 -0.52734,-2.10938 -0.52734,-0.8789 -0.52734,-1.93359 l 0,-0.70313 q 0.70312,-0.70312 1.31835,-1.49414 0.52735,-0.70312 1.14258,-1.31836 0.61524,-0.61523 1.40625,-1.05468 0.79102,-0.35157 2.02149,-0.35157 1.66992,0 3.25195,0.17579 1.58203,0.26367 3.25195,0.26367 1.14258,0 2.37305,-0.26367 1.93359,-3.95508 3.42773,-7.99805 1.49415,-4.13086 2.28516,-8.34961 0.61524,-0.87891 1.14258,-2.02148 0.52734,-1.23047 0.79101,-2.54883 0.35157,-1.31836 0.43946,-2.54883 0.17578,-1.31836 0.17578,-2.37305 0.9668,-1.14258 1.31836,-2.8125 0.43945,-1.66992 0.70312,-3.42773 0.26368,-1.84571 0.52735,-3.60352 0.35156,-1.75781 1.23047,-3.07617 l 0,-0.79102 q 0.0879,-1.31835 -0.26368,-2.37304 0.43946,-0.17578 0.52735,-0.79102 0.0879,-0.61523 0.35156,-1.05469 0.0879,-4.04296 0.87891,-7.91015 0.79101,-3.95508 1.31836,-7.91016 l 0,-0.26367 q 0,-0.43945 -0.35157,-0.43945 -0.26367,-0.0879 -0.26367,-0.52735 0,-0.79101 0.17578,-2.10937 0.26367,-1.31836 0.35157,-2.19727 0.52734,-4.74609 0.52734,-9.40429 0,-3.95508 -0.26367,-7.82227 -0.26367,-3.86719 -0.52735,-7.82227 l 0.70313,-1.05468 q 0.35156,-0.52735 0.61523,-1.05469 0.87891,-0.35156 1.40625,-0.70313 0.61524,-0.43945 1.58203,-0.43945 0.26368,0 0.43946,0.0879 0.17578,0 0.35156,0 0.52734,0.35156 0.79102,0.9668 0.35156,0.61523 0.61523,1.14258 0.35156,0.52734 0.87891,0.8789 0.52734,0.35157 1.49414,0.17578 0.43945,2.46094 2.46093,2.54883 0.43946,1.23047 1.05469,2.46094 0.70313,1.23047 1.8457,1.93359 -0.0879,0.35157 -0.0879,0.9668 0,1.23047 0.52735,2.37305 0.61523,1.14258 1.49414,2.10937 l 0,0.17578 q 0,0.9668 -0.70313,1.31836 0.79102,0.87891 1.14258,2.10938 0.35156,1.23047 0.61524,2.54883 0.26367,1.23047 0.61523,2.37304 0.43945,1.14258 1.40625,1.75782 l 0,0.26367 q 0,0.43945 -0.35156,0.52734 -0.26367,0.0879 -0.26367,0.52735 1.58203,2.90039 2.19726,6.32812 0.61524,3.42773 1.58203,6.5918 0.35157,0.35156 0.79102,0.43945 0.52734,0.0879 0.79101,0.43945 -0.52734,0.35157 -0.52734,1.23047 0,0.87891 -0.43945,1.31836 0.70312,0.61524 0.61523,1.8457 0,1.14258 0.70313,1.66993 l 0,0.35156 q 0,0.35156 -0.17578,0.61523 -0.17579,0.17578 -0.17579,0.52735 l 0,0.35156 q 0.70313,3.07617 1.05469,6.15234 0.43945,3.07618 0.87891,6.15235 0.43945,3.07617 0.96679,6.15234 0.52735,2.98828 1.49415,5.88867 0.0879,0.0879 0.0879,0.26367 0,0.43946 -0.35157,0.52735 -0.35156,0 -0.35156,0.43945 0,0.43945 0.26367,1.05469 0.35157,0.52734 0.70313,0.87891 -0.0879,0.35156 -0.0879,1.05468 0,1.31836 0.43945,2.54883 0.52734,1.23047 1.05469,2.46094 0.61523,1.14258 1.05469,2.46094 0.43945,1.31836 0.35156,2.8125 0.52734,0.79101 1.31836,1.31836 0.8789,0.52734 1.75781,0.96679 0.87891,0.43946 1.58203,1.05469 0.79102,0.61523 1.05469,1.66992 -0.70313,0.61524 -0.9668,1.49414 -0.26367,0.9668 -0.9668,1.66992 0.61524,1.49414 1.40625,2.72461 0.87891,1.31836 1.75782,2.54883 l 1.8457,2.46094 q 0.9668,1.23047 1.66992,2.63672 0.9668,0 1.40625,0.52734 0.43946,0.52735 1.40625,0.43945 0.35156,0.70313 0.26367,1.58204 1.75782,-0.61524 3.51563,-0.61524 0.9668,0 1.75781,0.0879 0.87891,0.0879 1.75781,0.0879 1.05469,0 1.84571,-0.26367 0.35156,0.52734 0.52734,1.14258 0.17578,0.70312 0.26367,1.40625 l 0.26367,1.40625 q 0.17579,0.70312 0.52735,1.23047 z M 183.4577,534.59106 q -1.23047,-6.06445 -2.54883,-12.04101 -1.23046,-6.06445 -2.19726,-12.2168 -0.52734,-3.25195 -0.79102,-6.5039 -0.26367,-3.25196 -0.70312,-6.41602 -0.35156,-3.25195 -1.05469,-6.41602 -0.61523,-3.16406 -1.8457,-6.24023 l 0,-0.17578 q 0,-0.26367 0.17578,-0.43945 0.17578,-0.17579 0.17578,-0.61524 l 0,-0.35156 q -1.14258,-0.79102 -1.58203,-2.19727 -0.43945,-1.49414 -0.79102,-3.07617 -0.26367,-1.66992 -0.79101,-3.16406 -0.43946,-1.58203 -1.58203,-2.63672 -0.43946,5.09766 -0.9668,10.19531 -0.43945,5.00977 -0.61523,10.10742 -0.87891,0.52735 -1.14258,1.75782 -0.26367,1.23047 -0.26367,2.19726 0,0.70313 0.0879,1.49414 0.0879,0.70313 0.35156,1.49414 -1.58203,3.95508 -2.28516,8.17383 -0.70312,4.13086 -1.58203,8.26172 -0.0879,0.26367 -0.35156,1.23047 -0.17578,0.87891 -0.43945,1.8457 -0.26368,0.9668 -0.43946,1.75782 -0.17578,0.70312 -0.17578,0.79101 -0.0879,0.61524 -0.0879,1.23047 0.0879,0.61523 0.0879,1.23047 l -1.31836,1.31836 q -0.35156,3.33984 -1.31836,6.5039 -0.8789,3.07618 -1.8457,6.32813 0.61523,0.0879 1.14258,0.0879 0.61523,0.0879 1.23047,0.0879 2.8125,0 5.625,-0.35156 2.90039,-0.43946 5.71289,-0.79102 0.96679,-0.17578 2.02148,-0.26367 1.05469,-0.17578 2.02149,-0.17578 0.43945,-0.0879 1.05468,0 0.61524,0 1.05469,-0.0879 0.70313,-0.17578 0.87891,-0.52735 0.26367,-0.43945 0.96679,-0.52734 0.52735,0.26367 1.23047,0.26367 0.79102,0 1.49414,-0.35156 0.70313,-0.35156 1.40625,-0.79102 z" />
    <path
       inkscape:connector-curvature="0"
       id="path4340"
       style="font-style:normal;font-variant:normal;font-weight:normal;font-stretch:normal;font-size:90px;line-height:125%;font-family:'Rock Salt';-inkscape-font-specification:'Rock Salt';letter-spacing:0px;word-spacing:0px;fill:#000000;fill-opacity:1;stroke:#ffffff;stroke-width:2;stroke-linecap:butt;stroke-linejoin:miter;stroke-miterlimit:4;stroke-dasharray:none;stroke-opacity:1"
       d="m 300.17255,522.72583 q -0.17578,1.31836 -0.9668,2.02148 -0.70313,0.70313 -1.66992,1.31836 -0.43946,-0.0879 -0.87891,-0.0879 -0.35156,-0.0879 -0.79101,-0.0879 -2.72461,-0.0879 -5.18555,0.70313 -2.37305,0.79101 -4.92188,1.14258 -0.8789,0.17578 -1.66992,0.17578 -0.70312,-0.0879 -1.49414,0.0879 -2.8125,0.43945 -5.97656,0.70312 -3.16406,0.26367 -6.32813,0.70313 -3.16406,0.35156 -6.24023,0.96679 -2.98828,0.52735 -5.625,1.58204 -0.26367,-0.17579 -0.52734,-0.35157 -0.26368,-0.26367 -0.61524,-0.26367 -0.8789,0 -1.66992,0.26367 -0.79102,0.26368 -1.58203,0.17578 -0.87891,0.52735 -1.9336,0.79102 -0.96679,0.17578 -2.02148,0.35156 -0.9668,0.0879 -1.93359,0.35157 -0.9668,0.26367 -1.84571,0.96679 -0.70312,-0.35156 -1.75781,-0.35156 -0.9668,-0.0879 -1.31836,-0.70313 -2.02148,0.9668 -4.30664,1.23047 -2.19726,0.26368 -4.48242,0.17578 -1.49414,-0.0879 -3.42774,-0.43945 -1.93359,-0.35156 -3.86718,-0.9668 -1.9336,-0.70312 -3.60352,-1.58203 -1.66992,-0.96679 -2.54883,-2.28515 -0.61523,-0.87891 -0.8789,-1.9336 -0.26367,-1.05468 -1.23047,-1.58203 0.26367,-2.02148 0.61523,-3.95508 0.35157,-1.93359 0.70313,-3.95507 1.75781,-1.49414 3.33984,-3.16407 1.58203,-1.66992 2.98828,-3.51562 1.66992,-0.79102 3.07617,-1.9336 1.49415,-1.14257 2.9004,-2.28515 1.49414,-1.23047 2.90039,-2.37305 1.49414,-1.14258 3.16406,-2.02148 0.26367,-0.61524 0.70312,-0.9668 0.52735,-0.43945 1.05469,-0.79102 0.52734,-0.43945 0.9668,-0.8789 0.43945,-0.52735 0.61523,-1.23047 3.07617,-1.8457 5.36133,-4.6582 2.28516,-2.8125 2.98828,-6.32813 -1.49414,-1.23047 -3.42773,-1.58203 -1.84571,-0.43945 -3.86719,-0.61523 -1.75781,-0.0879 -3.69141,0 -1.8457,0.0879 -3.77929,-0.0879 -1.9336,0.61523 -4.04297,0.79101 -2.02149,0.17578 -4.04297,0.35156 -2.02149,0.0879 -4.04297,0.52735 -1.93359,0.35156 -3.7793,1.40625 -0.35156,0 -0.70312,-0.0879 -0.26367,-0.0879 -0.61524,-0.0879 -2.8125,-0.0879 -5.27343,1.14257 -2.46094,1.14258 -4.83399,2.28516 -0.17578,0.35156 -0.17578,0.52734 0,0.52735 0.17578,1.05469 0.26367,0.43945 0.26367,0.9668 -0.0879,0.0879 -0.0879,0.17578 0,0.0879 -0.0879,0.17578 -0.0879,0.43945 -0.26367,0.79102 -0.0879,0.35156 -0.26367,0.79101 -0.9668,2.8125 -1.05469,5.53711 -0.0879,2.28516 0,4.48242 0.0879,2.19727 0,4.48243 -0.17578,2.8125 -0.8789,5.27343 0.43945,2.10938 0.79101,4.48242 0.35156,2.28516 0.87891,4.57032 0.52734,2.28515 1.23047,4.48242 0.79101,2.10937 2.02148,4.04297 -0.0879,0.17578 0.0879,0.26367 0.17578,0.0879 0.35156,0.0879 l 0.70313,0 q 0.43945,0 0.35156,0.35156 0.17578,0.26367 0.26367,0.52735 0.0879,0.17578 0.35157,0.35156 0.17578,0.26367 0,0.70312 -0.0879,1.75782 -0.87891,3.25196 -0.79102,1.49414 -0.9668,3.25195 -1.05469,0.26367 -1.93359,0.26367 -1.49414,-0.0879 -2.63672,-0.8789 -1.14258,-0.70313 -2.10938,-1.75782 -0.96679,-1.05468 -1.8457,-2.10937 -0.8789,-1.14258 -1.93359,-1.9336 -0.61524,-2.46093 -1.23047,-5.44921 -0.52734,-2.98829 -1.8457,-5.09766 0.35156,-0.79102 0.35156,-1.93359 0.0879,-1.75782 -0.35156,-3.42774 -0.35157,-1.75781 -0.17579,-3.51562 0,-0.9668 0.17579,-1.9336 0.26367,-0.96679 0.35156,-1.93359 0.0879,-1.49414 -0.35156,-2.90039 -0.35157,-1.40625 -0.26368,-2.90039 0.0879,-0.70313 0.26368,-1.31836 0.26367,-0.70313 0.70312,-1.23047 -0.43945,-1.05469 -0.26367,-2.02148 0.0879,-1.49415 0.35156,-2.8125 0.26367,-1.31836 0.35156,-2.63672 0,-0.70313 -0.0879,-1.31836 -0.0879,-0.70313 -0.26367,-1.31836 l -0.79101,-0.26367 q -0.52735,0 -1.05469,0.26367 -0.43945,0.26367 -0.79102,0.61523 -0.35156,0.35156 -0.61523,0.61524 -0.26367,0.17578 -0.52735,0.17578 -0.17578,0 -0.43945,0 -0.17578,-0.0879 -0.35156,-0.0879 -0.17578,0 -0.70313,0.35156 -0.43945,0.35156 -1.14257,0.79102 -0.61524,0.35156 -1.23047,0.79101 -0.61524,0.35156 -0.9668,0.43945 -0.9668,-0.17578 -1.58203,-0.61523 -0.52734,-0.52734 -1.05469,-0.9668 -0.43945,-0.52734 -0.9668,-0.8789 -0.52734,-0.43946 -1.31835,-0.35157 -0.26368,-0.52734 -0.26368,-1.14257 -0.0879,-0.61524 0,-1.23047 l 0,-1.40625 q 0.61524,-1.14258 1.66993,-1.84571 0.96679,-0.79101 2.10937,-1.31836 l 2.28516,-1.05468 q 1.14257,-0.52735 2.10937,-1.31836 l 0.79102,0 q 1.58203,0.0879 2.72461,-0.61524 1.23047,-0.70312 2.28515,-1.58203 1.05469,-0.96679 2.10938,-1.93359 1.14258,-0.9668 2.46094,-1.49414 0.96679,0.43945 2.02148,0.79101 1.05469,0.26368 2.19727,0.35157 1.14257,0 2.37304,-0.35157 1.23047,-0.35156 1.9336,-1.31836 0.43945,0.17579 0.70312,0.26368 0.35156,0 0.79102,0 1.31836,0.0879 2.63672,-0.35157 1.31835,-0.52734 2.54882,-1.23047 1.75782,0.0879 3.42774,-0.17578 1.75781,-0.35156 3.42773,-0.70312 1.75781,-0.35156 3.42774,-0.61524 1.75781,-0.35156 3.51562,-0.26367 2.90039,0.0879 5.71289,-0.52734 2.8125,-0.61524 5.71289,-0.43945 2.02149,0.0879 3.95508,0.35156 2.02149,0.17578 4.04297,0.0879 1.14258,0.52734 2.02148,0.9668 0.9668,0.35156 2.37305,0.17578 2.8125,2.37304 5.09766,5.53711 l 0,1.49414 q -0.0879,2.02148 -0.70313,3.95507 -0.61523,1.9336 -1.49414,3.86719 -0.79101,1.84571 -1.75781,3.69141 -0.9668,1.75781 -1.8457,3.51562 -5.71289,5.18555 -11.42579,10.28321 -5.71289,5.09765 -11.77734,9.84375 -0.17578,0.8789 -0.52734,1.58203 -0.26367,0.70312 -0.35157,1.49414 0,0.43945 0.0879,0.70312 0.61523,0.17578 1.05468,0.70313 0.52735,0.43945 0.35157,1.23047 l 0.79101,0 q 0.43945,0 0.43945,0.35156 l 1.40625,0.0879 q 3.33985,0.17578 6.67969,-0.17578 3.33985,-0.35156 6.67969,-0.79102 3.42773,-0.43945 6.76758,-0.79101 3.33984,-0.43946 6.67968,-0.52735 0.79102,-0.26367 1.66993,-0.43945 0.8789,-0.17578 1.58203,-0.70312 l 0.26367,0 q 0.61523,0 0.87891,0.35156 0.35156,0.35156 0.96679,0.43945 0.43946,0 0.87891,-0.17578 0.52734,-0.17578 1.05469,-0.26367 1.23047,-0.35156 2.54882,-0.43945 1.40625,-0.0879 2.72461,-0.26368 5.09766,-0.43945 10.10743,-0.52734 5.00976,-0.17578 10.01953,-1.31836 0.43945,0.61523 1.23047,0.87891 0.79101,0.17578 1.66992,0.43945 0.8789,0.17578 1.58203,0.43945 0.79101,0.26367 1.05469,1.05469 z" />
    <path
       inkscape:connector-curvature="0"
       id="path4342"
       style="font-style:normal;font-variant:normal;font-weight:normal;font-stretch:normal;font-size:90px;line-height:125%;font-family:'Rock Salt';-inkscape-font-specification:'Rock Salt';letter-spacing:0px;word-spacing:0px;fill:#000000;fill-opacity:1;stroke:#ffffff;stroke-width:2;stroke-linecap:butt;stroke-linejoin:miter;stroke-miterlimit:4;stroke-dasharray:none;stroke-opacity:1"
       d="m 333.21552,481.50513 q -0.35157,1.14258 -1.14258,2.10937 l -1.49414,1.84571 q -0.70313,0.8789 -1.23047,1.93359 -0.43946,0.9668 -0.26367,2.28516 -0.17579,0 -0.43946,0 -0.26367,-0.0879 -0.43945,-0.0879 -1.40625,0 -2.19727,0.70313 -0.70312,0.61523 -1.93359,1.05469 -0.17578,-0.52735 -0.43945,-0.9668 -0.26367,-0.52734 -0.79102,-0.70312 -2.10937,0.43945 -4.21875,0.70312 -2.10937,0.17578 -4.21875,0.52734 -0.9668,0.17579 -1.93359,0.52735 -0.9668,0.26367 -2.02149,0.52734 -0.52734,0.17578 -1.14257,0.17578 -0.61524,-0.0879 -1.23047,0 -2.10938,0.0879 -4.57032,0.35157 -2.46093,0.17578 -4.39453,1.31835 -0.8789,-0.17578 -1.8457,-0.26367 -0.9668,-0.0879 -1.93359,-0.0879 -2.10938,0 -4.65821,0.43946 -2.46093,0.35156 -4.39453,1.49414 -0.43945,-0.17579 -0.9668,-0.26368 -0.43945,-0.0879 -1.05468,-0.0879 -0.17578,0 -0.26367,0.0879 -0.0879,0 -0.26368,0 -0.0879,0.79102 0.17578,1.58204 0.35157,0.70312 1.14258,1.14257 -0.35156,0.9668 -0.35156,2.10938 0,1.49414 0.17578,2.98828 0.26367,1.49414 0.26367,2.98828 0,1.66992 -0.43945,2.63672 0.87891,2.63672 0.87891,5.625 0,1.05469 -0.17578,2.10937 -0.0879,0.9668 -0.0879,2.10938 0,0.9668 0.70313,1.58203 0.70312,0.52734 0.70312,1.49414 0,0.35156 -0.17578,0.70313 1.23047,-0.26368 2.37305,-0.70313 1.14258,-0.52734 2.37305,-0.52734 0.70312,0 1.31836,0.26367 0.70312,0.26367 1.23047,0.70312 -0.0879,0.43946 -0.17579,0.9668 0,0.52735 0,1.05469 0,0.9668 0,1.8457 0.0879,0.79102 0.17579,1.75781 -0.70313,1.23047 -1.66993,2.19727 -0.8789,0.9668 -1.23047,2.46094 -1.31835,0 -2.37304,0.61523 -0.9668,0.52735 -1.84571,1.23047 -0.8789,0.61524 -1.75781,1.23047 -0.8789,0.52734 -1.93359,0.52734 -1.31836,0 -1.8457,-0.35156 -0.52735,-0.43945 -0.79102,-0.87891 -0.26367,-0.43945 -0.52734,-0.79101 -0.17579,-0.35156 -0.87891,-0.26367 -0.17578,-1.14258 -0.70313,-2.10938 -0.52734,-1.05469 -1.14257,-2.02148 -0.52735,-0.9668 -1.14258,-1.9336 -0.52735,-1.05468 -0.79102,-2.10937 -0.52734,-2.28516 -0.43945,-4.74609 0.0879,-2.46094 -0.79102,-4.7461 0.17579,-1.23047 0.26368,-2.46094 0.0879,-1.31836 0.0879,-2.54882 0,-2.46094 -0.17578,-4.83399 -0.0879,-2.46094 -0.17579,-5.00976 -0.61523,-0.79102 -0.79101,-1.75782 -0.0879,-1.05468 -0.17578,-2.02148 -0.26367,-0.26367 -0.61524,-0.52734 -0.26367,-0.26368 -0.35156,-0.70313 -0.70312,-0.17578 -1.05469,-0.17578 -1.23047,0 -2.10937,0.61523 -0.79102,0.52735 -1.49414,0.52735 -0.70313,0 -1.31836,-0.17578 -0.61524,-0.17579 -1.23047,-0.17579 -0.52734,0 -0.61524,0.26368 0,0.17578 -0.35156,0.35156 -0.26367,0.17578 -1.23047,0.35156 -0.96679,0.17578 -2.19726,0.35156 -1.14258,0.0879 -2.28516,0.17579 -1.05469,0.0879 -1.40625,0.0879 -1.40625,0 -2.10937,-0.52735 -0.79102,-0.61523 -1.84571,-1.31836 0.17578,-0.52734 0.17578,-0.70312 0,-0.87891 -0.52734,-1.40625 -0.52734,-0.61524 -0.52734,-1.05469 0,-0.9668 0.79101,-1.49414 0.70313,-0.52734 0.79102,-1.66992 2.02148,-0.87891 4.13086,-1.31836 2.10937,-0.43945 4.30664,-0.70313 2.19726,-0.26367 4.30664,-0.61523 2.19726,-0.35156 4.30664,-1.14258 0.61523,0.0879 1.14258,0.17578 0.61523,0 1.23047,0 2.63672,0 5.18554,-0.52734 2.63672,-0.61524 5.36133,-0.61524 0.70313,0 1.40625,0.0879 0.70313,0.0879 1.40625,0.26368 3.51563,-0.52735 6.94336,-1.14258 3.51563,-0.61524 7.20703,-1.05469 1.75781,-0.17578 3.42774,-0.26367 1.75781,-0.17578 3.51562,-0.43945 0.61524,-0.0879 0.87891,-0.26368 0.35156,-0.26367 0.35156,-0.96679 0.79102,0.35156 1.75781,0.35156 1.49414,0 2.90039,-0.52734 1.40625,-0.52735 2.90039,-0.52735 0.35157,0 0.61524,0.0879 0.26367,0 0.52734,0 0.61524,0 0.61524,-0.52734 0.0879,-0.61524 0.8789,-0.79102 0.61524,-0.17578 1.75782,-0.26367 1.14257,-0.0879 2.37304,-0.17578 1.31836,-0.17578 2.37305,-0.35156 1.14258,-0.26367 1.66992,-0.70313 l 0.61524,-0.96679 q 1.58203,0.0879 2.28515,1.40625 0.79102,1.23046 0.87891,2.72461 0.35156,0.35156 0.96679,0.35156 0.70313,-0.0879 1.23047,-0.0879 l 0.26368,0 z" />
    <path
       inkscape:connector-curvature="0"
       id="path4344"
       style="font-style:normal;font-variant:normal;font-weight:normal;font-stretch:normal;font-size:90px;line-height:125%;font-family:'Rock Salt';-inkscape-font-specification:'Rock Salt';letter-spacing:0px;word-spacing:0px;fill:#000000;fill-opacity:1;stroke:#ffffff;stroke-width:2;stroke-linecap:butt;stroke-linejoin:miter;stroke-miterlimit:4;stroke-dasharray:none;stroke-opacity:1"
       d="m 420.57684,558.93677 q -0.26367,1.49414 -1.23047,2.10937 -0.8789,0.70313 -1.66992,1.9336 l -0.35156,0 q -0.87891,0 -1.75781,0.17578 -0.79102,0.17578 -1.66992,0.43945 -0.43946,-0.17578 -1.05469,-0.26367 -0.61524,-0.0879 -0.79102,-0.61524 -0.70312,0.35157 -1.93359,0.35157 -2.02149,0 -3.86719,-1.14258 -1.75781,-1.14258 -3.6914,-1.75781 -0.52735,-1.05469 -1.31836,-1.9336 -0.70313,-0.79101 -1.49414,-1.58203 -0.70313,-0.79101 -1.40625,-1.66992 -0.70313,-0.87891 -1.14258,-2.10938 -0.17578,-0.52734 -0.43946,-0.61523 -0.26367,-0.0879 -0.79101,0 0.0879,-0.9668 -0.26367,-1.66992 -0.26368,-0.70313 -1.31836,-0.87891 0,-1.14258 -0.35157,-1.93359 -0.35156,-0.79102 -0.8789,-1.40625 -0.43945,-0.52735 -1.05469,-1.14258 -0.52734,-0.61523 -0.87891,-1.49414 -0.79101,-0.17578 -1.58203,-0.26367 -0.70312,0 -1.58203,0 -4.21875,0 -8.17383,1.58203 -0.43945,0.17578 -0.96679,0.43945 -0.43946,0.26367 -0.87891,0.43946 -0.17578,0 -0.35156,0 -0.0879,0.0879 -0.26367,0.0879 -0.61524,0 -1.14258,-0.26368 -0.52735,-0.17578 -1.14258,-0.17578 -0.26367,0 -0.61523,0.0879 -0.26368,0.17578 -0.52735,0.26368 -1.31836,0.43945 -2.46094,0.52734 -3.60351,0.70312 -7.64648,1.05469 -3.95508,0.35156 -7.29492,1.8457 -0.70313,0.35156 -0.87891,1.05469 -0.17578,0.79101 -0.0879,1.49414 -0.9668,0.70312 -1.49414,1.8457 -0.43945,1.14258 -0.87891,2.37305 -0.35156,1.31836 -0.79101,2.54883 -0.43945,1.23046 -1.23047,2.10937 0.26367,0.52734 0.26367,1.14258 0,1.31836 -0.8789,2.63672 -0.87891,1.31836 -1.31836,2.54883 -0.43946,1.23046 -0.70313,2.37304 -0.26367,1.23047 -0.79101,2.19727 -0.52735,0.9668 -1.40625,1.58203 -0.9668,0.61523 -2.63672,0.61523 -1.58203,0 -2.72461,-0.61523 -1.14258,-0.61523 -1.84571,-1.58203 -0.70312,-0.9668 -1.14257,-2.28516 -0.43946,-1.31836 -0.70313,-2.63672 0.9668,-1.93359 1.8457,-3.33984 0.87891,-1.40625 1.31836,-3.60352 1.58204,-1.14257 2.37305,-2.8125 0.70313,-1.58203 0.79102,-3.51562 0.96679,-0.61524 1.40625,-1.66992 0.35156,-0.9668 0.43945,-2.10938 -2.10938,-0.17578 -4.39453,-0.35156 -2.37305,-0.17578 -4.39453,-0.87891 0,-0.17578 0.0879,-0.35156 0,-0.17578 0,-0.35156 0,-1.14258 -0.52735,-2.10938 -0.52734,-0.8789 -0.52734,-1.93359 l 0,-0.70313 q 0.70313,-0.70312 1.31836,-1.49414 0.52734,-0.70312 1.14258,-1.31836 0.61523,-0.61523 1.40625,-1.05468 0.79101,-0.35157 2.02148,-0.35157 1.66992,0 3.25196,0.17579 1.58203,0.26367 3.25195,0.26367 1.14258,0 2.37305,-0.26367 1.93359,-3.95508 3.42773,-7.99805 1.49414,-4.13086 2.28516,-8.34961 0.61523,-0.87891 1.14257,-2.02148 0.52735,-1.23047 0.79102,-2.54883 0.35156,-1.31836 0.43945,-2.54883 0.17578,-1.31836 0.17578,-2.37305 0.9668,-1.14258 1.31836,-2.8125 0.43946,-1.66992 0.70313,-3.42773 0.26367,-1.84571 0.52734,-3.60352 0.35156,-1.75781 1.23047,-3.07617 l 0,-0.79102 q 0.0879,-1.31835 -0.26367,-2.37304 0.43945,-0.17578 0.52734,-0.79102 0.0879,-0.61523 0.35157,-1.05469 0.0879,-4.04296 0.8789,-7.91015 0.79102,-3.95508 1.31836,-7.91016 l 0,-0.26367 q 0,-0.43945 -0.35156,-0.43945 -0.26367,-0.0879 -0.26367,-0.52735 0,-0.79101 0.17578,-2.10937 0.26367,-1.31836 0.35156,-2.19727 0.52734,-4.74609 0.52734,-9.40429 0,-3.95508 -0.26367,-7.82227 -0.26367,-3.86719 -0.52734,-7.82227 l 0.70312,-1.05468 q 0.35157,-0.52735 0.61524,-1.05469 0.8789,-0.35156 1.40625,-0.70313 0.61523,-0.43945 1.58203,-0.43945 0.26367,0 0.43945,0.0879 0.17578,0 0.35156,0 0.52735,0.35156 0.79102,0.9668 0.35156,0.61523 0.61523,1.14258 0.35157,0.52734 0.87891,0.8789 0.52734,0.35157 1.49414,0.17578 0.43945,2.46094 2.46094,2.54883 0.43945,1.23047 1.05469,2.46094 0.70312,1.23047 1.8457,1.93359 -0.0879,0.35157 -0.0879,0.9668 0,1.23047 0.52734,2.37305 0.61524,1.14258 1.49414,2.10937 l 0,0.17578 q 0,0.9668 -0.70312,1.31836 0.79101,0.87891 1.14258,2.10938 0.35156,1.23047 0.61523,2.54883 0.26367,1.23047 0.61524,2.37304 0.43945,1.14258 1.40625,1.75782 l 0,0.26367 q 0,0.43945 -0.35157,0.52734 -0.26367,0.0879 -0.26367,0.52735 1.58203,2.90039 2.19727,6.32812 0.61523,3.42773 1.58203,6.5918 0.35156,0.35156 0.79101,0.43945 0.52735,0.0879 0.79102,0.43945 -0.52734,0.35157 -0.52734,1.23047 0,0.87891 -0.43946,1.31836 0.70313,0.61524 0.61524,1.8457 0,1.14258 0.70312,1.66993 l 0,0.35156 q 0,0.35156 -0.17578,0.61523 -0.17578,0.17578 -0.17578,0.52735 l 0,0.35156 q 0.70312,3.07617 1.05469,6.15234 0.43945,3.07618 0.8789,6.15235 0.43946,3.07617 0.9668,6.15234 0.52734,2.98828 1.49414,5.88867 0.0879,0.0879 0.0879,0.26367 0,0.43946 -0.35156,0.52735 -0.35156,0 -0.35156,0.43945 0,0.43945 0.26367,1.05469 0.35156,0.52734 0.70312,0.87891 -0.0879,0.35156 -0.0879,1.05468 0,1.31836 0.43946,2.54883 0.52734,1.23047 1.05468,2.46094 0.61524,1.14258 1.05469,2.46094 0.43945,1.31836 0.35156,2.8125 0.52735,0.79101 1.31836,1.31836 0.87891,0.52734 1.75781,0.96679 0.87891,0.43946 1.58204,1.05469 0.79101,0.61523 1.05468,1.66992 -0.70312,0.61524 -0.96679,1.49414 -0.26368,0.9668 -0.9668,1.66992 0.61523,1.49414 1.40625,2.72461 0.87891,1.31836 1.75781,2.54883 l 1.84571,2.46094 q 0.96679,1.23047 1.66992,2.63672 0.96679,0 1.40625,0.52734 0.43945,0.52735 1.40625,0.43945 0.35156,0.70313 0.26367,1.58204 1.75781,-0.61524 3.51562,-0.61524 0.9668,0 1.75782,0.0879 0.8789,0.0879 1.75781,0.0879 1.05469,0 1.8457,-0.26367 0.35156,0.52734 0.52735,1.14258 0.17578,0.70312 0.26367,1.40625 l 0.26367,1.40625 q 0.17578,0.70312 0.52734,1.23047 z m -33.13476,-24.34571 q -1.23047,-6.06445 -2.54883,-12.04101 -1.23047,-6.06445 -2.19727,-12.2168 -0.52734,-3.25195 -0.79101,-6.5039 -0.26367,-3.25196 -0.70313,-6.41602 -0.35156,-3.25195 -1.05468,-6.41602 -0.61524,-3.16406 -1.84571,-6.24023 l 0,-0.17578 q 0,-0.26367 0.17578,-0.43945 0.17579,-0.17579 0.17579,-0.61524 l 0,-0.35156 q -1.14258,-0.79102 -1.58204,-2.19727 -0.43945,-1.49414 -0.79101,-3.07617 -0.26367,-1.66992 -0.79102,-3.16406 -0.43945,-1.58203 -1.58203,-2.63672 -0.43945,5.09766 -0.9668,10.19531 -0.43945,5.00977 -0.61523,10.10742 -0.87891,0.52735 -1.14258,1.75782 -0.26367,1.23047 -0.26367,2.19726 0,0.70313 0.0879,1.49414 0.0879,0.70313 0.35156,1.49414 -1.58203,3.95508 -2.28515,8.17383 -0.70313,4.13086 -1.58203,8.26172 -0.0879,0.26367 -0.35157,1.23047 -0.17578,0.87891 -0.43945,1.8457 -0.26367,0.9668 -0.43945,1.75782 -0.17578,0.70312 -0.17578,0.79101 -0.0879,0.61524 -0.0879,1.23047 0.0879,0.61523 0.0879,1.23047 l -1.31836,1.31836 q -0.35157,3.33984 -1.31836,6.5039 -0.87891,3.07618 -1.84571,6.32813 0.61524,0.0879 1.14258,0.0879 0.61524,0.0879 1.23047,0.0879 2.8125,0 5.625,-0.35156 2.90039,-0.43946 5.71289,-0.79102 0.9668,-0.17578 2.02149,-0.26367 1.05468,-0.17578 2.02148,-0.17578 0.43945,-0.0879 1.05469,0 0.61523,0 1.05469,-0.0879 0.70312,-0.17578 0.8789,-0.52735 0.26367,-0.43945 0.9668,-0.52734 0.52734,0.26367 1.23047,0.26367 0.79101,0 1.49414,-0.35156 0.70312,-0.35156 1.40625,-0.79102 z" />
    <path
       inkscape:connector-curvature="0"
       id="path4346"
       style="font-style:normal;font-variant:normal;font-weight:normal;font-stretch:normal;font-size:90px;line-height:125%;font-family:'Rock Salt';-inkscape-font-specification:'Rock Salt';letter-spacing:0px;word-spacing:0px;fill:#000000;fill-opacity:1;stroke:#ffffff;stroke-width:2;stroke-linecap:butt;stroke-linejoin:miter;stroke-miterlimit:4;stroke-dasharray:none;stroke-opacity:1"
       d="m 459.66278,476.05591 q 0,0.79101 -0.35156,1.49414 l -0.61524,1.31836 q -0.26367,0.61523 -0.52734,1.31836 -0.26367,0.70312 -0.17578,1.66992 -1.23047,1.40625 -2.46094,2.72461 -1.23047,1.31836 -2.19726,2.98828 -0.9668,-0.0879 -1.49414,0.43945 -0.43946,0.52735 -0.70313,1.40625 -1.8457,0.61524 -3.25195,1.9336 -1.40625,1.23047 -2.46094,2.72461 -4.6582,1.93359 -8.70117,4.74609 -4.04297,2.8125 -7.38281,6.5918 1.58203,0 3.07617,0.35156 1.58203,0.35156 3.07617,0.79102 1.58203,0.35156 3.07617,0.70312 1.49414,0.26367 3.07617,0.0879 1.14258,1.05469 2.54883,1.75781 1.49414,0.70313 2.90039,1.31836 1.49414,0.61524 2.8125,1.40625 1.40625,0.79102 2.46094,1.9336 0,0.17578 -0.0879,0.35156 0,0.0879 0,0.26367 0,0.70313 0.35156,1.40625 0.35156,0.61524 0.35156,1.31836 -0.43945,0.70313 -0.79101,1.49414 -0.35156,0.79102 -0.87891,1.40625 -0.43945,0.61524 -1.05469,1.05469 -0.61523,0.43945 -1.66992,0.52734 -0.43945,1.49414 -1.40625,2.37305 -0.96679,0.79101 -2.19726,1.49414 -1.14258,0.61523 -2.28516,1.31836 -1.14258,0.61523 -1.93359,1.66992 -2.63672,0.61524 -5.18555,1.75781 -2.46094,1.05469 -4.39453,3.07618 -1.31836,0.17578 -2.72461,0.43945 -1.31836,0.17578 -2.63672,0.17578 -1.8457,0 -2.98828,-0.70313 -1.14258,-0.79101 -1.31836,-2.8125 0.26367,-0.61523 0.79102,-1.05468 l 1.14257,-0.87891 q 0.61524,-0.43945 1.05469,-0.87891 0.52734,-0.52734 0.79102,-1.23046 0.17578,0 0.43945,0.0879 0.26367,0 0.52734,0 1.05469,0 1.66993,-0.43946 0.61523,-0.43945 1.14257,-0.8789 0.61524,-0.43946 1.31836,-0.79102 0.70313,-0.35156 1.84571,-0.26367 0.61523,-1.14258 1.8457,-1.66992 1.23047,-0.61524 2.54883,-1.05469 1.31836,-0.52734 2.46093,-1.14258 1.23047,-0.70312 1.66993,-2.02148 -0.43946,-0.70313 -1.14258,-1.05469 -0.70313,-0.43945 -1.58203,-0.70312 l -1.66992,-0.52735 q -0.79102,-0.26367 -1.40625,-0.61523 -0.9668,0.26367 -1.84571,0.26367 -1.8457,0 -3.60351,-0.35156 -1.75782,-0.35157 -3.60352,-0.35157 -1.66992,0 -2.90039,0.43946 -0.43945,-0.0879 -0.9668,-0.26367 -0.43945,-0.17579 -0.8789,-0.35157 -2.02149,0.79102 -4.21875,0.79102 l -5.71289,0 q -0.70313,0 -1.40625,0.17578 -0.9668,1.75781 -0.9668,3.7793 0,1.49414 0.43945,2.90039 0.43946,1.31836 0.87891,2.8125 1.75781,1.58203 3.25195,3.77929 1.49414,2.10938 1.49414,4.65821 0,0.61523 -0.0879,0.96679 -0.8789,-0.61523 -2.28515,-0.61523 -1.23047,0 -2.37305,0.35156 -1.05469,0.35156 -2.28516,0.52735 -0.96679,-0.43946 -2.02148,-0.87891 -1.05469,-0.52734 -2.02149,-1.23047 -0.70312,-1.49414 -1.40625,-2.8125 -0.70312,-1.40625 -1.75781,-2.63672 l 0,-0.35156 q 0,-3.07617 -0.52734,-6.06445 -0.43946,-2.98828 -0.43946,-6.06446 0,-1.40625 0.0879,-2.8125 0.17578,-1.49414 0.8789,-2.72461 -0.26367,-2.10937 -0.26367,-4.39453 0,-4.57031 0.52734,-9.14062 0.52735,-4.57031 0.52735,-9.31641 0,-0.9668 -0.0879,-1.93359 0,-0.9668 -0.0879,-1.9336 l -0.35157,0 q -1.14257,0 -2.19726,0.35157 -1.05469,0.26367 -2.10938,0.61523 -1.05468,0.35156 -2.19726,0.70313 -1.14258,0.26367 -2.28516,0.26367 -0.70312,0.35156 -1.14258,0.70312 -0.43945,0.35157 -0.8789,0.61524 -0.43946,0.26367 -0.9668,0.43945 -0.61523,0.17578 -1.40625,0.0879 -0.9668,0.61524 -1.49414,0.9668 -0.61524,0.26367 -1.66992,0.61523 -0.52735,0.17578 -0.87891,0.52735 l -0.70312,0.61523 q -0.35157,0.26367 -0.79102,0.52734 -0.43945,0.26368 -1.14258,0.26368 -0.61523,0 -0.8789,-0.0879 -0.52735,-0.43946 -0.87891,-1.05469 -0.43945,-0.61524 -0.79102,-1.14258 -0.43945,-0.61523 -0.8789,-1.05469 -0.52735,-0.52734 -1.23047,-0.79101 0.35156,-0.43946 0.35156,-0.70313 -0.0879,-0.35156 -0.0879,-0.79101 0,-0.26368 0.0879,-0.35157 0.43945,-1.58203 1.58203,-2.46093 1.14258,-0.9668 2.54883,-1.49414 1.40625,-0.61524 2.90039,-1.05469 1.40625,-0.43946 2.63672,-1.05469 3.42773,0.0879 6.24023,-0.61523 2.8125,-0.79102 5.80079,-2.19727 0.52734,0.26367 1.05468,0.26367 0.43946,0 0.87891,-0.0879 l 0.87891,-0.17578 q 1.05468,-0.87891 2.28515,-1.14258 1.23047,-0.26367 2.46094,-0.43945 1.23047,-0.17578 2.37305,-0.35156 1.14257,-0.26368 2.02148,-0.9668 l 0.35156,0 q 2.10938,0 4.21875,-0.70313 2.19727,-0.70312 4.21875,-0.52734 1.75782,-0.9668 3.25196,-1.23047 1.49414,-0.26367 3.42773,-0.26367 0.43945,0 1.05469,-0.35156 0.61523,-0.43946 1.49414,-0.43946 0.17578,0 0.26367,0.0879 0.17578,0 0.35156,0 0.79102,0 1.05469,-0.52735 0.35156,-0.52734 1.66992,-0.52734 0.61524,0 1.14258,0.0879 0.52734,0 1.05469,0 0.61523,0 0.79101,-0.43945 0.17579,-0.52735 0.79102,-0.43946 0.26367,0.35156 0.87891,0.35156 0.61523,-0.0879 0.96679,-0.0879 0.61524,0 0.70313,0.35157 1.40625,-0.87891 3.07617,-1.14258 1.75781,-0.26367 3.33984,-0.26367 0.61524,0 1.23047,0.0879 0.61524,0 1.31836,0.0879 0.79102,-0.52735 1.8457,-0.52735 0.61524,0 1.9336,0.52735 1.40625,0.52734 2.90039,1.23047 1.49414,0.70312 2.72461,1.49414 1.23047,0.79101 1.49414,1.31836 0.17578,0.17578 0.17578,0.79101 0.0879,0.61524 0.26367,1.05469 0.43946,1.05469 0.79102,2.02148 0.43945,0.87891 0.43945,2.02149 z m -9.75586,0.9668 q 0,-0.17579 -0.0879,-0.35157 0,-0.26367 0,-0.43945 -0.43945,-0.52734 -1.23047,-0.79102 -0.70312,-0.26367 -1.58203,-0.43945 -0.79101,-0.17578 -1.66992,-0.26367 -0.79102,-0.17578 -1.40625,-0.43945 -1.8457,0.61523 -4.04297,0.61523 -2.02148,0 -3.60352,-0.61523 -0.79101,0.79101 -2.02148,1.23046 -1.23047,0.43946 -2.63672,0.70313 -1.31836,0.17578 -2.72461,0.26367 -1.31836,0 -2.37304,0 -0.35157,0 -1.23047,0.52735 -0.87891,0.52734 -1.58203,0.52734 -0.52735,0 -0.9668,-0.43945 -0.79102,0.61523 -2.19727,1.05468 -1.40625,0.43946 -2.90039,0.79102 -1.49414,0.26367 -3.07617,0.61523 -1.49414,0.35157 -2.54883,0.70313 -1.05469,2.28515 -1.14258,5.00976 -0.0879,2.63672 -0.0879,5.18555 0,1.49414 -0.17578,2.90039 -0.17578,1.40625 -0.17578,2.90039 0,0.70313 0.0879,1.49414 0.0879,0.70313 0.52735,1.40625 -0.70313,0.52735 -0.9668,1.40625 -0.17578,0.79102 -0.17578,1.58203 0,0.9668 0.17578,1.75782 0.17578,0.79101 0.35156,1.49414 2.8125,-0.26367 5.09766,-1.05469 2.37304,-0.79102 4.39453,-1.93359 2.10937,-1.14258 4.04297,-2.63672 1.93359,-1.49414 4.04297,-3.16407 0.8789,-0.17578 1.40625,-0.52734 0.61523,-0.35156 1.49414,-0.35156 0.35156,-1.23047 1.31836,-1.66992 0.96679,-0.52735 1.49414,-1.49414 1.05468,-0.26368 1.75781,-0.70313 0.79101,-0.52734 1.49414,-0.9668 0.70312,-0.52734 1.49414,-0.96679 0.87891,-0.43946 1.93359,-0.52735 1.49414,-1.75781 3.07618,-3.51562 1.66992,-1.75781 3.86718,-2.8125 0.35157,-0.87891 0.79102,-1.49414 0.43945,-0.70313 0.79101,-1.31836 0.43946,-0.70313 0.70313,-1.40625 0.26367,-0.79102 0.26367,-1.8457 z" />
    <path
       inkscape:connector-curvature="0"
       id="path4348"
       style="font-style:normal;font-variant:normal;font-weight:normal;font-stretch:normal;font-size:90px;line-height:125%;font-family:'Rock Salt';-inkscape-font-specification:'Rock Salt';letter-spacing:0px;word-spacing:0px;fill:#000000;fill-opacity:1;stroke:#ffffff;stroke-width:2;stroke-linecap:butt;stroke-linejoin:miter;stroke-miterlimit:4;stroke-dasharray:none;stroke-opacity:1"
       d="m 510.52802,482.12036 0,0.35156 q -0.61524,0.17579 -0.61524,0.87891 -0.9668,0.43945 -2.02148,0.70313 -1.05469,0.17578 -2.02149,0.61523 -0.96679,-0.0879 -2.02148,-0.0879 -0.9668,-0.0879 -1.9336,-0.0879 -2.63671,0 -5.27343,0.17578 -2.63672,0.17578 -5.27344,0 -1.23047,0.70312 -2.72461,1.14258 -1.40625,0.35156 -2.72461,0.35156 -1.05469,0 -1.8457,-0.26367 -2.10938,1.05469 -4.65821,1.75781 -2.46093,0.70313 -5.00976,1.40625 -2.54883,0.61524 -4.92188,1.49414 -2.28515,0.79102 -4.04297,2.28516 -0.17578,1.23047 -0.26367,2.46094 -0.0879,1.14257 -0.0879,2.28515 0,1.23047 0.0879,2.28516 0.17578,1.05469 0.61524,2.10937 0.43945,0.17578 0.96679,0.26367 0.61524,0.0879 1.05469,0.0879 0.43945,0 0.87891,-0.0879 0.43945,-0.17578 0.61523,-0.61523 1.31836,-0.17578 2.63672,-0.0879 1.31836,0 2.63672,0 1.31836,0 2.54883,-0.0879 1.31836,-0.0879 2.54883,-0.43945 1.40625,-0.35157 2.72461,-0.43946 1.40625,-0.0879 2.7246,-0.17578 1.31836,-0.0879 2.72461,-0.26367 1.40625,-0.26367 2.90039,-0.9668 1.14258,0.43946 2.28516,0.43946 1.23047,0 2.37305,0.17578 0.61523,0.43945 0.96679,0.96679 0.43946,0.52735 0.43946,1.23047 0,1.23047 -0.87891,2.46094 -0.8789,1.23047 -1.40625,2.28516 l -0.9668,0 q -2.10937,0 -4.13085,0.61523 -1.9336,0.52734 -3.95508,1.31836 -1.9336,0.70313 -3.95508,1.31836 -1.93359,0.52734 -4.04297,0.52734 -0.35156,0 -0.43945,0.43946 0,0.35156 -0.17578,0.52734 -0.43946,-0.0879 -1.31836,-0.0879 -2.02149,0 -3.86719,0.43945 -1.8457,0.43946 -3.7793,0.43946 -0.52734,0 -1.05469,0 -0.52734,-0.0879 -1.05468,-0.17579 -0.43946,0.70313 -1.14258,0.9668 -0.70313,0.17578 -1.31836,0.70313 -0.26367,0.79101 -0.35156,1.93359 0,1.14258 -0.0879,2.37305 0,1.14258 -0.17578,2.19726 -0.17579,1.05469 -0.70313,1.66992 0.0879,0.43946 0.70313,0.35157 0.61523,-0.17578 0.61523,0.52734 0,0.79102 -0.17578,1.66992 -0.17578,0.87891 -0.17578,1.75782 0,1.66992 0.35156,3.6914 0.43945,1.9336 1.23047,3.60352 0.8789,1.66992 2.28515,2.8125 1.40625,1.05468 3.51563,1.05468 1.40625,0 2.63672,-0.52734 1.23047,-0.52734 2.02148,-1.75781 l 0.43946,-0.0879 q 0.35156,0 0.61523,0.0879 0.35156,0.0879 0.70313,0.0879 0.52734,0 1.31835,-0.61524 0.87891,-0.70312 1.84571,-1.58203 1.05469,-0.8789 2.10937,-1.66992 1.05469,-0.8789 2.02149,-1.23047 0.61523,-1.23047 1.14258,-2.46093 0.61523,-1.23047 1.75781,-1.9336 l 0,-2.54883 q 0.8789,-0.96679 1.8457,-1.75781 1.05469,-0.79101 1.58203,-2.02148 0.43946,0.17578 0.79102,0.26367 0.43945,0.0879 0.8789,0.0879 0.43946,0 0.87891,-0.0879 0.52734,-0.0879 0.9668,-0.26367 0.70312,0.96679 1.05468,2.19726 0.43946,1.14258 1.05469,2.19727 -0.79101,1.58203 -1.8457,3.77929 -1.05469,2.19727 -2.28516,4.39454 -1.23047,2.19726 -2.63672,4.21875 -1.31836,1.93359 -2.63671,2.98828 -0.26368,0.26367 -1.14258,0.61523 -0.9668,0.70313 -1.75782,1.31836 -0.79101,0.70313 -1.49414,1.58203 -2.54882,0.79102 -4.92187,2.10938 -2.28516,1.31836 -4.57031,2.54883 -1.05469,-0.26368 -2.28516,-0.26368 -1.05469,0 -2.10937,0.0879 -1.05469,0.17579 -2.28516,0.17579 -0.35156,-0.43946 -1.05469,-0.61524 -0.61523,-0.0879 -0.43945,-0.87891 -2.98828,-0.17578 -4.83399,-1.66992 -1.8457,-1.40625 -3.16406,-3.51562 -1.23047,-2.10938 -2.02148,-4.57031 -0.79102,-2.46094 -1.66992,-4.7461 l 0,-0.26367 q 0,-0.43945 0.35156,-0.52734 0.35156,-0.0879 0.35156,-0.52735 0,-0.17578 -0.0879,-0.26367 -0.26367,-0.9668 -0.43945,-1.66992 -0.17578,-0.70313 -0.17578,-1.66992 0,-1.40625 0.17578,-2.72461 0.17578,-1.40625 0.17578,-2.8125 0,-1.40625 -0.35156,-2.46094 0.35156,-0.43945 0.61523,-1.14258 0.17578,-0.79101 0.26367,-1.58203 0.0879,-0.79102 0.0879,-1.58203 0.0879,-0.79102 0.26367,-1.40625 -0.35156,-0.9668 -0.61523,-1.66992 -0.26367,-0.79102 -0.26367,-1.84571 l 0,-0.61523 q 0.8789,-1.49414 1.49414,-3.07617 0.61523,-1.58203 1.31836,-3.25196 l 0,-0.26367 q 0,-2.54883 -0.17578,-5.09765 -0.17578,-2.54883 -0.17578,-5.09766 l 0,-1.66992 q 0,-0.87891 0.0879,-1.66992 0.70312,-0.35157 1.05468,-0.9668 0.35157,-0.61523 1.05469,-0.9668 l 2.90039,0 0.52735,-0.8789 q 0.26367,-0.43946 0.35156,-0.9668 0.96679,-0.26367 1.8457,-0.70313 0.9668,-0.52734 1.75781,-1.05468 1.23047,-0.70313 2.19727,-1.23047 1.05469,-0.61524 2.02148,-0.9668 1.05469,-0.43945 2.19727,-0.70312 1.14258,-0.26368 2.63672,-0.43946 0.70312,0 0.8789,-0.26367 0.26368,-0.26367 0.70313,-0.61523 1.05469,0.17578 2.10937,0.35156 1.05469,0.0879 2.10938,0.0879 2.10937,0 3.95508,-0.79102 2.63672,0 5.18554,-0.0879 2.63672,-0.0879 5.27344,-0.0879 2.28516,0 4.57031,0.17578 2.28516,0.17579 4.48243,0.61524 0.79101,-0.26367 1.75781,-0.26367 1.05469,0 2.10937,0.26367 1.14258,0.17578 2.19727,0 0.0879,0.9668 0.43945,1.66992 0.43946,0.61524 0.43946,1.49414 z" />
    <path
       inkscape:connector-curvature="0"
       id="path4350"
       style="font-style:normal;font-variant:normal;font-weight:normal;font-stretch:normal;font-size:90px;line-height:125%;font-family:'Rock Salt';-inkscape-font-specification:'Rock Salt';letter-spacing:0px;word-spacing:0px;fill:#000000;fill-opacity:1;stroke:#ffffff;stroke-width:2;stroke-linecap:butt;stroke-linejoin:miter;stroke-miterlimit:4;stroke-dasharray:none;stroke-opacity:1"
       d="m 604.80927,522.72583 q -0.17579,1.31836 -0.9668,2.02148 -0.70313,0.70313 -1.66992,1.31836 -0.43946,-0.0879 -0.87891,-0.0879 -0.35156,-0.0879 -0.79102,-0.0879 -2.7246,-0.0879 -5.18554,0.70313 -2.37305,0.79101 -4.92188,1.14258 -0.8789,0.17578 -1.66992,0.17578 -0.70312,-0.0879 -1.49414,0.0879 -2.8125,0.43945 -5.97656,0.70312 -3.16406,0.26367 -6.32813,0.70313 -3.16406,0.35156 -6.24023,0.96679 -2.98828,0.52735 -5.625,1.58204 -0.26367,-0.17579 -0.52735,-0.35157 -0.26367,-0.26367 -0.61523,-0.26367 -0.87891,0 -1.66992,0.26367 -0.79102,0.26368 -1.58203,0.17578 -0.87891,0.52735 -1.9336,0.79102 -0.96679,0.17578 -2.02148,0.35156 -0.9668,0.0879 -1.93359,0.35157 -0.9668,0.26367 -1.84571,0.96679 -0.70312,-0.35156 -1.75781,-0.35156 -0.9668,-0.0879 -1.31836,-0.70313 -2.02148,0.9668 -4.30664,1.23047 -2.19727,0.26368 -4.48242,0.17578 -1.49414,-0.0879 -3.42774,-0.43945 -1.93359,-0.35156 -3.86718,-0.9668 -1.9336,-0.70312 -3.60352,-1.58203 -1.66992,-0.96679 -2.54883,-2.28515 -0.61523,-0.87891 -0.8789,-1.9336 -0.26368,-1.05468 -1.23047,-1.58203 0.26367,-2.02148 0.61523,-3.95508 0.35156,-1.93359 0.70313,-3.95507 1.75781,-1.49414 3.33984,-3.16407 1.58203,-1.66992 2.98828,-3.51562 1.66992,-0.79102 3.07617,-1.9336 1.49414,-1.14257 2.90039,-2.28515 1.49414,-1.23047 2.90039,-2.37305 1.49415,-1.14258 3.16407,-2.02148 0.26367,-0.61524 0.70312,-0.9668 0.52735,-0.43945 1.05469,-0.79102 0.52734,-0.43945 0.9668,-0.8789 0.43945,-0.52735 0.61523,-1.23047 3.07617,-1.8457 5.36133,-4.6582 2.28516,-2.8125 2.98828,-6.32813 -1.49414,-1.23047 -3.42773,-1.58203 -1.84571,-0.43945 -3.86719,-0.61523 -1.75781,-0.0879 -3.69141,0 -1.8457,0.0879 -3.77929,-0.0879 -1.9336,0.61523 -4.04297,0.79101 -2.02149,0.17578 -4.04297,0.35156 -2.02149,0.0879 -4.04297,0.52735 -1.93359,0.35156 -3.7793,1.40625 -0.35156,0 -0.70312,-0.0879 -0.26367,-0.0879 -0.61524,-0.0879 -2.8125,-0.0879 -5.27343,1.14257 -2.46094,1.14258 -4.83399,2.28516 -0.17578,0.35156 -0.17578,0.52734 0,0.52735 0.17578,1.05469 0.26367,0.43945 0.26367,0.9668 -0.0879,0.0879 -0.0879,0.17578 0,0.0879 -0.0879,0.17578 -0.0879,0.43945 -0.26367,0.79102 -0.0879,0.35156 -0.26367,0.79101 -0.9668,2.8125 -1.05469,5.53711 -0.0879,2.28516 0,4.48242 0.0879,2.19727 0,4.48243 -0.17578,2.8125 -0.87891,5.27343 0.43946,2.10938 0.79102,4.48242 0.35156,2.28516 0.87891,4.57032 0.52734,2.28515 1.23046,4.48242 0.79102,2.10937 2.02149,4.04297 -0.0879,0.17578 0.0879,0.26367 0.17578,0.0879 0.35156,0.0879 l 0.70313,0 q 0.43945,0 0.35156,0.35156 0.17578,0.26367 0.26367,0.52735 0.0879,0.17578 0.35156,0.35156 0.17579,0.26367 0,0.70312 -0.0879,1.75782 -0.8789,3.25196 -0.79102,1.49414 -0.9668,3.25195 -1.05469,0.26367 -1.93359,0.26367 -1.49414,-0.0879 -2.63672,-0.8789 -1.14258,-0.70313 -2.10938,-1.75782 -0.96679,-1.05468 -1.8457,-2.10937 -0.87891,-1.14258 -1.93359,-1.9336 -0.61524,-2.46093 -1.23047,-5.44921 -0.52735,-2.98829 -1.84571,-5.09766 0.35157,-0.79102 0.35157,-1.93359 0.0879,-1.75782 -0.35157,-3.42774 -0.35156,-1.75781 -0.17578,-3.51562 0,-0.9668 0.17578,-1.9336 0.26368,-0.96679 0.35157,-1.93359 0.0879,-1.49414 -0.35157,-2.90039 -0.35156,-1.40625 -0.26367,-2.90039 0.0879,-0.70313 0.26367,-1.31836 0.26368,-0.70313 0.70313,-1.23047 -0.43945,-1.05469 -0.26367,-2.02148 0.0879,-1.49415 0.35156,-2.8125 0.26367,-1.31836 0.35156,-2.63672 0,-0.70313 -0.0879,-1.31836 -0.0879,-0.70313 -0.26367,-1.31836 l -0.79102,-0.26367 q -0.52734,0 -1.05468,0.26367 -0.43946,0.26367 -0.79102,0.61523 -0.35156,0.35156 -0.61523,0.61524 -0.26367,0.17578 -0.52735,0.17578 -0.17578,0 -0.43945,0 -0.17578,-0.0879 -0.35156,-0.0879 -0.17578,0 -0.70313,0.35156 -0.43945,0.35156 -1.14258,0.79102 -0.61523,0.35156 -1.23046,0.79101 -0.61524,0.35156 -0.9668,0.43945 -0.9668,-0.17578 -1.58203,-0.61523 -0.52735,-0.52734 -1.05469,-0.9668 -0.43945,-0.52734 -0.9668,-0.8789 -0.52734,-0.43946 -1.31836,-0.35157 -0.26367,-0.52734 -0.26367,-1.14257 -0.0879,-0.61524 0,-1.23047 l 0,-1.40625 q 0.61524,-1.14258 1.66992,-1.84571 0.9668,-0.79101 2.10938,-1.31836 l 2.28516,-1.05468 q 1.14257,-0.52735 2.10937,-1.31836 l 0.79102,0 q 1.58203,0.0879 2.72461,-0.61524 1.23046,-0.70312 2.28515,-1.58203 1.05469,-0.96679 2.10938,-1.93359 1.14257,-0.9668 2.46093,-1.49414 0.9668,0.43945 2.02149,0.79101 1.05469,0.26368 2.19726,0.35157 1.14258,0 2.37305,-0.35157 1.23047,-0.35156 1.93359,-1.31836 0.43946,0.17579 0.70313,0.26368 0.35156,0 0.79102,0 1.31835,0.0879 2.63671,-0.35157 1.31836,-0.52734 2.54883,-1.23047 1.75781,0.0879 3.42774,-0.17578 1.75781,-0.35156 3.42773,-0.70312 1.75781,-0.35156 3.42774,-0.61524 1.75781,-0.35156 3.51562,-0.26367 2.90039,0.0879 5.71289,-0.52734 2.8125,-0.61524 5.71289,-0.43945 2.02149,0.0879 3.95508,0.35156 2.02148,0.17578 4.04297,0.0879 1.14258,0.52734 2.02148,0.9668 0.9668,0.35156 2.37305,0.17578 2.8125,2.37304 5.09766,5.53711 l 0,1.49414 q -0.0879,2.02148 -0.70313,3.95507 -0.61523,1.9336 -1.49414,3.86719 -0.79102,1.84571 -1.75781,3.69141 -0.9668,1.75781 -1.84571,3.51562 -5.71289,5.18555 -11.42578,10.28321 -5.71289,5.09765 -11.77734,9.84375 -0.17578,0.8789 -0.52734,1.58203 -0.26368,0.70312 -0.35157,1.49414 0,0.43945 0.0879,0.70312 0.61524,0.17578 1.05469,0.70313 0.52735,0.43945 0.35156,1.23047 l 0.79102,0 q 0.43945,0 0.43945,0.35156 l 1.40625,0.0879 q 3.33985,0.17578 6.67969,-0.17578 3.33984,-0.35156 6.67969,-0.79102 3.42773,-0.43945 6.76758,-0.79101 3.33984,-0.43946 6.67968,-0.52735 0.79102,-0.26367 1.66993,-0.43945 0.8789,-0.17578 1.58203,-0.70312 l 0.26367,0 q 0.61523,0 0.8789,0.35156 0.35157,0.35156 0.9668,0.43945 0.43945,0 0.87891,-0.17578 0.52734,-0.17578 1.05469,-0.26367 1.23046,-0.35156 2.54882,-0.43945 1.40625,-0.0879 2.72461,-0.26368 5.09766,-0.43945 10.10742,-0.52734 5.00977,-0.17578 10.01954,-1.31836 0.43945,0.61523 1.23046,0.87891 0.79102,0.17578 1.66993,0.43945 0.8789,0.17578 1.58203,0.43945 0.79101,0.26367 1.05469,1.05469 z" />
    <path
       inkscape:connector-curvature="0"
       id="path4352"
       style="font-style:normal;font-variant:normal;font-weight:normal;font-stretch:normal;font-size:90px;line-height:125%;font-family:'Rock Salt';-inkscape-font-specification:'Rock Salt';letter-spacing:0px;word-spacing:0px;fill:#000000;fill-opacity:1;stroke:#ffffff;stroke-width:2;stroke-linecap:butt;stroke-linejoin:miter;stroke-miterlimit:4;stroke-dasharray:none;stroke-opacity:1"
       d="m 626.99872,494.68872 q 0,0.87891 -0.61524,1.14258 -0.61523,0.26367 -0.61523,1.05469 0,0.26367 0.17578,0.43945 0.17578,0.17578 0.17578,0.52734 l 0,0.35157 q -1.05469,5.09765 -3.07617,8.87695 -1.93359,3.7793 -4.57031,6.94336 -2.63672,3.16406 -5.97656,5.97656 -3.25196,2.8125 -7.03125,5.88867 -1.05469,0.87891 -2.19727,1.75782 -1.05469,0.8789 -2.02148,1.8457 l -1.9336,1.8457 q -0.0879,0.0879 -0.9668,0.43945 -0.8789,0.26368 -1.05468,0.35157 -1.23047,0.52734 -2.63672,1.23047 -1.31836,0.70312 -2.28516,1.75781 -1.75781,0 -2.98828,0.52734 -1.23047,0.52735 -2.72461,1.40625 -0.43945,0 -0.79101,-0.17578 -0.26368,-0.17578 -0.61524,-0.35156 -0.35156,-0.17578 -0.79101,-0.17578 -0.35157,-0.0879 -0.9668,0.0879 -1.05469,-1.75781 -2.28516,-2.98828 -1.23047,-1.23047 -3.33984,-1.49414 -0.26367,-1.49414 -1.23047,-2.28516 -0.9668,-0.87891 -1.93359,-1.8457 -0.17578,-0.52735 -0.26368,-1.23047 -0.0879,-0.70313 -0.35156,-1.31836 -0.26367,-0.61524 -0.70312,-1.05469 -0.43946,-0.43945 -1.23047,-0.43945 -0.0879,-0.52735 0.43945,-0.52735 0.52735,0 0.52735,-0.43945 0,-0.52734 -0.17579,-1.05469 -0.17578,-0.52734 -0.17578,-1.14257 0,-0.43946 0.0879,-0.79102 0.0879,-0.35156 0.26368,-0.79102 -0.26368,-2.37304 -0.26368,-4.83398 0,-4.74609 0.61524,-9.31641 0.70312,-4.6582 0.70312,-9.40429 0,-2.10938 -0.26367,-4.21875 -0.17578,-2.10938 -0.79101,-4.13086 -2.02149,0.43945 -4.04297,1.05468 -2.02149,0.52735 -3.7793,1.49415 -0.9668,-0.61524 -2.02148,-0.70313 -1.14258,-0.17578 -2.19727,-0.52734 -0.61523,-1.23047 -0.61523,-2.54883 0,-1.23047 0.43945,-2.37305 l 0.8789,-2.28515 q 2.10938,-0.43946 4.21875,-1.31836 2.02149,-0.87891 4.13086,-1.58204 0.70313,-0.17578 1.75782,-0.43945 1.14257,-0.26367 1.58203,-0.43945 0.61523,-0.26367 0.79101,-0.9668 0.26368,-0.79101 0.70313,-1.31836 l 1.49414,0 q 0.52734,0 1.14258,0.0879 0.61523,0 1.14258,0.26367 3.16406,-0.79101 6.32812,-0.96679 3.16406,-0.26367 6.50391,-0.70313 0.35156,0 1.05468,-0.0879 l 1.49414,-0.26367 q 0.79102,-0.17578 1.40625,-0.26367 0.70313,-0.17578 0.9668,-0.17578 0.26367,0 0.26367,0.26367 l 1.49414,0 q 3.7793,0 7.38282,0.9668 l 7.20703,1.93359 q 1.49414,1.23047 2.98828,2.37305 1.49414,1.14257 3.33984,2.02148 0.43946,1.40625 1.31836,2.28516 0.9668,0.79101 2.10938,1.75781 0.43945,1.14258 1.14258,2.46094 0.79101,1.23047 1.49414,2.54883 0.70312,1.31835 1.23046,2.63671 0.52735,1.23047 0.52735,2.37305 z m -8.17383,1.31836 q -0.9668,-2.02148 -1.8457,-4.21875 -0.87891,-2.19727 -2.19727,-3.95508 -1.58203,-0.43945 -3.25195,-1.05469 -1.58203,-0.70312 -2.19727,-2.37304 -0.17578,0.0879 -0.61523,0.0879 -0.79102,0 -1.40625,-0.61524 -0.61524,-0.61523 -1.40625,-0.79101 -0.70313,-0.0879 -1.9336,-0.26367 -1.14257,-0.17578 -2.46093,-0.26368 -1.31836,-0.0879 -2.63672,-0.17578 -1.23047,-0.0879 -1.9336,-0.0879 -0.70312,0 -1.49414,0.0879 -0.70312,0 -1.49414,0.0879 -0.70312,0 -0.8789,0.26368 -0.17578,0.17578 -0.70313,0.35156 -0.43945,-0.17578 -0.96679,-0.17578 l -1.05469,0 q -1.84571,0 -3.69141,0.61523 -1.75781,0.52735 -3.51562,1.49414 l 0,0.35156 q 0,0.70313 0.61523,0.79102 0.61524,0.0879 0.70313,0.70313 -0.43946,0 -0.70313,0.0879 -0.26367,0 -0.26367,0.61523 0,0.87891 0.17578,1.93359 0.26367,1.05469 0.26367,2.10938 0,0.79101 -0.17578,1.8457 -0.17578,1.05469 -0.87891,1.66992 0.87891,0.79102 0.87891,2.10938 0,0.87891 -0.35156,1.8457 -0.35156,0.9668 -0.87891,1.66992 -0.17578,3.69141 -0.70312,7.47071 -0.52735,3.77929 -0.52735,7.4707 0,1.8457 0.17578,3.60352 0.26368,1.75781 0.79102,3.51562 0.9668,0.9668 2.02148,1.49414 1.14258,0.52735 2.37305,1.05469 l 0,0.26367 q 0,0.26367 -0.35156,0.52734 -0.35156,0.26368 -0.35156,0.70313 0,0.35156 0.35156,0.35156 3.69141,-1.05469 6.94336,-2.54883 3.25195,-1.49414 6.06445,-4.04296 0.26367,-0.26368 0.52735,-0.26368 0.17578,0 0.43945,0.0879 0.35156,0.0879 0.61523,0.17579 l -0.0879,-0.35157 q 0,-0.52734 0.26367,-0.96679 0.35157,-0.43946 0.79102,-0.79102 l 0.87891,-0.79102 q 0.43945,-0.43945 0.70312,-0.8789 0.70313,-0.17578 0.9668,-0.70313 0.35156,-0.52734 1.14258,-0.52734 0.17578,-0.9668 0.96679,-1.40625 0.79102,-0.52734 0.9668,-1.49414 1.75781,-0.9668 3.07617,-2.37305 1.40625,-1.40625 2.54883,-2.98828 1.23047,-1.58203 2.28516,-3.25195 1.05468,-1.75781 2.19726,-3.33985 l 0,-0.35156 q 0,-1.40625 0.43945,-2.28515 0.52735,-0.87891 0.79102,-2.10938 z" />
    <path
       inkscape:connector-curvature="0"
       id="path4354"
       style="font-style:normal;font-variant:normal;font-weight:normal;font-stretch:normal;font-size:90px;line-height:125%;font-family:'Rock Salt';-inkscape-font-specification:'Rock Salt';letter-spacing:0px;word-spacing:0px;fill:#000000;fill-opacity:1;stroke:#ffffff;stroke-width:2;stroke-linecap:butt;stroke-linejoin:miter;stroke-miterlimit:4;stroke-dasharray:none;stroke-opacity:1"
       d="m 672.50067,482.12036 0,0.35156 q -0.61523,0.17579 -0.61523,0.87891 -0.9668,0.43945 -2.02149,0.70313 -1.05468,0.17578 -2.02148,0.61523 -0.9668,-0.0879 -2.02149,-0.0879 -0.96679,-0.0879 -1.93359,-0.0879 -2.63672,0 -5.27344,0.17578 -2.63672,0.17578 -5.27343,0 -1.23047,0.70312 -2.72461,1.14258 -1.40625,0.35156 -2.72461,0.35156 -1.05469,0 -1.84571,-0.26367 -2.10937,1.05469 -4.6582,1.75781 -2.46094,0.70313 -5.00977,1.40625 -2.54882,0.61524 -4.92187,1.49414 -2.28516,0.79102 -4.04297,2.28516 -0.17578,1.23047 -0.26367,2.46094 -0.0879,1.14257 -0.0879,2.28515 0,1.23047 0.0879,2.28516 0.17578,1.05469 0.61523,2.10937 0.43946,0.17578 0.9668,0.26367 0.61523,0.0879 1.05469,0.0879 0.43945,0 0.8789,-0.0879 0.43946,-0.17578 0.61524,-0.61523 1.31836,-0.17578 2.63672,-0.0879 1.31836,0 2.63672,0 1.31836,0 2.54882,-0.0879 1.31836,-0.0879 2.54883,-0.43945 1.40625,-0.35157 2.72461,-0.43946 1.40625,-0.0879 2.72461,-0.17578 1.31836,-0.0879 2.72461,-0.26367 1.40625,-0.26367 2.90039,-0.9668 1.14258,0.43946 2.28516,0.43946 1.23047,0 2.37304,0.17578 0.61524,0.43945 0.9668,0.96679 0.43945,0.52735 0.43945,1.23047 0,1.23047 -0.8789,2.46094 -0.87891,1.23047 -1.40625,2.28516 l -0.9668,0 q -2.10937,0 -4.13086,0.61523 -1.93359,0.52734 -3.95508,1.31836 -1.93359,0.70313 -3.95507,1.31836 -1.9336,0.52734 -4.04297,0.52734 -0.35157,0 -0.43946,0.43946 0,0.35156 -0.17578,0.52734 -0.43945,-0.0879 -1.31836,-0.0879 -2.02148,0 -3.86718,0.43945 -1.84571,0.43946 -3.7793,0.43946 -0.52735,0 -1.05469,0 -0.52734,-0.0879 -1.05469,-0.17579 -0.43945,0.70313 -1.14257,0.9668 -0.70313,0.17578 -1.31836,0.70313 -0.26368,0.79101 -0.35157,1.93359 0,1.14258 -0.0879,2.37305 0,1.14258 -0.17578,2.19726 -0.17578,1.05469 -0.70312,1.66992 0.0879,0.43946 0.70312,0.35157 0.61524,-0.17578 0.61524,0.52734 0,0.79102 -0.17579,1.66992 -0.17578,0.87891 -0.17578,1.75782 0,1.66992 0.35157,3.6914 0.43945,1.9336 1.23046,3.60352 0.87891,1.66992 2.28516,2.8125 1.40625,1.05468 3.51563,1.05468 1.40625,0 2.63671,-0.52734 1.23047,-0.52734 2.02149,-1.75781 l 0.43945,-0.0879 q 0.35156,0 0.61524,0.0879 0.35156,0.0879 0.70312,0.0879 0.52735,0 1.31836,-0.61524 0.87891,-0.70312 1.8457,-1.58203 1.05469,-0.8789 2.10938,-1.66992 1.05469,-0.8789 2.02148,-1.23047 0.61524,-1.23047 1.14258,-2.46093 0.61524,-1.23047 1.75781,-1.9336 l 0,-2.54883 q 0.87891,-0.96679 1.84571,-1.75781 1.05468,-0.79101 1.58203,-2.02148 0.43945,0.17578 0.79101,0.26367 0.43946,0.0879 0.87891,0.0879 0.43945,0 0.87891,-0.0879 0.52734,-0.0879 0.96679,-0.26367 0.70313,0.96679 1.05469,2.19726 0.43945,1.14258 1.05469,2.19727 -0.79102,1.58203 -1.8457,3.77929 -1.05469,2.19727 -2.28516,4.39454 -1.23047,2.19726 -2.63672,4.21875 -1.31836,1.93359 -2.63672,2.98828 -0.26367,0.26367 -1.14258,0.61523 -0.96679,0.70313 -1.75781,1.31836 -0.79101,0.70313 -1.49414,1.58203 -2.54883,0.79102 -4.92187,2.10938 -2.28516,1.31836 -4.57032,2.54883 -1.05468,-0.26368 -2.28515,-0.26368 -1.05469,0 -2.10938,0.0879 -1.05469,0.17579 -2.28515,0.17579 -0.35157,-0.43946 -1.05469,-0.61524 -0.61524,-0.0879 -0.43946,-0.87891 -2.98828,-0.17578 -4.83398,-1.66992 -1.8457,-1.40625 -3.16406,-3.51562 -1.23047,-2.10938 -2.02149,-4.57031 -0.79101,-2.46094 -1.66992,-4.7461 l 0,-0.26367 q 0,-0.43945 0.35156,-0.52734 0.35157,-0.0879 0.35157,-0.52735 0,-0.17578 -0.0879,-0.26367 -0.26368,-0.9668 -0.43946,-1.66992 -0.17578,-0.70313 -0.17578,-1.66992 0,-1.40625 0.17578,-2.72461 0.17578,-1.40625 0.17578,-2.8125 0,-1.40625 -0.35156,-2.46094 0.35156,-0.43945 0.61524,-1.14258 0.17578,-0.79101 0.26367,-1.58203 0.0879,-0.79102 0.0879,-1.58203 0.0879,-0.79102 0.26367,-1.40625 -0.35156,-0.9668 -0.61523,-1.66992 -0.26368,-0.79102 -0.26368,-1.84571 l 0,-0.61523 q 0.87891,-1.49414 1.49414,-3.07617 0.61524,-1.58203 1.31836,-3.25196 l 0,-0.26367 q 0,-2.54883 -0.17578,-5.09765 -0.17578,-2.54883 -0.17578,-5.09766 l 0,-1.66992 q 0,-0.87891 0.0879,-1.66992 0.70313,-0.35157 1.05469,-0.9668 0.35156,-0.61523 1.05469,-0.9668 l 2.90039,0 0.52734,-0.8789 q 0.26367,-0.43946 0.35156,-0.9668 0.9668,-0.26367 1.84571,-0.70313 0.96679,-0.52734 1.75781,-1.05468 1.23047,-0.70313 2.19727,-1.23047 1.05468,-0.61524 2.02148,-0.9668 1.05469,-0.43945 2.19727,-0.70312 1.14257,-0.26368 2.63671,-0.43946 0.70313,0 0.87891,-0.26367 0.26367,-0.26367 0.70313,-0.61523 1.05468,0.17578 2.10937,0.35156 1.05469,0.0879 2.10938,0.0879 2.10937,0 3.95507,-0.79102 2.63672,0 5.18555,-0.0879 2.63672,-0.0879 5.27344,-0.0879 2.28515,0 4.57031,0.17578 2.28516,0.17579 4.48242,0.61524 0.79102,-0.26367 1.75781,-0.26367 1.05469,0 2.10938,0.26367 1.14258,0.17578 2.19727,0 0.0879,0.9668 0.43945,1.66992 0.43945,0.61524 0.43945,1.49414 z" />
    <path
       inkscape:connector-curvature="0"
       id="path4356"
       style="font-style:normal;font-variant:normal;font-weight:normal;font-stretch:normal;font-size:90px;line-height:125%;font-family:'Rock Salt';-inkscape-font-specification:'Rock Salt';letter-spacing:0px;word-spacing:0px;fill:#000000;fill-opacity:1;stroke:#ffffff;stroke-width:2;stroke-linecap:butt;stroke-linejoin:miter;stroke-miterlimit:4;stroke-dasharray:none;stroke-opacity:1"
       d="m 716.00458,482.12036 0,0.35156 q -0.61524,0.17579 -0.61524,0.87891 -0.96679,0.43945 -2.02148,0.70313 -1.05469,0.17578 -2.02149,0.61523 -0.96679,-0.0879 -2.02148,-0.0879 -0.9668,-0.0879 -1.93359,-0.0879 -2.63672,0 -5.27344,0.17578 -2.63672,0.17578 -5.27344,0 -1.23047,0.70312 -2.72461,1.14258 -1.40625,0.35156 -2.72461,0.35156 -1.05468,0 -1.8457,-0.26367 -2.10938,1.05469 -4.6582,1.75781 -2.46094,0.70313 -5.00977,1.40625 -2.54883,0.61524 -4.92187,1.49414 -2.28516,0.79102 -4.04297,2.28516 -0.17578,1.23047 -0.26367,2.46094 -0.0879,1.14257 -0.0879,2.28515 0,1.23047 0.0879,2.28516 0.17578,1.05469 0.61523,2.10937 0.43945,0.17578 0.9668,0.26367 0.61523,0.0879 1.05468,0.0879 0.43946,0 0.87891,-0.0879 0.43945,-0.17578 0.61523,-0.61523 1.31836,-0.17578 2.63672,-0.0879 1.31836,0 2.63672,0 1.31836,0 2.54883,-0.0879 1.31836,-0.0879 2.54883,-0.43945 1.40625,-0.35157 2.72461,-0.43946 1.40625,-0.0879 2.72461,-0.17578 1.31836,-0.0879 2.72461,-0.26367 1.40625,-0.26367 2.90039,-0.9668 1.14258,0.43946 2.28515,0.43946 1.23047,0 2.37305,0.17578 0.61523,0.43945 0.9668,0.96679 0.43945,0.52735 0.43945,1.23047 0,1.23047 -0.87891,2.46094 -0.8789,1.23047 -1.40625,2.28516 l -0.96679,0 q -2.10938,0 -4.13086,0.61523 -1.9336,0.52734 -3.95508,1.31836 -1.93359,0.70313 -3.95508,1.31836 -1.93359,0.52734 -4.04297,0.52734 -0.35156,0 -0.43945,0.43946 0,0.35156 -0.17578,0.52734 -0.43945,-0.0879 -1.31836,-0.0879 -2.02149,0 -3.86719,0.43945 -1.8457,0.43946 -3.7793,0.43946 -0.52734,0 -1.05468,0 -0.52735,-0.0879 -1.05469,-0.17579 -0.43945,0.70313 -1.14258,0.9668 -0.70312,0.17578 -1.31836,0.70313 -0.26367,0.79101 -0.35156,1.93359 0,1.14258 -0.0879,2.37305 0,1.14258 -0.17578,2.19726 -0.17578,1.05469 -0.70313,1.66992 0.0879,0.43946 0.70313,0.35157 0.61523,-0.17578 0.61523,0.52734 0,0.79102 -0.17578,1.66992 -0.17578,0.87891 -0.17578,1.75782 0,1.66992 0.35156,3.6914 0.43946,1.9336 1.23047,3.60352 0.87891,1.66992 2.28516,2.8125 1.40625,1.05468 3.51562,1.05468 1.40625,0 2.63672,-0.52734 1.23047,-0.52734 2.02149,-1.75781 l 0.43945,-0.0879 q 0.35156,0 0.61523,0.0879 0.35157,0.0879 0.70313,0.0879 0.52734,0 1.31836,-0.61524 0.8789,-0.70312 1.8457,-1.58203 1.05469,-0.8789 2.10938,-1.66992 1.05468,-0.8789 2.02148,-1.23047 0.61523,-1.23047 1.14258,-2.46093 0.61523,-1.23047 1.75781,-1.9336 l 0,-2.54883 q 0.87891,-0.96679 1.8457,-1.75781 1.05469,-0.79101 1.58203,-2.02148 0.43946,0.17578 0.79102,0.26367 0.43945,0.0879 0.87891,0.0879 0.43945,0 0.8789,-0.0879 0.52735,-0.0879 0.9668,-0.26367 0.70312,0.96679 1.05469,2.19726 0.43945,1.14258 1.05468,2.19727 -0.79101,1.58203 -1.8457,3.77929 -1.05469,2.19727 -2.28515,4.39454 -1.23047,2.19726 -2.63672,4.21875 -1.31836,1.93359 -2.63672,2.98828 -0.26367,0.26367 -1.14258,0.61523 -0.9668,0.70313 -1.75781,1.31836 -0.79102,0.70313 -1.49414,1.58203 -2.54883,0.79102 -4.92188,2.10938 -2.28515,1.31836 -4.57031,2.54883 -1.05469,-0.26368 -2.28516,-0.26368 -1.05468,0 -2.10937,0.0879 -1.05469,0.17579 -2.28516,0.17579 -0.35156,-0.43946 -1.05469,-0.61524 -0.61523,-0.0879 -0.43945,-0.87891 -2.98828,-0.17578 -4.83398,-1.66992 -1.84571,-1.40625 -3.16407,-3.51562 -1.23046,-2.10938 -2.02148,-4.57031 -0.79102,-2.46094 -1.66992,-4.7461 l 0,-0.26367 q 0,-0.43945 0.35156,-0.52734 0.35156,-0.0879 0.35156,-0.52735 0,-0.17578 -0.0879,-0.26367 -0.26367,-0.9668 -0.43945,-1.66992 -0.17578,-0.70313 -0.17578,-1.66992 0,-1.40625 0.17578,-2.72461 0.17578,-1.40625 0.17578,-2.8125 0,-1.40625 -0.35156,-2.46094 0.35156,-0.43945 0.61523,-1.14258 0.17578,-0.79101 0.26367,-1.58203 0.0879,-0.79102 0.0879,-1.58203 0.0879,-0.79102 0.26368,-1.40625 -0.35157,-0.9668 -0.61524,-1.66992 -0.26367,-0.79102 -0.26367,-1.84571 l 0,-0.61523 q 0.87891,-1.49414 1.49414,-3.07617 0.61524,-1.58203 1.31836,-3.25196 l 0,-0.26367 q 0,-2.54883 -0.17578,-5.09765 -0.17578,-2.54883 -0.17578,-5.09766 l 0,-1.66992 q 0,-0.87891 0.0879,-1.66992 0.70312,-0.35157 1.05469,-0.9668 0.35156,-0.61523 1.05468,-0.9668 l 2.90039,0 0.52735,-0.8789 q 0.26367,-0.43946 0.35156,-0.9668 0.9668,-0.26367 1.8457,-0.70313 0.9668,-0.52734 1.75782,-1.05468 1.23046,-0.70313 2.19726,-1.23047 1.05469,-0.61524 2.02149,-0.9668 1.05468,-0.43945 2.19726,-0.70312 1.14258,-0.26368 2.63672,-0.43946 0.70313,0 0.87891,-0.26367 0.26367,-0.26367 0.70312,-0.61523 1.05469,0.17578 2.10938,0.35156 1.05468,0.0879 2.10937,0.0879 2.10938,0 3.95508,-0.79102 2.63672,0 5.18555,-0.0879 2.63672,-0.0879 5.27343,-0.0879 2.28516,0 4.57032,0.17578 2.28515,0.17579 4.48242,0.61524 0.79101,-0.26367 1.75781,-0.26367 1.05469,0 2.10938,0.26367 1.14257,0.17578 2.19726,0 0.0879,0.9668 0.43945,1.66992 0.43946,0.61524 0.43946,1.49414 z" />
    <path
       inkscape:connector-curvature="0"
       id="path4358"
       style="font-style:normal;font-variant:normal;font-weight:normal;font-stretch:normal;font-size:90px;line-height:125%;font-family:'Rock Salt';-inkscape-font-specification:'Rock Salt';letter-spacing:0px;word-spacing:0px;fill:#000000;fill-opacity:1;stroke:#ffffff;stroke-width:2;stroke-linecap:butt;stroke-linejoin:miter;stroke-miterlimit:4;stroke-dasharray:none;stroke-opacity:1"
       d="m 763.70575,480.27466 q -0.17578,1.05469 -0.52734,1.8457 -0.26368,0.70313 -0.0879,1.9336 -0.87891,0.0879 -1.40625,0.61523 -0.43946,0.43945 -0.79102,1.05469 -0.26367,0.61523 -0.61523,1.31836 -0.26368,0.61523 -0.70313,1.14257 0.70313,3.16407 0.79102,6.41602 0.0879,3.25195 0.43945,6.41602 0.43945,4.04296 1.31836,7.99804 0.9668,3.86719 0.9668,7.91016 0,1.23047 -0.0879,2.28516 0,1.05468 0,2.19726 0,0.70313 0,1.49414 0.0879,0.70313 0.0879,1.40625 0,2.54883 -0.70313,5.09766 -0.61523,2.54883 -0.9668,5.09765 -1.05468,0.9668 -1.8457,2.10938 -0.70312,1.14258 -1.49414,2.10937 -0.79102,0.9668 -1.8457,1.66993 -1.05469,0.79101 -2.63672,1.05468 -0.26367,0.87891 -1.05469,1.31836 -0.70312,0.43946 -1.23047,1.23047 l -0.17578,0 q -2.19727,0 -3.7793,-0.61523 -1.58203,-0.61524 -2.98828,-1.40625 -1.31836,-0.79102 -2.72461,-1.66992 -1.40625,-0.87891 -3.25195,-1.40625 -2.46094,-2.02149 -4.48242,-4.39454 -2.02149,-2.46093 -4.57031,-4.39453 -0.61524,-1.75781 -1.66993,-2.90039 -0.96679,-1.14258 -1.93359,-2.63672 -0.43945,-0.61523 -0.70313,-1.14257 -0.17578,-0.52735 -0.52734,-1.23047 -0.26367,-0.70313 -0.87891,-0.9668 -0.52734,-0.26367 -0.96679,-0.61523 -0.70313,-2.72461 -2.02149,-5.00977 -1.31836,-2.28516 -3.07617,-4.39453 -0.52734,0.9668 -0.8789,2.10937 -0.26368,1.05469 -0.52735,2.19727 -0.26367,1.05469 -0.70312,2.19726 -0.35157,1.05469 -0.9668,1.9336 l 0,0.26367 q 0,0.43945 0.35156,0.52734 0.35156,0.0879 0.35156,0.52735 0,0.0879 -0.0879,0.17578 0,0.0879 0,0.17578 -0.43945,0.35156 -0.70312,0.87891 -0.17578,0.52734 -0.87891,0.61523 0.0879,0.43945 0.0879,0.87891 l 0,0.79101 q 0,2.54883 -0.61523,5.09766 -0.52734,2.54883 -0.52734,5.18555 l 0,1.14257 q 0,0.61524 0.0879,1.14258 0.17578,0.52735 0.52734,1.05469 0.35156,0.52734 0.35156,0.9668 0,0.61523 -0.52734,1.14257 0.61523,0.43946 1.40625,0.9668 0.79101,0.52735 1.40625,1.14258 0.70312,0.70312 1.14258,1.40625 0.43945,0.79102 0.43945,1.66992 0,1.49414 -0.9668,2.10938 -0.96679,0.61523 -2.37304,0.96679 -1.31836,0.35157 -2.8125,0.61524 -1.40625,0.35156 -2.37305,1.14258 l -0.26367,0 q -1.05469,0 -1.58203,-0.61524 -0.52735,-0.61523 -1.58204,-0.61523 -1.66992,-2.72461 -2.28515,-6.15235 -0.61524,-3.33984 -0.61524,-6.41601 0,-3.7793 0.70313,-7.5586 0.61523,-3.77929 1.58203,-7.4707 0.87891,-3.69141 1.93359,-7.29492 1.14258,-3.69141 2.10938,-7.38281 l 0.0879,-0.26368 q 0,-0.43945 -0.26367,-0.61523 -0.17578,-0.17578 -0.17578,-0.52734 0,-0.17578 0.0879,-0.17578 0.26367,-0.87891 0.52734,-1.66993 0.35156,-0.79101 0.52734,-1.75781 0.52735,-2.46094 0.70313,-5.00976 0.26367,-2.63672 0.26367,-5.18555 0.0879,-2.54883 0.17578,-5.09766 0.17578,-2.63672 0.61524,-5.18554 0.70312,-0.70313 1.31836,-1.49415 0.61523,-0.79101 1.58203,-1.40625 1.75781,0.0879 3.51562,0.52735 1.75782,0.43945 3.33985,1.40625 1.05468,3.7793 1.40625,7.55859 0.43945,3.7793 1.40625,7.5586 l 0,0.26367 q 0,0.43945 0.43945,0.43945 0.52734,-0.0879 0.79102,0.26367 -0.17579,0.26367 -0.26368,0.61524 0,0.35156 0,0.70312 l 0,1.49414 q 0.17578,0.70313 0.43946,1.49414 0.26367,0.79102 1.14257,0.9668 0.43946,2.8125 1.31836,5.18555 0.87891,2.37304 2.02149,4.57031 1.14258,2.19727 2.46094,4.39453 1.31836,2.10938 2.72461,4.48242 2.19726,1.66992 3.77929,3.86719 1.58203,2.10938 3.16406,4.13086 1.66993,1.93359 3.69141,3.42773 2.10938,1.49414 5.44922,1.84571 0.43945,-0.35157 0.61523,-0.9668 l 0.43946,-1.23047 q 0.26367,-0.61523 0.52734,-1.05469 0.35156,-0.52734 0.9668,-0.79101 0.17578,-2.46094 0.35156,-5.00977 0.26367,-2.54883 1.14258,-4.83398 -0.43945,-0.79102 -0.43945,-1.9336 0,-0.8789 0.0879,-1.66992 0.17578,-0.79101 0.17578,-1.58203 0,-1.66992 -0.70313,-2.72461 0,-0.61523 0.0879,-1.23047 0.0879,-0.70312 0.52735,-1.31836 -0.70313,-1.75781 -1.14258,-3.6914 -0.35156,-1.9336 -0.35156,-3.95508 0,-1.14258 0.26367,-2.37305 -0.52735,-1.31836 -0.70313,-3.07617 l -0.35156,-3.60351 q -0.17578,-1.84571 -0.52734,-3.42774 -0.35157,-1.58203 -1.31836,-2.54883 0.52734,-0.79101 0.52734,-1.8457 0,-1.75781 -0.52734,-3.33984 -0.52735,-1.58204 -0.52735,-3.33985 0,-1.23047 0.52735,-2.46094 1.93359,0.0879 3.77929,0.43946 1.9336,0.26367 3.7793,0.26367 0.52734,0.70312 1.23047,1.14258 0.70312,0.43945 1.49414,0.8789 0.79102,0.35157 1.49414,0.79102 0.79102,0.43945 1.23047,1.23047 z" />
  </g>
</svg>
